<?xml version="1.0" encoding="UTF-8"?>
<svg width="3869px" height="3869px" viewBox="0 0 3869 3869" version="1.1" xmlns="http://www.w3.org/2000/svg" xmlns:xlink="http://www.w3.org/1999/xlink">
    <!-- Generator: Sketch 49.3 (51167) - http://www.bohemiancoding.com/sketch -->
    <title>dod-m</title>
    <desc>Created with Sketch.</desc>
    <defs>
        <rect id="path-1" x="0.969756604" y="0.130700695" width="3868" height="3868"></rect>
    </defs>
    <g id="Page-1" stroke="none" stroke-width="1" fill="none" fill-rule="evenodd">
        <g id="dod-m">
            <mask id="mask-2" fill="white">
                <use xlink:href="#path-1"></use>
            </mask>
            <use id="Mask" fill="#EB5263" fill-rule="nonzero" xlink:href="#path-1"></use>
            <g mask="url(#mask-2)">
                <g transform="translate(-0.271822, -1.000000)">
                    <g id="Group-4" transform="translate(0.824354, 0.175256)">
                        <rect id="Rectangle-path" stroke="#EB5263" fill="#EB5263" fill-rule="nonzero" x="0.417224171" y="0.955444695" width="3868" height="3868"></rect>
                    </g>
                    <g id="Group-5" transform="translate(1404.241578, 1187.130701)">
                        <path d="M4.29693096,10.7777918 L219.038857,10.7777918 C299.89847,10.7777918 366.176842,46.5681127 405.943865,114.172052 C436.431917,165.869181 439.083051,189.729395 439.083051,318.309437 C439.083051,456.168451 432.455214,480.028664 404.618298,523.77239 C368.827977,580.77179 303.875173,625.841083 212.411019,625.841083 L4.29693096,625.841083 L4.29693096,10.7777918 Z M97.0866516,538.353632 L208.434317,538.353632 C261.457015,538.353632 298.572903,519.795688 322.433117,485.330934 C343.642196,454.842883 346.293331,437.610506 346.293331,323.611707 C346.293331,213.589609 343.642196,185.752693 318.456415,152.613507 C290.619498,114.172052 258.80588,100.916378 208.434317,100.916378 L97.0866516,100.916378 L97.0866516,538.353632 Z" id="Shape" stroke="#FFDD9D" fill="#FFDD9D" fill-rule="nonzero"></path>
                        <polygon id="Shape" stroke="#FFDD9D" fill="#FFDD9D" fill-rule="nonzero" points="168.667294 957.232942 0.320228644 957.232942 0.320228644 873.722194 429.804079 873.722194 429.804079 957.232942 261.457015 957.232942 261.457015 1488.78549 168.667294 1488.78549"></polygon>
                        <path d="M830.591399,1397.32133 L834.568102,1397.32133 C853.126046,1397.32133 867.707288,1395.99576 880.962962,1392.01906 C891.567502,1389.36793 900.846474,1385.39122 908.799878,1382.74009 C915.427716,1378.76339 920.729985,1376.11225 926.032255,1372.13555 C930.008957,1368.15885 933.98566,1365.50771 936.636795,1361.53101 C941.939064,1354.90317 945.915767,1348.27534 949.892469,1341.6475 C952.543604,1336.34523 953.869171,1331.04296 955.194739,1325.74069 C957.845874,1319.11285 957.845874,1312.48502 959.171441,1307.18275 C959.171441,1304.53161 959.171441,1303.20604 959.171441,1303.20604 C959.171441,1303.20604 959.171441,1303.20604 959.171441,1303.20604 L959.171441,1040.74369 C959.171441,1024.83688 957.845874,1011.58121 956.520306,998.325533 C955.194739,987.720993 952.543604,977.116454 948.566902,966.511914 C943.264632,949.279538 935.311227,933.372728 926.032255,918.791487 C919.404418,908.186947 911.451013,896.25684 902.172041,885.652301 C888.916367,869.745491 873.009558,853.838682 855.777181,836.606305 C847.823776,829.978468 839.870372,822.025064 831.916967,815.397226 L757.68519,747.793287 C748.406218,739.839882 739.127246,731.886478 731.173842,722.607506 C715.267032,706.700696 698.034656,690.793887 683.453414,672.235943 C672.848874,658.980269 662.244335,644.399027 651.639795,628.492218 C645.011958,616.562111 638.384121,604.632004 631.756284,591.376329 C622.477312,571.492818 615.849474,551.609306 611.872772,529.07466 C606.570502,506.540013 605.244935,482.679799 605.244935,457.494018 L605.244935,195.031665 C605.244935,192.38053 605.244935,180.450423 609.221637,163.218047 C611.872772,149.962372 617.175042,134.055563 625.128447,115.497619 C631.756284,102.241945 639.709688,87.6607033 651.639795,74.4050289 C659.5932,63.8004894 670.197739,54.5215173 682.127846,45.2425452 C691.406818,38.614708 700.685791,31.9868709 711.29033,26.6846011 C727.197139,18.7311965 745.755083,12.1033593 765.638595,6.80108951 C785.522107,2.82438719 808.056753,0.173252308 831.916967,0.173252308 L835.893669,0.173252308 C861.079451,0.173252308 883.614097,2.82438719 904.823176,8.12665695 C923.38112,12.1033593 939.287929,18.7311965 955.194739,25.3590337 C968.450413,31.9868709 980.38052,39.9402755 989.659492,47.8936801 C998.938464,54.5215173 1006.89187,62.4749219 1013.51971,70.4283266 C1025.44981,85.0095684 1034.72879,99.5908102 1041.35662,112.846485 C1046.65889,123.451024 1049.31003,132.729996 1053.28673,142.008968 C1057.26343,155.264642 1059.91457,167.194749 1059.91457,176.473721 C1061.24013,185.752693 1061.24013,191.054963 1061.24013,192.38053 L1061.24013,454.842883 C1061.24013,474.726395 1059.91457,494.609906 1057.26343,513.16785 C1054.6123,529.07466 1050.63559,544.981469 1046.65889,559.562711 C1038.70549,584.748492 1026.77538,608.608706 1014.84527,628.492218 C1005.5663,644.399027 993.636194,658.980269 983.031655,672.235943 C969.775981,688.142752 968.450413,690.793887 967.124846,690.793887 L894.218637,623.189948 C895.544204,623.189948 896.869771,621.86438 907.474311,607.283139 C916.753283,596.678599 923.38112,586.07406 931.334525,575.46952 C936.636795,567.516115 940.613497,559.562711 944.590199,550.283739 C949.892469,537.028064 955.194739,523.77239 957.845874,507.865581 C960.497008,491.958771 963.148143,474.726395 963.148143,456.168451 L963.148143,193.706098 C963.148143,192.38053 963.148143,185.752693 960.497008,176.473721 C959.171441,169.845884 956.520306,160.566912 951.218036,152.613507 C947.241334,145.98567 943.264632,139.357833 937.962362,134.055563 C933.98566,130.078861 930.008957,124.776592 923.38112,120.799889 C915.427716,115.497619 904.823176,108.869782 890.241934,104.89308 C875.660692,100.916378 858.428316,98.2652428 835.893669,98.2652428 L831.916967,98.2652428 C813.359023,98.2652428 798.777781,99.5908102 785.522107,103.567513 C774.917567,106.218647 765.638595,110.19535 757.68519,112.846485 C751.057353,116.823187 745.755083,119.474322 740.452814,123.451024 C736.476111,127.427726 732.499409,130.078861 729.848274,134.055563 C724.546004,140.6834 720.569302,147.311237 716.5926,153.939075 C713.941465,159.241344 712.615897,164.543614 711.29033,169.845884 C708.639195,176.473721 708.639195,183.101558 707.313628,188.403828 C707.313628,191.054963 707.313628,192.38053 707.313628,192.38053 L707.313628,454.842883 C707.313628,470.749692 708.639195,484.005367 709.964763,497.261041 C711.29033,507.865581 713.941465,518.47012 717.918167,529.07466 C723.220437,546.307036 731.173842,562.213846 740.452814,576.795087 C747.080651,587.399627 755.034055,599.329734 764.313028,609.934273 C777.568702,625.841083 793.475511,641.747892 810.707888,658.980269 C818.661293,665.608106 826.614697,673.56151 834.568102,680.189348 L908.799878,747.793287 C918.07885,755.746692 927.357823,763.700096 935.311227,772.979068 C951.218036,788.885878 968.450413,804.792687 983.031655,823.350631 C993.636194,836.606305 1004.24073,851.187547 1014.84527,867.094356 C1021.47311,879.024463 1028.10095,890.95457 1034.72879,904.210245 C1044.00776,924.093756 1050.63559,943.977268 1054.6123,966.511914 C1059.91457,989.046561 1061.24013,1012.90677 1061.24013,1038.09256 L1061.24013,1300.55491 C1061.24013,1303.20604 1061.24013,1315.13615 1057.26343,1332.36853 C1054.6123,1345.6242 1049.31003,1361.53101 1041.35662,1380.08896 C1034.72879,1393.34463 1026.77538,1407.92587 1014.84527,1421.18155 C1006.89187,1431.78609 996.287329,1441.06506 984.357222,1450.34403 C975.07825,1456.97187 965.799278,1463.5997 955.194739,1468.90197 C939.287929,1476.85538 920.729985,1483.48322 900.846474,1488.78549 C880.962962,1492.76219 858.428316,1495.41332 834.568102,1495.41332 L830.591399,1495.41332 L831.916967,1495.41332 L827.940265,1495.41332 C802.754483,1495.41332 780.219837,1492.76219 759.010758,1487.45992 C740.452814,1483.48322 724.546004,1476.85538 708.639195,1470.22754 C695.383521,1463.5997 683.453414,1455.6463 674.174442,1447.69289 C664.89547,1441.06506 656.942065,1433.11165 650.314228,1425.15825 C638.384121,1410.57701 629.105149,1395.99576 622.477312,1382.74009 C617.175042,1372.13555 614.523907,1362.85658 610.547205,1353.57761 C606.570502,1340.32193 603.919367,1328.39183 603.919367,1319.11285 C602.5938,1309.83388 602.5938,1304.53161 602.5938,1303.20604 L602.5938,1040.74369 C602.5938,1020.86018 603.919367,1000.97667 606.570502,982.418724 C609.221637,966.511914 613.19834,950.605105 617.175042,936.023863 C625.128447,910.838082 637.058553,886.977868 648.98866,867.094356 C658.267632,851.187547 670.197739,836.606305 680.802279,823.350631 C694.057953,807.443822 695.383521,804.792687 696.709088,804.792687 L769.615297,872.396626 C768.28973,872.396626 766.964162,873.722194 756.359623,888.303436 C747.080651,898.907975 740.452814,909.512515 732.499409,920.117054 C727.197139,928.070459 723.220437,936.023863 719.243735,945.302835 C713.941465,958.55851 708.639195,971.814184 705.98806,987.720993 C703.336925,1003.6278 700.685791,1020.86018 700.685791,1039.41812 L700.685791,1301.88048 C700.685791,1303.20604 700.685791,1309.83388 703.336925,1319.11285 C704.662493,1325.74069 707.313628,1335.01966 712.615897,1342.97307 C716.5926,1349.6009 720.569302,1356.22874 725.871572,1361.53101 C729.848274,1365.50771 733.824976,1370.80998 740.452814,1374.78669 C748.406218,1380.08896 759.010758,1386.71679 773.592,1390.69349 C788.173241,1394.6702 805.405618,1397.32133 827.940265,1397.32133 L831.916967,1397.32133 L830.591399,1397.32133 Z" id="Shape" stroke="#FFDD9D" fill="#FFDD9D" fill-rule="nonzero"></path>
                    </g>
                </g>
            </g>
        </g>
    </g>
</svg>