<?xml version="1.0" encoding="UTF-8"?>
<svg width="1000px" height="1000px" viewBox="0 0 1000 1000" version="1.1" xmlns="http://www.w3.org/2000/svg" xmlns:xlink="http://www.w3.org/1999/xlink">
    <!-- Generator: Sketch 62 (91390) - https://sketch.com -->
    <title>im copy 6</title>
    <desc>Created with Sketch.</desc>
    <defs>
        <rect id="path-1" x="0" y="0" width="804" height="553"></rect>
    </defs>
    <g id="Page-1" stroke="none" stroke-width="1" fill="none" fill-rule="evenodd">
        <g id="im-copy-6">
            <rect id="Rectangle" fill="#46B196" x="0" y="0" width="1000" height="1000"></rect>
            <g id="Group" transform="translate(0.000000, 260.000000)">
                <mask id="mask-2" fill="white">
                    <use xlink:href="#path-1"></use>
                </mask>
                <g id="Mask"></g>
                <g mask="url(#mask-2)">
                    <g transform="translate(-100.000000, 30.000000)">
                        <path d="M847.543258,2.84217094e-14 C857.484384,2.84217094e-14 865.543258,8.0588745 865.543258,18 L865.543258,18 L865.543258,386.085674 C865.543258,396.0268 857.484384,404.085674 847.543258,404.085674 L847.543258,404.085674 L605.375,404.085 L459.173898,497.291219 C447.311322,504.853736 431.811257,496.493947 431.502442,482.537818 L431.502442,482.537818 L431.497753,482.113202 L431.497,404.221 L352.339251,403.705235 C342.555369,403.641371 334.636476,395.780553 334.456742,386.038455 L334.456742,386.038455 L334.455798,317.551 L18.8867978,317.551404 C9.05612921,317.551404 1.06611623,309.670621 0.889774048,299.88207 L0.886797753,299.551404 L0.886797753,236.090169 C0.886797753,226.149043 8.94567226,218.090169 18.8867978,218.090169 L18.8867978,218.090169 L334.455798,218.09 L334.455798,190.628 L189.032584,190.628933 C179.201916,190.628933 171.211903,182.748149 171.035561,172.959598 L171.032584,172.628933 L171.032584,109.167697 C171.032584,99.2265711 179.091459,91.1676966 189.032584,91.1676966 L189.032584,91.1676966 L334.455798,91.167 L334.456742,18 C334.456742,8.16933145 342.337525,0.179318477 352.126076,0.0029762956 L352.456742,2.84217094e-14 Z M829.543,36 L370.456,36 L370.455798,91.167 L757.089888,91.1676966 C766.920556,91.1676966 774.910569,99.04848 775.086911,108.837031 L775.089888,109.167697 L775.089888,172.628933 C775.089888,182.570058 767.031013,190.628933 757.089888,190.628933 L757.089888,190.628933 L370.455798,190.628 L370.457039,232.162583 C370.715362,233.323311 370.861605,234.526266 370.883821,235.759503 L370.886798,236.090169 L370.886798,299.551404 C370.886798,300.900405 370.7384,302.214744 370.457039,303.47899 L370.456,367.823 L449.615244,368.339428 C459.399126,368.403292 467.318019,376.26411 467.494736,386.006208 L467.494736,386.006208 L467.497753,386.339045 L467.497,449.291 L590.45054,370.907657 C593.21568,369.144851 596.407345,368.172442 599.679952,368.091217 L599.679952,368.091217 L600.126685,368.085674 L829.543,368.085 L829.543,36 Z M757.089888,218.090169 C767.031013,218.090169 775.089888,226.149043 775.089888,236.090169 L775.089888,236.090169 L775.089888,299.551404 C775.089888,309.49253 767.031013,317.551404 757.089888,317.551404 L757.089888,317.551404 L442.910112,317.551404 C432.968987,317.551404 424.910112,309.49253 424.910112,299.551404 L424.910112,299.551404 L424.910112,236.090169 C424.910112,226.149043 432.968987,218.090169 442.910112,218.090169 L442.910112,218.090169 Z M334.455798,254.09 L36.886,254.09 L36.886,281.551 L334.455798,281.551 L334.455798,254.09 Z M739.089,254.09 L460.91,254.09 L460.91,281.551 L739.089,281.551 L739.089,254.09 Z M334.455798,127.167 L207.032,127.167 L207.032,154.628 L334.455798,154.628 L334.455798,127.167 Z M739.089,127.167 L370.455798,127.167 L370.455798,154.628 L739.089,154.628 L739.089,127.167 Z" id="Combined-Shape" fill="#000000" fill-rule="nonzero" style="mix-blend-mode: multiply;" opacity="0.240652902"></path>
                        <rect id="Rectangle" fill="#46B196" fill-rule="evenodd" x="324" y="127.167" width="53" height="27.461"></rect>
                    </g>
                </g>
            </g>
        </g>
    </g>
</svg>