<?xml version="1.0" encoding="UTF-8"?>
<svg width="1440px" height="798px" viewBox="0 0 1440 798" version="1.1" xmlns="http://www.w3.org/2000/svg" xmlns:xlink="http://www.w3.org/1999/xlink">
    <!-- Generator: Sketch 62 (91390) - https://sketch.com -->
    <title>j2 copy 2</title>
    <desc>Created with Sketch.</desc>
    <defs>
        <rect id="path-1" x="0" y="0" width="1440" height="798"></rect>
    </defs>
    <g id="Page-1" stroke="none" stroke-width="1" fill="none" fill-rule="evenodd">
        <g id="j2-copy-2" transform="translate(720.000000, 399.000000) scale(-1, 1) translate(-720.000000, -399.000000) ">
            <mask id="mask-2" fill="white">
                <use xlink:href="#path-1"></use>
            </mask>
            <use id="Mask" fill="#FFE4B0" xlink:href="#path-1"></use>
            <g id="j2" opacity="0.467564174" style="mix-blend-mode: multiply;" mask="url(#mask-2)" fill="#FFE4B0" fill-rule="nonzero">
                <g transform="translate(-186.558392, -1268.000000)" id="Shape">
                    <path d="M1140.01181,1462.20959 C1115.696,1486.5254 1076.27227,1486.5254 1051.95646,1462.20959 C1027.64065,1437.89377 1027.64065,1398.47005 1051.95646,1374.15424 L1670.78377,755.326922 C1695.09959,731.011107 1734.52331,731.011107 1758.83913,755.326922 C1783.15494,779.642737 1783.15494,819.066458 1758.83913,843.382277 L1140.01181,1462.20959 Z"></path>
                    <path d="M1471.58342,1448.1191 C1447.3423,1472.50938 1407.91877,1472.63032 1383.52848,1448.38921 C1359.13819,1424.14809 1359.01726,1384.72455 1383.25837,1360.33427 L1524.99119,1217.72924 C1549.23231,1193.33895 1588.65585,1193.21802 1613.04613,1217.45913 C1637.43642,1241.70024 1637.55736,1281.12378 1613.31624,1305.51407 L1471.58342,1448.1191 Z"></path>
                    <path d="M302.338522,1337.8412 C277.825827,1361.95853 238.403404,1361.63802 214.286074,1337.12533 C190.168748,1312.61263 190.489254,1273.19021 215.00195,1249.07288 L296.116735,1169.2664 C320.62943,1145.14907 360.051853,1145.46958 384.169179,1169.98227 C408.286509,1194.49496 407.965999,1233.91739 383.453308,1258.03472 L302.338522,1337.8412 Z"></path>
                    <path d="M477.23802,1482.86198 C452.977409,1507.23287 413.553784,1507.32227 389.182896,1483.06165 C364.812008,1458.80104 364.722606,1419.37742 388.983226,1395.00652 L580.86766,1202.24989 C605.128276,1177.879 644.551901,1177.7896 668.922789,1202.05022 C693.293681,1226.31083 693.383074,1265.73445 669.122463,1290.10534 L477.23802,1482.86198 Z"></path>
                    <path d="M512.026379,1766.60808 C487.710563,1790.9239 448.286838,1790.9239 423.971023,1766.60808 C399.655208,1742.29227 399.655208,1702.86854 423.971023,1678.55273 L706.128369,1396.39538 C730.444184,1372.07957 769.867909,1372.07957 794.183724,1396.39538 C818.499535,1420.7112 818.499535,1460.13492 794.183724,1484.45074 L512.026379,1766.60808 Z"></path>
                    <path d="M782.408996,2140.34664 C758.093181,2164.66245 718.669455,2164.66245 694.353644,2140.34664 C670.037829,2116.03082 670.037829,2076.6071 694.353644,2052.29129 L726.625115,2020.01981 C750.940931,1995.704 790.364656,1995.704 814.680467,2020.01981 C838.996286,2044.33562 838.996286,2083.75935 814.680467,2108.07516 L782.408996,2140.34664 Z"></path>
                    <path d="M621.033965,1979.87913 C596.708396,2004.18519 557.284675,2004.16937 532.978614,1979.84381 C508.672557,1955.51824 508.68837,1916.09452 533.013939,1891.78846 L1076.83188,1348.40662 C1101.15745,1324.10056 1140.58117,1324.11637 1164.88723,1348.44194 C1189.19328,1372.76751 1189.17747,1412.19123 1164.85191,1436.49729 L621.033965,1979.87913 Z"></path>
                    <path d="M219.763643,1740.08086 C195.406439,1764.35522 155.98277,1764.28806 131.708418,1739.93086 C107.434062,1715.57365 107.501224,1676.14998 131.858428,1651.87563 L388.285809,1396.32044 C412.643013,1372.04609 452.066681,1372.11325 476.341038,1396.47045 C500.615389,1420.82766 500.548232,1460.25133 476.191028,1484.52568 L219.763643,1740.08086 Z"></path>
                    <path d="M1279.61859,1963.67121 C1255.33289,1988.0171 1215.90919,1988.06589 1191.56331,1963.78019 C1167.21741,1939.49449 1167.16862,1900.07079 1191.45432,1875.7249 L1543.38782,1522.9192 C1567.67353,1498.57331 1607.09722,1498.52452 1631.44311,1522.81022 C1655.789,1547.09592 1655.83779,1586.51962 1631.55209,1610.86551 L1279.61859,1963.67121 Z"></path>
                    <path d="M1563.02978,1999.92212 C1538.71397,2024.23793 1499.29024,2024.23793 1474.97443,1999.92212 C1450.65861,1975.6063 1450.65861,1936.18258 1474.97443,1911.86676 L1532.53976,1854.30143 C1556.85557,1829.98562 1596.2793,1829.98562 1620.59511,1854.30143 C1644.91092,1878.61725 1644.91092,1918.04097 1620.59511,1942.35679 L1563.02978,1999.92212 Z"></path>
                    <path d="M782.408996,2139.03833 C758.093181,2163.35415 718.669455,2163.35415 694.353644,2139.03833 C670.037829,2114.72252 670.037829,2075.29879 694.353644,2050.98298 L1222.47195,1522.86467 C1246.78776,1498.54886 1286.21149,1498.54886 1310.5273,1522.86467 C1334.84312,1547.18049 1334.84312,1586.60421 1310.5273,1610.92003 L782.408996,2139.03833 Z"></path>
                    <path d="M213.341464,1250.1781 C238.248638,1226.46839 277.660415,1227.43912 301.370125,1252.34629 C325.079839,1277.25347 324.109102,1316.66524 299.201933,1340.37495 C229.207386,1407.00437 119.408482,1407.6247 51.7588546,1339.3042 C-17.0754978,1270.46985 -17.0754978,1158.92212 51.9762701,1090.54734 C76.4115742,1066.3516 115.834819,1066.5458 140.030555,1090.9811 C164.226295,1115.4164 164.032094,1154.83965 139.59679,1179.03539 C119.683961,1198.75299 119.683961,1231.1186 140.030555,1251.46627 C159.36417,1270.9913 191.668828,1270.80879 213.341464,1250.1781 Z"></path>
                    <path d="M1609.90356,1309.09788 C1584.99639,1332.80759 1545.58462,1331.83686 1521.8749,1306.92969 C1498.16519,1282.02252 1499.13593,1242.61074 1524.0431,1218.90103 C1594.03764,1152.27161 1703.83655,1151.65128 1771.48618,1219.97178 C1840.32053,1288.80613 1840.32053,1400.35386 1771.26876,1468.72865 C1746.83346,1492.92439 1707.41021,1492.73018 1683.21447,1468.29488 C1659.01874,1443.85958 1659.21294,1404.43633 1683.64824,1380.2406 C1703.56107,1360.52299 1703.56107,1328.15739 1683.21447,1307.80971 C1663.88086,1288.28468 1631.5762,1288.4672 1609.90356,1309.09788 Z"></path>
                    <path d="M506.568037,1130.29647 C481.660868,1154.00618 442.249095,1153.03545 418.539385,1128.12828 C394.829671,1103.22111 395.800408,1063.80933 420.707577,1040.09962 C490.702119,973.470201 600.501028,972.849874 668.150651,1041.17037 C736.985008,1110.00472 736.985008,1221.55245 667.93324,1289.92724 C643.497936,1314.12298 604.074691,1313.92878 579.878951,1289.49347 C555.683215,1265.05817 555.877416,1225.63493 580.312715,1201.43919 C600.225549,1181.72158 600.225549,1149.35598 579.878951,1129.00831 C560.545336,1109.48327 528.240682,1109.66579 506.568037,1130.29647 Z"></path>
                    <path d="M1357.23963,2031.15989 C1382.1468,2007.45018 1421.55857,2008.42092 1445.26828,2033.32809 C1468.978,2058.23526 1468.00726,2097.64703 1443.10009,2121.35675 C1373.10555,2187.98616 1263.30664,2188.6065 1195.65702,2120.286 C1126.82266,2051.45165 1126.82266,1939.90392 1195.87443,1871.52913 C1220.30973,1847.33339 1259.73297,1847.52759 1283.92872,1871.96289 C1308.12445,1896.39819 1307.93025,1935.82144 1283.49495,1960.01718 C1263.58212,1979.73479 1263.58212,2012.10039 1283.92872,2032.44806 C1303.26233,2051.9731 1335.56698,2051.79058 1357.23963,2031.15989 Z"></path>
                    <path d="M693.052566,2051.65129 C717.959735,2027.94157 757.371508,2028.9123 781.081222,2053.81948 C804.790932,2078.72665 803.820195,2118.13842 778.91303,2141.84813 C708.918484,2208.47755 599.11958,2209.09788 531.469952,2140.77739 C462.6356,2071.94303 462.6356,1960.39531 531.687367,1892.02052 C556.122667,1867.82478 595.545916,1868.01898 619.741652,1892.45428 C643.937392,1916.88958 643.743192,1956.31283 619.307888,1980.50857 C599.395054,2000.22618 599.395054,2032.59178 619.741652,2052.93945 C639.075267,2072.46449 671.379921,2072.28197 693.052566,2051.65129 Z"></path>
                    <path d="M296.200658,1808.74838 C321.107828,1785.03868 360.5196,1786.00941 384.229315,1810.91658 C407.939024,1835.82375 406.968292,1875.23553 382.061122,1898.94524 C312.066576,1965.57466 202.267672,1966.19499 134.618044,1897.87449 C65.7836963,1829.04014 65.7836963,1717.49241 134.835464,1649.11762 C159.27076,1624.92188 198.694008,1625.11608 222.889744,1649.55138 C247.085489,1673.98669 246.891284,1713.40993 222.455985,1737.60567 C202.543147,1757.32328 202.543147,1789.68888 222.889744,1810.03655 C242.22336,1829.56158 274.528014,1829.37907 296.200658,1808.74838 Z"></path>
                </g>
            </g>
        </g>
    </g>
</svg>