<?xml version="1.0" encoding="UTF-8"?>
<svg width="417px" height="504px" viewBox="0 0 417 504" version="1.1" xmlns="http://www.w3.org/2000/svg" xmlns:xlink="http://www.w3.org/1999/xlink">
    <!-- Generator: Sketch 52.3 (67297) - http://www.bohemiancoding.com/sketch -->
    <title>j</title>
    <desc>Created with Sketch.</desc>
    <g id="Page-1" stroke="none" stroke-width="1" fill="none" fill-rule="evenodd">
        <g id="j" transform="translate(0.444825, -0.500000)" fill="#3990E0">
            <path d="M292.098571,159.400943 C286.536754,164.962759 277.519267,164.962759 271.95745,159.400943 C266.395633,153.839126 266.395633,144.821639 271.95745,139.259822 L370.909915,40.307358 C376.471731,34.745541 385.489217,34.745541 391.051035,40.307358 C396.612852,45.869175 396.612852,54.886662 391.051035,60.448478 L292.098571,159.400943 Z" id="Shape"></path>
            <path d="M331.998758,192.739992 C326.436941,198.301809 317.419454,198.301809 311.857637,192.739992 C306.29582,187.178175 306.29582,178.160688 311.857637,172.598871 L348.067057,136.389451 C353.628874,130.827634 362.646361,130.827634 368.208178,136.389451 C373.769995,141.951268 373.769995,150.968755 368.208178,156.530572 L331.998758,192.739992 Z" id="Shape"></path>
            <path d="M295.003752,82.807491 C289.441935,88.369307 280.424448,88.369307 274.862631,82.807491 C269.300814,77.245673 269.300814,68.228187 274.862631,62.66637 L316.857578,20.671423 C322.419395,15.109606 331.436881,15.109606 336.998698,20.671423 C342.560516,26.233239 342.560516,35.250727 336.998698,40.812543 L295.003752,82.807491 Z" id="Shape"></path>
            <path d="M260.178421,337.976673 C254.616604,343.53849 245.599117,343.53849 240.0373,337.976673 C234.475484,332.414856 234.475484,323.397369 240.0373,317.835553 L381.583214,176.289639 C387.145031,170.727822 396.162518,170.727822 401.724335,176.289639 C407.286151,181.851456 407.286151,190.868942 401.724335,196.43076 L260.178421,337.976673 Z" id="Shape"></path>
            <path d="M336.01962,334.75372 C330.47489,340.332571 321.457446,340.360233 315.878595,334.815503 C310.299743,329.270773 310.272083,320.253328 315.816813,314.674477 L348.235714,282.056074 C353.780444,276.477222 362.797889,276.449561 368.37674,281.994291 C373.955592,287.539021 373.983253,296.556465 368.438523,302.135317 L336.01962,334.75372 Z" id="Shape"></path>
            <path d="M295.049785,228.890794 C289.465251,234.429801 280.44784,234.392895 274.908833,228.808362 C269.369826,223.223828 269.406732,214.206417 274.991265,208.66741 L311.699438,172.258489 C317.283971,166.719482 326.301382,166.756388 331.84039,172.340921 C337.379397,177.925454 337.34249,186.942865 331.757957,192.481873 L295.049785,228.890794 Z" id="Shape"></path>
            <path d="M68.575321,309.529581 C62.968471,315.045998 53.951282,314.972687 48.434865,309.365838 C42.918449,303.758988 42.991759,294.7418 48.598609,289.225383 L67.152196,270.971047 C72.759046,265.454631 81.776235,265.527941 87.292651,271.134791 C92.809068,276.74164 92.735757,285.758829 87.128908,291.275246 L68.575321,309.529581 Z" id="Shape"></path>
            <path d="M31.818123,272.57138 C26.29427,278.170903 17.276992,278.232245 11.677469,272.708392 C6.077947,267.184538 6.016604,258.16726 11.540458,252.567737 L18.822242,245.186202 C24.346095,239.58668 33.363374,239.525337 38.962896,245.049191 C44.56242,250.573045 44.623761,259.590323 39.099908,265.189846 L31.818123,272.57138 Z" id="Shape"></path>
            <path d="M108.580519,342.243082 C103.031329,347.817496 94.013865,347.837945 88.439451,342.288753 C82.865037,336.739563 82.844588,327.722099 88.39378,322.147684 L132.283985,278.057978 C137.833176,272.483564 146.85064,272.463116 152.425054,278.012307 C157.999469,283.561497 158.019916,292.578961 152.470726,298.153375 L108.580519,342.243082 Z" id="Shape"></path>
            <path d="M116.537747,407.6025 C110.97593,413.164317 101.958443,413.164317 96.396626,407.6025 C90.834809,402.040683 90.834809,393.023196 96.396626,387.461379 L160.935179,322.922826 C166.496996,317.36101 175.514483,317.36101 181.0763,322.922826 C186.638116,328.484643 186.638116,337.50213 181.0763,343.063947 L116.537747,407.6025 Z" id="Shape"></path>
            <path d="M178.383037,493.088651 C172.82122,498.650468 163.803733,498.650468 158.241917,493.088651 C152.6801,487.526834 152.6801,478.509347 158.241917,472.947531 L165.623451,465.565996 C171.185268,460.004179 180.202755,460.004179 185.764571,465.565996 C191.326389,471.127812 191.326389,480.145299 185.764571,485.707116 L178.383037,493.088651 Z" id="Shape"></path>
            <path d="M141.471324,456.384517 C135.907276,461.944103 126.88979,461.940485 121.330204,456.376438 C115.770619,450.812391 115.774236,441.794905 121.338284,436.23532 L245.727117,311.946236 C251.291165,306.386651 260.308651,306.390268 265.868236,311.954315 C271.427821,317.518363 271.424205,326.535849 265.860157,332.095435 L141.471324,456.384517 Z" id="Shape"></path>
            <path d="M49.687763,401.534862 C44.116479,407.087197 35.099005,407.071834 29.546672,401.500551 C23.994338,395.929267 24.0097,386.911793 29.580984,381.35946 L88.234258,322.905685 C93.805542,317.353351 102.823016,317.368713 108.37535,322.939997 C113.927683,328.511281 113.912322,337.528755 108.341038,343.081089 L49.687763,401.534862 Z" id="Shape"></path>
            <path d="M292.111026,452.67724 C286.556097,458.245937 277.538618,458.257097 271.969922,452.702167 C266.401225,447.147238 266.390065,438.129758 271.944994,432.561062 L352.443621,351.862933 C357.998551,346.294237 367.016031,346.283077 372.584727,351.838006 C378.153423,357.392936 378.164583,366.410416 372.609654,371.979112 L292.111026,452.67724 Z" id="Shape"></path>
            <path d="M358.294356,460.969 C352.732539,466.530817 343.715052,466.530817 338.153235,460.969 C332.591418,455.407183 332.591418,446.389697 338.153235,440.82788 L351.320297,427.660818 C356.882114,422.099001 365.899601,422.099001 371.461418,427.660818 C377.023234,433.222635 377.023234,442.240122 371.461418,447.801939 L358.294356,460.969 Z" id="Shape"></path>
            <path d="M234.7811,30.741983 C234.7811,22.876387 241.157426,16.50006 249.023023,16.50006 C256.88862,16.50006 263.264945,22.876387 263.264945,30.741983 L263.264945,31.744462 C263.264945,39.610059 256.88862,45.986386 249.023023,45.986386 C241.157426,45.986386 234.7811,39.610059 234.7811,31.744462 L234.7811,30.741983 Z" id="Shape-Copy"></path>
            <path d="M178.383037,492.789399 C172.82122,498.351216 163.803733,498.351216 158.241917,492.789399 C152.6801,487.227583 152.6801,478.210095 158.241917,472.648279 L279.039733,351.850462 C284.60155,346.288645 293.619037,346.288645 299.180854,351.850462 C304.742671,357.412279 304.742671,366.429766 299.180854,371.991583 L178.383037,492.789399 Z" id="Shape"></path>
            <path d="M369.625577,24.852468 C364.06376,19.290652 364.06376,10.273165 369.625577,4.711348 C375.187393,-0.850469 384.20488,-0.850469 389.766697,4.711348 C405.51135,20.456001 405.51135,45.97059 389.716967,61.610126 C384.12782,67.144478 375.110442,67.100058 369.57609,61.51091 C364.041739,55.921763 364.08616,46.904386 369.675307,41.370034 C374.230019,36.859976 374.230019,29.456911 369.625577,24.852468 Z" id="Shape"></path>
            <path d="M49.106877,288.563253 C54.803957,283.140071 63.818711,283.362109 69.241892,289.059189 C74.665074,294.756269 74.443035,303.771021 68.745956,309.194203 C52.735929,324.434516 27.621352,324.576406 12.147684,308.949288 C-3.596969,293.204635 -3.596969,267.690045 12.197414,252.05051 C17.786562,246.516158 26.803939,246.560578 32.33829,252.149726 C37.872642,257.738872 37.828222,266.756251 32.239074,272.290602 C27.684363,276.80066 27.684363,284.203725 32.33829,288.857898 C36.760516,293.323908 44.149641,293.282161 49.106877,288.563253 Z" id="Shape"></path>
            <path d="M274.914153,62.321732 C280.611232,56.89855 289.625985,57.120588 295.049166,62.817668 C300.472348,68.514748 300.25031,77.5295 294.55323,82.952681 C278.543204,98.192995 253.428627,98.334885 237.905473,82.658036 C232.371122,77.068889 232.415542,68.051512 238.00469,62.517161 C243.593836,56.982808 252.611213,57.027229 258.145566,62.616377 C262.567791,67.082386 269.956915,67.04064 274.914153,62.321732 Z" id="Shape"></path>
            <path d="M367.657932,157.257964 C361.960852,162.681145 352.946099,162.459108 347.522917,156.762028 C342.099736,151.064949 342.321775,142.050196 348.018854,136.627014 C364.02888,121.386701 389.143458,121.244811 404.666612,136.921659 C410.200963,142.510806 410.156542,151.528184 404.567395,157.062536 C398.978248,162.596887 389.960871,162.552466 384.426519,156.96332 C380.004294,152.497309 372.615169,152.539056 367.657932,157.257964 Z" id="Shape"></path>
            <path d="M367.657932,302.955051 C361.960852,308.378232 352.946099,308.156195 347.522917,302.459115 C342.099736,296.762035 342.321775,287.747282 348.018854,282.324101 C364.02888,267.083787 389.143458,266.941898 404.617126,282.569016 C420.361779,298.313669 420.361779,323.828258 404.567395,339.467794 C398.978248,345.002146 389.960871,344.957725 384.426519,339.368578 C378.892168,333.779431 378.936588,324.762053 384.525735,319.227702 C389.080447,314.717644 389.080447,307.314579 384.426519,302.660405 C380.004294,298.194396 372.615169,298.236143 367.657932,302.955051 Z" id="Shape"></path>
            <path d="M115.289247,262.057359 C109.592168,267.48054 100.577415,267.258503 95.154234,261.561423 C89.731052,255.864344 89.953091,246.84959 95.65017,241.426409 C111.660196,226.186095 136.774774,226.044206 152.248441,241.671324 C167.993095,257.415977 167.993095,282.930566 152.198712,298.570102 C146.609564,304.104454 137.592187,304.060034 132.057835,298.470886 C126.523484,292.881739 126.567904,283.864362 132.157051,278.33001 C136.711763,273.819952 136.711763,266.416887 132.057835,261.762714 C127.635609,257.296704 120.246485,257.338451 115.289247,262.057359 Z" id="Shape"></path>
            <path d="M275.64987,208.441234 C281.346949,203.018052 290.361702,203.240091 295.784884,208.93717 C301.208065,214.63425 300.986027,223.649003 295.288948,229.072185 C279.278921,244.312497 254.164345,244.454388 238.690677,228.82727 C222.946023,213.082617 222.946023,187.568028 238.740406,171.928491 C244.329554,166.394139 253.346931,166.43856 258.881282,172.027707 C264.415634,177.616855 264.371214,186.634232 258.782066,192.168583 C254.227354,196.678642 254.227354,204.081707 258.881282,208.735879 C263.303509,213.20189 270.692632,213.160143 275.64987,208.441234 Z" id="Shape"></path>
            <path d="M309.925506,468.114095 C315.622585,462.690913 324.637338,462.912952 330.060519,468.610031 C335.483701,474.307111 335.261662,483.321864 329.564583,488.745046 C313.554557,503.985358 288.43998,504.127249 272.966312,488.500131 C257.221658,472.755478 257.221658,447.240888 273.016041,431.601352 C278.605189,426.067 287.622566,426.111421 293.156918,431.700568 C298.691269,437.289715 298.646849,446.307092 293.057702,451.841444 C288.50299,456.351503 288.50299,463.754568 293.156918,468.40874 C297.579144,472.874751 304.968268,472.833004 309.925506,468.114095 Z" id="Shape"></path>
            <path d="M158.728679,472.104114 C164.425758,466.680932 173.440511,466.90297 178.863693,472.60005 C184.286874,478.29713 184.064835,487.311882 178.367757,492.735064 C162.35773,507.975377 137.243153,508.117267 121.769485,492.490149 C106.024832,476.745496 106.024832,451.230907 121.819215,435.591371 C127.408362,430.057019 136.42574,430.101439 141.960091,435.690587 C147.494443,441.279734 147.450023,450.297112 141.860875,455.831463 C137.306163,460.341521 137.306163,467.744586 141.960091,472.398759 C146.382317,476.864769 153.771441,476.823022 158.728679,472.104114 Z" id="Shape"></path>
            <path d="M67.171392,417.241356 C72.868471,411.818175 81.883224,412.040213 87.306406,417.737292 C92.729587,423.434372 92.507549,432.449126 86.81047,437.872307 C70.800443,453.11262 45.685866,453.25451 30.212198,437.627392 C14.467546,421.882739 14.467546,396.36815 30.261929,380.728613 C35.851075,375.194261 44.868453,375.238682 50.402804,380.827829 C55.937157,386.416977 55.892736,395.434354 50.303589,400.968705 C45.748876,405.478764 45.748876,412.881829 50.402804,417.536002 C54.82503,422.002011 62.214154,421.960265 67.171392,417.241356 Z" id="Shape"></path>
        </g>
    </g>
</svg>