<?xml version="1.0" encoding="UTF-8"?>
<svg width="1657px" height="797px" viewBox="0 0 1657 797" version="1.1" xmlns="http://www.w3.org/2000/svg" xmlns:xlink="http://www.w3.org/1999/xlink">
    <!-- Generator: Sketch 51.2 (57519) - http://www.bohemiancoding.com/sketch -->
    <title>mailback copy</title>
    <desc>Created with Sketch.</desc>
    <defs>
        <path d="M118.632558,0.86046512 C110.560465,0.86046512 103.109302,2.72093023 96.6930233,6.23514212 C90.2767442,9.749354 85.1023256,14.9173127 81.3767442,21.5322997 L80.9627907,21.5322997 C75.7883721,7.68217054 63.9906977,0.86046512 45.5697674,0.86046512 C38.3255814,0.86046512 31.9093023,2.51421189 25.9069767,5.61498708 C19.9046512,8.71576227 15.3511628,13.2635659 12.2465116,19.0516796 L11.6255814,19.0516796 L9.3488372,3.13436693 L0.44883721,3.13436693 L0.44883721,119.516796 L11.0046512,119.516796 L11.0046512,55.2273902 C11.0046512,39.5167959 13.9023256,28.1472868 19.2837209,21.118863 C24.872093,14.0904393 33.772093,10.369509 45.9837209,10.369509 C63.9906977,10.369509 73.0976744,20.0852713 73.0976744,39.7235142 L73.0976744,119.310078 L83.8604651,119.310078 L83.8604651,51.0930233 C83.8604651,37.0361757 86.7581395,26.7002584 92.3465116,20.0852713 C98.1418605,13.4702842 106.834884,10.1627907 118.839535,10.1627907 C127.946512,10.1627907 134.776744,12.8501292 139.330233,18.0180879 C143.676744,23.1860465 145.953488,31.4547804 145.953488,42.8242894 L145.953488,119.103359 L156.509302,119.103359 L156.509302,43.0310078 C156.509302,28.3540052 153.404651,17.3979328 146.988372,10.7829457 C140.986047,4.16795866 131.465116,0.86046512 118.632558,0.86046512 Z" id="path-1"></path>
        <path d="M30.8395349,121.377261 C22.1465116,120.550388 15.1093023,117.656331 9.93488372,112.901809 C3.51860465,107.113695 0.413953488,98.8449612 0.413953488,88.5090439 C0.413953488,77.1395349 5.1744186,68.250646 14.6953488,62.0490956 C24.2162791,55.8475452 37.8767442,52.5400517 55.8837209,52.126615 L78.0302326,51.5064599 L78.0302326,43.6511628 C78.0302326,32.4883721 75.7534884,24.2196382 71.2,18.6382429 C66.6465116,13.0568475 59.4023256,10.1627907 49.4674419,10.1627907 C38.7046512,10.1627907 27.527907,13.2635659 15.9372093,19.0516796 L12.0046512,9.749354 C24.8372093,3.75452196 37.4627907,0.86046512 50.0883721,0.86046512 C62.9209302,0.86046512 72.4418605,4.16795866 78.8581395,10.7829457 C85.2744186,17.3979328 88.3790698,27.7338501 88.3790698,41.7906977 L88.3790698,119.310078 L80.5139535,119.310078 L77.8232558,100.912145 L76.9953488,100.912145 C71.2,108.354005 65.1976744,113.728682 58.9883721,116.829457 C54.227907,119.103359 48.8465116,120.550388 42.844186,121.170543 L30.8395349,121.377261 Z M77.6162791,71.5581395 C77.6162791,84.1679587 74.0976744,94.0904393 66.8534884,101.118863 C59.6093023,108.147287 49.8813953,111.868217 37.4627907,111.868217 C29.3906977,111.868217 22.9744186,109.801034 18.4209302,105.873385 C13.8674419,101.945736 11.7976744,96.1576227 11.7976744,88.9224806 C11.7976744,79.8268734 15.3162791,73.005168 22.3534884,68.6640827 C29.3906977,64.3229974 40.9813953,61.8423773 57.3325581,61.0155039 L77.8232558,60.1886305 L77.6162791,71.5581395 Z" id="path-3"></path>
        <path d="M12.0046512,3.30749354 C10.7627907,1.44702842 9.10697674,0.620155039 6.83023256,0.620155039 C2.27674419,0.620155039 0,4.13436693 0,10.9560724 C0,17.9844961 2.27674419,21.2919897 6.83023256,21.2919897 C9.10697674,21.2919897 10.7627907,20.4651163 12.0046512,18.6046512 C13.2465116,16.744186 13.8674419,14.2635659 13.8674419,10.9560724 C14.0744186,7.64857881 13.2465116,5.16795866 12.0046512,3.30749354 Z" id="path-5"></path>
        <path d="M12.0046512,3.30749354 C10.7627907,1.44702842 9.10697674,0.620155039 6.83023256,0.620155039 C2.27674419,0.620155039 0,4.13436693 0,10.9560724 C0,17.9844961 2.27674419,21.2919897 6.83023256,21.2919897 C9.10697674,21.2919897 10.7627907,20.4651163 12.0046512,18.6046512 C13.2465116,16.744186 13.8674419,14.2635659 13.8674419,10.9560724 C14.0744186,7.64857881 13.2465116,5.16795866 12.0046512,3.30749354 Z" id="path-7"></path>
        <path d="M12.0046512,3.30749354 C10.7627907,1.44702842 9.10697674,0.620155039 6.83023256,0.620155039 C2.27674419,0.620155039 0,4.13436693 0,10.9560724 C0,17.9844961 2.27674419,21.2919897 6.83023256,21.2919897 C9.10697674,21.2919897 10.7627907,20.4651163 12.0046512,18.6046512 C13.2465116,16.744186 13.8674419,14.2635659 13.8674419,10.9560724 C14.0744186,7.64857881 13.2465116,5.16795866 12.0046512,3.30749354 Z" id="path-9"></path>
        <path d="M12.0046512,3.30749354 C10.7627907,1.44702842 9.10697674,0.620155039 6.83023256,0.620155039 C2.27674419,0.620155039 0,4.13436693 0,10.9560724 C0,17.9844961 2.27674419,21.2919897 6.83023256,21.2919897 C9.10697674,21.2919897 10.7627907,20.4651163 12.0046512,18.6046512 C13.2465116,16.744186 13.8674419,14.2635659 13.8674419,10.9560724 C14.0744186,7.64857881 13.2465116,5.16795866 12.0046512,3.30749354 Z" id="path-11"></path>
        <path d="M43.5,168.922481 C37.2906977,168.302326 31.7023256,166.648579 26.7348837,163.96124 C20.1116279,160.447028 14.7302326,155.692506 11.0046512,149.490956 L9.9697674,149.490956 L6.86511628,167.062016 L0.24186047,167.062016 L0.24186047,0.24031008 L10.7976744,0.24031008 L10.7976744,42.2041344 C10.7976744,48.4056848 10.5906977,54.1937984 10.3837209,59.5684755 L9.9697674,68.6640827 L10.7976744,68.6640827 C15.144186,61.6356589 20.5255814,56.4677003 26.9418605,53.1602067 C33.1511628,49.8527132 40.8093023,48.1989664 49.5023256,48.1989664 C65.8534884,48.1989664 78.0651163,53.3669251 86.344186,63.496124 C94.6232558,73.8320413 98.7627907,88.7157623 98.7627907,108.354005 C98.7627907,127.78553 94.4162791,142.669251 85.7232558,153.211886 C78.272093,162.307494 67.9232558,167.475452 55.0906977,168.715762 L43.5,168.922481 Z M10.7976744,108.560724 C10.7976744,90.5762274 13.6953488,77.5529716 19.6976744,69.6976744 C25.7,61.8423773 35.427907,57.9147287 49.2953488,57.9147287 C74.7534884,57.9147287 87.5860465,74.6589147 87.5860465,108.354005 C87.5860465,124.684755 84.2744186,137.501292 77.8581395,146.390181 C71.4418605,155.27907 61.9209302,159.620155 49.0883721,159.620155 C36.0488372,159.620155 26.3209302,155.899225 20.1116279,148.250646 C13.9023256,140.602067 10.7976744,127.992248 10.7976744,110.421189 L10.7976744,108.560724 Z" id="path-13"></path>
        <path d="M30.4604651,121.377261 C21.7674419,120.550388 14.7302326,117.656331 9.555814,112.901809 C3.13953488,107.113695 0.03488372,98.8449612 0.03488372,88.5090439 C0.03488372,77.1395349 4.79534884,68.250646 14.3162791,62.0490956 C23.8372093,55.8475452 37.4976744,52.5400517 55.5046512,52.126615 L77.6511628,51.5064599 L77.6511628,43.6511628 C77.6511628,32.4883721 75.3744186,24.2196382 70.8209302,18.6382429 C66.2674419,13.0568475 59.0232558,10.1627907 49.0883721,10.1627907 C38.3255814,10.1627907 27.1488372,13.2635659 15.5581395,19.0516796 L11.6255814,9.749354 C24.4581395,3.75452196 37.0837209,0.86046512 49.7093023,0.86046512 C62.5418605,0.86046512 72.0627907,4.16795866 78.4790698,10.7829457 C84.8953488,17.3979328 88,27.7338501 88,41.7906977 L88,119.310078 L79.7209302,119.310078 L77.0302326,100.912145 L76.2023256,100.912145 C70.4069767,108.354005 64.4046512,113.728682 58.1953488,116.829457 C53.4348837,119.103359 48.0534884,120.550388 42.0511628,121.170543 L30.4604651,121.377261 Z M77.0302326,71.5581395 C77.0302326,84.1679587 73.5116279,94.0904393 66.2674419,101.118863 C59.0232558,108.147287 49.2953488,111.868217 36.8767442,111.868217 C28.8046512,111.868217 22.3883721,109.801034 17.8348837,105.873385 C13.2813953,101.945736 11.2116279,96.1576227 11.2116279,88.9224806 C11.2116279,79.8268734 14.7302326,73.005168 21.7674419,68.6640827 C28.8046512,64.3229974 40.3953488,61.8423773 56.7465116,61.0155039 L77.2372093,60.1886305 L77.0302326,71.5581395 Z" id="path-15"></path>
        <path d="M47.3976744,121.377261 C33.7372093,120.136951 22.7674419,114.968992 14.4883721,105.873385 C4.96744186,95.3307494 0.413953488,80.6537468 0.413953488,62.0490956 C0.413953488,42.8242894 5.38139535,27.7338501 15.1093023,16.9844961 C24.8372093,6.23514212 38.2906977,0.86046512 55.4697674,0.86046512 C65.6116279,0.86046512 75.1325581,2.51421189 84.4465116,6.02842377 L81.5488372,15.5374677 C71.4069767,12.2299742 62.7139535,10.5762274 55.2627907,10.5762274 C40.9813953,10.5762274 30.0116279,14.9173127 22.7674419,23.8062016 C15.3162791,32.6950904 11.7976744,45.3049096 11.7976744,61.8423773 C11.7976744,77.5529716 15.5232558,89.749354 22.7674419,98.6382429 C30.2186047,107.527132 40.3604651,111.868217 53.6069767,111.868217 C64.1627907,111.868217 74.0976744,110.007752 83.2046512,106.286822 L83.2046512,116.209302 C77.4093023,119.103359 70.1651163,120.757106 61.6790698,121.377261 L47.3976744,121.377261 Z" id="path-17"></path>
        <path d="M47.3976744,121.377261 C33.7372093,120.136951 22.7674419,114.968992 14.4883721,105.873385 C4.96744186,95.3307494 0.413953488,80.6537468 0.413953488,62.0490956 C0.413953488,42.8242894 5.38139535,27.7338501 15.1093023,16.9844961 C24.8372093,6.23514212 38.2906977,0.86046512 55.4697674,0.86046512 C65.6116279,0.86046512 75.1325581,2.51421189 84.4465116,6.02842377 L81.5488372,15.5374677 C71.4069767,12.2299742 62.7139535,10.5762274 55.2627907,10.5762274 C40.9813953,10.5762274 30.0116279,14.9173127 22.7674419,23.8062016 C15.3162791,32.6950904 11.7976744,45.3049096 11.7976744,61.8423773 C11.7976744,77.5529716 15.5232558,89.749354 22.7674419,98.6382429 C30.2186047,107.527132 40.3604651,111.868217 53.6069767,111.868217 C64.1627907,111.868217 74.0976744,110.007752 83.2046512,106.286822 L83.2046512,116.209302 C77.4093023,119.103359 70.1651163,120.757106 61.6790698,121.377261 L47.3976744,121.377261 Z" id="path-19"></path>
        <polygon id="path-21" points="83.6186047 50.4728682 70.7860465 50.4728682 11.1767442 115.795866 10.555814 115.795866 11.3837209 83.9612403 11.3837209 0.24031008 0.827906977 0.24031008 0.827906977 167.062016 11.3837209 167.062016 11.3837209 125.511628 30.4255814 108.147287 74.7186047 167.062016 87.5511628 167.062016 37.6697674 100.29199"></polygon>
        <polygon id="path-23" points="83.6186047 50.4728682 70.7860465 50.4728682 11.1767442 115.795866 10.555814 115.795866 11.3837209 83.9612403 11.3837209 0.24031008 0.827906977 0.24031008 0.827906977 167.062016 11.3837209 167.062016 11.3837209 125.511628 30.4255814 108.147287 74.7186047 167.062016 87.5511628 167.062016 37.6697674 100.29199"></polygon>
    </defs>
    <g id="Page-1" stroke="none" stroke-width="1" fill="none" fill-rule="evenodd">
        <g id="mailback-copy" transform="translate(0.000000, -0.912803)">
            <rect id="Rectangle-path" fill="#003444" fill-rule="nonzero" x="0.593023731" y="0.913436693" width="1655.81395" height="797"></rect>
            <g id="Group" transform="translate(307.918605, 299.174419)">
                <polygon id="Fill-13-Copy" stroke="#FFD2D8" stroke-width="5.86832041" fill="#FFD2D8" fill-rule="nonzero" stroke-linejoin="round" points="541.27907 63.496124 552.04186 63.496124 552.04186 179.878553 541.27907 179.878553"></polygon>
                <polygon id="Fill-16-Copy" stroke="#FFD2D8" stroke-width="5.86832041" fill="#FFD2D8" fill-rule="nonzero" stroke-linejoin="round" points="582.467442 13.6770026 593.230233 13.6770026 593.230233 180.29199 582.467442 180.29199"></polygon>
                <path d="M364.934884,60.8087855 C356.862791,60.8087855 349.411628,62.6692506 342.995349,66.1834625 C336.57907,69.6976744 331.404651,74.8656331 327.67907,81.4806202 L327.265116,81.4806202 C322.090698,67.630491 310.293023,60.8087855 291.872093,60.8087855 C284.627907,60.8087855 278.211628,62.4625323 272.209302,65.5633075 C266.206977,68.6640827 261.653488,73.2118863 258.548837,79 L257.927907,79 L255.651163,63.0826873 L246.751163,63.0826873 L246.751163,179.465116 L257.306977,179.465116 L257.306977,115.175711 C257.306977,99.465116 260.204651,88.0956072 265.586047,81.0671835 C271.174419,74.0387597 280.074419,70.3178295 292.286047,70.3178295 C310.293023,70.3178295 319.4,80.0335917 319.4,99.671835 L319.4,179.258398 L330.162791,179.258398 L330.162791,111.041344 C330.162791,96.9844961 333.060465,86.6485788 338.648837,80.0335917 C344.444186,73.4186047 353.137209,70.1111111 365.14186,70.1111111 C374.248837,70.1111111 381.07907,72.7984496 385.632558,77.9664083 C389.97907,83.1343669 392.255814,91.4031008 392.255814,102.77261 L392.255814,179.05168 L402.811628,179.05168 L402.811628,102.979328 C402.811628,88.3023256 399.706977,77.3462532 393.290698,70.7312661 C387.288372,64.1162791 377.767442,60.8087855 364.934884,60.8087855" id="Fill-1" stroke="#FFD2D8" stroke-width="5.86832041" fill="#FFD2D8" fill-rule="nonzero" stroke-linejoin="round"></path>
                <g id="Fill-5_2_-Clipped" transform="translate(246.302326, 59.948320)">
                    <g>
                        <mask id="mask-2" fill="white">
                            <use xlink:href="#path-1"></use>
                        </mask>
                        <g id="path-1"></g>
                        <path d="M254.616279,71.5581395 C254.616279,84.1679587 251.097674,94.0904393 243.853488,101.118863 C236.609302,108.147287 226.881395,111.868217 214.462791,111.868217 C206.390698,111.868217 199.974419,109.801034 195.42093,105.873385 C190.867442,101.945736 188.797674,96.1576227 188.797674,88.9224806 C188.797674,79.8268734 192.316279,73.005168 199.353488,68.6640827 C206.390698,64.3229974 217.981395,61.8423773 234.332558,61.0155039 L254.823256,60.1886305 L254.616279,71.5581395 Z M232.883721,52.126615 C214.876744,52.5400517 201.216279,55.8475452 191.695349,62.0490956 C182.174419,68.250646 177.413953,77.1395349 177.413953,88.5090439 C177.413953,98.8449612 180.518605,106.906977 186.934884,112.901809 C193.351163,118.689922 202.251163,121.583979 213.634884,121.583979 C222.12093,121.583979 229.365116,119.930233 235.574419,116.829457 C241.783721,113.728682 247.786047,108.354005 253.581395,100.912145 L254.409302,100.912145 L257.1,119.310078 L264.965116,119.310078 L264.965116,41.7906977 C264.965116,27.7338501 261.860465,17.3979328 255.444186,10.7829457 C249.027907,4.16795866 239.506977,0.86046512 226.674419,0.86046512 C214.255814,0.86046512 201.423256,3.96124031 188.590698,9.749354 L192.523256,19.0516796 C204.113953,13.0568475 215.290698,10.1627907 226.053488,10.1627907 C235.988372,10.1627907 243.439535,13.0568475 247.786047,18.6382429 C252.339535,24.2196382 254.616279,32.6950904 254.616279,43.6511628 L254.616279,51.2997416 L232.883721,52.126615 Z" id="Fill-5_2_" stroke="#FFD2D8" stroke-width="5.86832041" fill="#FFD2D8" fill-rule="nonzero" stroke-linejoin="round" mask="url(#mask-2)"></path>
                    </g>
                </g>
                <path d="M501.953488,70.9379845 C495.537209,64.3229974 486.016279,61.0155039 473.183721,61.0155039 C460.765116,61.0155039 447.932558,64.1162791 435.1,69.9043928 L439.032558,79.2067183 C450.623256,73.2118863 461.8,70.3178295 472.562791,70.3178295 C482.497674,70.3178295 489.948837,73.2118863 494.295349,78.7932817 C498.848837,84.374677 501.125581,92.8501292 501.125581,103.806202 L501.125581,111.45478 L478.97907,112.074935 C460.972093,112.488372 447.311628,115.795866 437.790698,121.997416 C428.269767,128.198966 423.509302,137.087855 423.509302,148.457364 C423.509302,158.793282 426.613953,166.855297 433.030233,172.850129 C438.204651,177.604651 445.24186,180.498708 453.934884,181.325581 L465.525581,181.325581 C471.527907,180.705426 476.909302,179.258398 481.669767,176.984496 C487.87907,173.883721 493.881395,168.509044 499.676744,161.067183 L500.504651,161.067183 L503.195349,179.465116 L511.060465,179.465116 L511.060465,101.945736 C511.474419,87.8888889 508.162791,77.5529716 501.953488,70.9379845 Z M500.918605,131.50646 C500.918605,144.116279 497.4,154.03876 490.155814,161.067183 C482.911628,168.095607 473.183721,171.816537 460.765116,171.816537 C452.693023,171.816537 446.276744,169.749354 441.723256,165.821705 C437.169767,161.894057 435.1,156.105943 435.1,148.870801 C435.1,139.775194 438.618605,132.953488 445.655814,128.612403 C452.693023,124.271318 464.283721,121.790698 480.634884,120.963824 L501.125581,120.136951 L500.918605,131.50646 Z" id="Shape" stroke="#FFD2D8" stroke-width="5.86832041" fill="#FFD2D8" fill-rule="nonzero" stroke-linejoin="round"></path>
                <g id="Fill-9_2_-Clipped" transform="translate(423.302326, 59.948320)">
                    <g>
                        <mask id="mask-4" fill="white">
                            <use xlink:href="#path-3"></use>
                        </mask>
                        <g id="path-3"></g>
                        <path d="M127.911628,-36.9689922 C126.669767,-38.8294574 125.013953,-39.6563307 122.737209,-39.6563307 C118.183721,-39.6563307 115.906977,-36.1421189 115.906977,-29.3204134 C115.906977,-22.2919897 118.183721,-18.9844961 122.737209,-18.9844961 C125.013953,-18.9844961 126.669767,-19.8113695 127.911628,-21.6718346 C129.153488,-23.5322997 129.774419,-26.0129199 129.774419,-29.3204134 C129.981395,-32.627907 129.153488,-35.1085271 127.911628,-36.9689922" id="Fill-9_2_" stroke="#FFD2D8" stroke-width="5.86832041" fill="#FFD2D8" fill-rule="nonzero" stroke-linejoin="round" mask="url(#mask-4)"></path>
                    </g>
                </g>
                <path d="M551.213953,22.9793282 C549.972093,21.118863 548.316279,20.2919897 546.039535,20.2919897 C541.486047,20.2919897 539.209302,23.8062016 539.209302,30.627907 C539.209302,37.6563307 541.486047,40.9638243 546.039535,40.9638243 C548.316279,40.9638243 549.972093,40.1369509 551.213953,38.2764858 C552.455814,36.4160207 553.076744,33.9354005 553.076744,30.627907 C553.283721,27.3204134 552.455814,24.8397933 551.213953,22.9793282 Z" id="path-5_1_" stroke="#FFD2D8" stroke-width="5.86832041" fill="#FFD2D8" fill-rule="nonzero" stroke-linejoin="round"></path>
                <g id="Fill-10-Clipped" transform="translate(539.209302, 19.671835)">
                    <g>
                        <mask id="mask-6" fill="white">
                            <use xlink:href="#path-5"></use>
                        </mask>
                        <g id="path-5"></g>
                        <polygon id="Fill-10" stroke="#FFD2D8" stroke-width="5.86832041" fill="#FFD2D8" fill-rule="nonzero" stroke-linejoin="round" mask="url(#mask-6)" points="0.206976744 0.620155039 14.0744186 0.620155039 14.0744186 21.2919897 0.206976744 21.2919897"></polygon>
                    </g>
                </g>
                <g id="Fill-13_2_-Clipped" transform="translate(539.209302, 19.671835)">
                    <g>
                        <mask id="mask-8" fill="white">
                            <use xlink:href="#path-7"></use>
                        </mask>
                        <g id="path-7"></g>
                        <polygon id="Fill-13_2_" stroke="#FFD2D8" stroke-width="5.86832041" fill="#FFD2D8" fill-rule="nonzero" stroke-linejoin="round" mask="url(#mask-8)" points="1.65581395 43.2041344 12.2116279 43.2041344 12.2116279 159.793282 1.65581395 159.793282"></polygon>
                    </g>
                </g>
                <g id="Fill-16-Clipped" transform="translate(539.209302, 19.671835)">
                    <g>
                        <mask id="mask-10" fill="white">
                            <use xlink:href="#path-9"></use>
                        </mask>
                        <g id="path-9"></g>
                        <polygon id="Fill-16" stroke="#FFD2D8" stroke-width="5.86832041" fill="#FFD2D8" fill-rule="nonzero" stroke-linejoin="round" mask="url(#mask-10)" points="42.844186 -7.02842377 53.6069767 -7.02842377 53.6069767 159.793282 42.844186 159.793282"></polygon>
                    </g>
                </g>
                <g id="Fill-19_2_-Clipped" transform="translate(539.209302, 19.671835)">
                    <g>
                        <mask id="mask-12" fill="white">
                            <use xlink:href="#path-11"></use>
                        </mask>
                        <g id="path-11"></g>
                        <path d="M94.5883721,101.29199 C94.5883721,83.3074935 97.4860465,70.2842377 103.488372,62.4289406 C109.490698,54.5736434 119.218605,50.6459948 133.086047,50.6459948 C158.544186,50.6459948 171.376744,67.3901809 171.376744,101.085271 C171.376744,117.416021 168.065116,130.232558 161.648837,139.121447 C155.232558,148.010336 145.711628,152.351421 132.87907,152.351421 C119.839535,152.351421 110.111628,148.630491 103.902326,140.981912 C97.6930233,133.333333 94.5883721,120.723514 94.5883721,103.152455 L94.5883721,101.29199 Z M94.5883721,34.9354005 L94.5883721,-7.02842377 L84.0325581,-7.02842377 L84.0325581,159.586563 L90.655814,159.586563 L93.7604651,142.015504 L94.7953488,142.015504 C98.727907,148.217054 103.902326,153.178295 110.525581,156.485788 C117.148837,160 124.6,161.653747 132.87907,161.653747 C148.609302,161.653747 160.82093,156.485788 169.513953,145.943152 C178.206977,135.400517 182.553488,120.516796 182.553488,101.085271 C182.553488,81.4470284 178.413953,66.3565891 170.134884,56.2273902 C161.855814,45.8914729 149.644186,40.9302326 133.293023,40.9302326 C124.393023,40.9302326 116.94186,42.5839793 110.732558,45.8914729 C104.523256,49.1989664 99.1418605,54.3669251 94.5883721,61.3953488 L93.7604651,61.3953488 L94.1744186,52.2997416 C94.5883721,46.9250646 94.5883721,41.1369509 94.5883721,34.9354005 Z" id="Fill-19_2_" stroke="#FFD2D8" stroke-width="5.86832041" fill="#FFD2D8" fill-rule="nonzero" stroke-linejoin="round" mask="url(#mask-12)"></path>
                    </g>
                </g>
                <path d="M709.344186,76.1059432 C701.065116,65.7700258 688.853488,60.8087855 672.502326,60.8087855 C663.602326,60.8087855 656.151163,62.4625323 649.94186,65.7700258 C643.732558,69.0775194 638.351163,74.245478 633.797674,81.2739018 L632.969767,81.2739018 L633.383721,72.1782946 C633.590698,66.8036176 633.797674,61.0155039 633.797674,54.8139535 L633.797674,12.6434109 L623.24186,12.6434109 L623.24186,179.258398 L629.865116,179.258398 L632.969767,161.687339 L634.004651,161.687339 C637.937209,167.888889 643.111628,172.850129 649.734884,176.157623 C654.909302,178.844961 660.497674,180.498708 666.5,181.118863 L678.090698,181.118863 C690.923256,179.878553 701.272093,174.710594 708.723256,165.614987 C717.416279,155.072351 721.762791,140.18863 721.762791,120.757106 C721.762791,101.325581 717.623256,86.2351421 709.344186,76.1059432 Z M700.85814,158.793282 C694.44186,167.682171 684.92093,172.023256 672.088372,172.023256 C659.048837,172.023256 649.32093,168.302326 643.111628,160.653747 C636.902326,153.005168 633.797674,140.395349 633.797674,122.824289 L633.797674,120.963824 C633.797674,102.979328 636.695349,89.9560724 642.697674,82.1007752 C648.7,74.245478 658.427907,70.3178295 672.295349,70.3178295 C697.753488,70.3178295 710.586047,87.0620155 710.586047,120.757106 C710.586047,137.294574 707.274419,149.904393 700.85814,158.793282 Z" id="Shape" stroke="#FFD2D8" stroke-width="5.86832041" fill="#FFD2D8" fill-rule="nonzero" stroke-linejoin="round"></path>
                <g id="Fill-23_2_-Clipped" transform="translate(623.000000, 12.403101)">
                    <g>
                        <mask id="mask-14" fill="white">
                            <use xlink:href="#path-13"></use>
                        </mask>
                        <g id="path-13"></g>
                        <path d="M192.937209,119.103359 C192.937209,131.713178 189.418605,141.635659 182.174419,148.664083 C174.930233,155.692506 165.202326,159.413437 152.783721,159.413437 C144.711628,159.413437 138.295349,157.346253 133.74186,153.418605 C129.188372,149.490956 127.118605,143.702842 127.118605,136.4677 C127.118605,127.372093 130.637209,120.550388 137.674419,116.209302 C144.711628,111.868217 156.302326,109.387597 172.653488,108.560724 L193.144186,107.73385 L192.937209,119.103359 Z M171.204651,99.671835 C153.197674,100.085271 139.537209,103.392765 130.016279,109.594315 C120.495349,115.795866 115.734884,124.684755 115.734884,136.054264 C115.734884,146.390181 118.839535,154.452196 125.255814,160.447028 C131.672093,166.235142 140.572093,169.129199 151.955814,169.129199 C160.44186,169.129199 167.686047,167.475452 173.895349,164.374677 C180.104651,161.273902 186.106977,155.899225 191.902326,148.457364 L192.730233,148.457364 L195.42093,166.855297 L203.286047,166.855297 L203.286047,89.3359173 C203.286047,75.2790698 200.181395,64.9431525 193.765116,58.3281654 C187.348837,51.7131783 177.827907,48.4056848 164.995349,48.4056848 C152.369767,48.4056848 139.744186,51.5064599 126.911628,57.2945736 L130.844186,66.5968992 C142.434884,60.6020672 153.611628,57.7080103 164.374419,57.7080103 C174.309302,57.7080103 181.760465,60.6020672 186.106977,66.1834625 C190.660465,71.7648579 192.937209,80.2403101 192.937209,91.1963824 L192.937209,98.8449612 L171.204651,99.671835 Z" id="Fill-23_2_" stroke="#FFD2D8" stroke-width="5.86832041" fill="#FFD2D8" fill-rule="nonzero" stroke-linejoin="round" mask="url(#mask-14)"></path>
                    </g>
                </g>
                <path d="M816.972093,70.9379845 C810.555814,64.3229974 801.034884,61.0155039 788.202326,61.0155039 C775.576744,61.0155039 762.951163,64.1162791 750.118605,69.9043928 L754.051163,79.2067183 C765.64186,73.2118863 776.818605,70.3178295 787.581395,70.3178295 C797.516279,70.3178295 804.967442,73.2118863 809.313953,78.7932817 C813.867442,84.374677 816.144186,92.8501292 816.144186,103.806202 L816.144186,111.45478 L793.997674,112.074935 C775.990698,112.488372 762.330233,115.795866 752.809302,121.997416 C743.288372,128.198966 738.527907,137.087855 738.527907,148.457364 C738.527907,158.793282 741.632558,166.855297 748.048837,172.850129 C753.223256,177.604651 760.260465,180.498708 768.953488,181.325581 L780.544186,181.325581 C786.546512,180.705426 791.927907,179.258398 796.688372,176.984496 C802.897674,173.883721 808.9,168.509044 814.695349,161.067183 L815.523256,161.067183 L818.213953,179.465116 L826.07907,179.465116 L826.07907,101.945736 C826.493023,87.8888889 823.388372,77.5529716 816.972093,70.9379845 Z M815.937209,131.50646 C815.937209,144.116279 812.418605,154.03876 805.174419,161.067183 C797.930233,168.095607 788.202326,171.816537 775.783721,171.816537 C767.711628,171.816537 761.295349,169.749354 756.74186,165.821705 C752.188372,161.894057 750.118605,156.105943 750.118605,148.870801 C750.118605,139.775194 753.637209,132.953488 760.674419,128.612403 C767.711628,124.271318 779.302326,121.790698 795.653488,120.963824 L816.144186,120.136951 L815.937209,131.50646 Z" id="Shape" stroke="#FFD2D8" stroke-width="5.86832041" fill="#FFD2D8" fill-rule="nonzero" stroke-linejoin="round"></path>
                <g id="Fill-27_2_-Clipped" transform="translate(738.906977, 59.948320)">
                    <g>
                        <mask id="mask-16" fill="white">
                            <use xlink:href="#path-15"></use>
                        </mask>
                        <g id="path-15"></g>
                        <path d="M166.030233,10.369509 C173.481395,10.369509 182.174419,12.0232558 192.316279,15.3307494 L195.213953,5.82170543 C185.9,2.30749354 176.37907,0.65374677 166.237209,0.65374677 C149.265116,0.65374677 135.811628,6.02842377 125.876744,16.7777778 C116.148837,27.5271318 111.181395,42.6175711 111.181395,61.8423773 C111.181395,80.6537468 115.94186,95.3307494 125.255814,105.666667 C134.776744,116.209302 147.816279,121.377261 164.374419,121.377261 C176.37907,121.377261 186.313953,119.516796 193.765116,116.002584 L193.765116,106.080103 C184.65814,109.801034 174.930233,111.661499 164.167442,111.661499 C150.92093,111.661499 140.572093,107.320413 133.327907,98.4315245 C125.876744,89.5426357 122.35814,77.1395349 122.35814,61.6356589 C122.35814,45.0981912 126.083721,32.2816537 133.327907,23.5994832 C140.77907,14.7105943 151.748837,10.369509 166.030233,10.369509" id="Fill-27_2_" stroke="#FFD2D8" stroke-width="5.86832041" fill="#FFD2D8" fill-rule="nonzero" stroke-linejoin="round" mask="url(#mask-16)"></path>
                    </g>
                </g>
                <path d="M897.072093,181.325581 C883.411628,180.085271 872.44186,174.917313 864.162791,165.821705 C854.64186,155.27907 850.088372,140.602067 850.088372,121.997416 C850.088372,102.77261 855.055814,87.6821705 864.783721,76.9328165 C874.511628,66.1834625 887.965116,60.8087855 905.144186,60.8087855 C915.286047,60.8087855 924.806977,62.4625323 934.12093,65.9767442 L931.223256,75.4857881 C921.081395,72.1782946 912.388372,70.5245478 904.937209,70.5245478 C890.655814,70.5245478 879.686047,74.8656331 872.44186,83.754522 C864.990698,92.6434109 861.472093,105.25323 861.472093,121.790698 C861.472093,137.501292 865.197674,149.697674 872.44186,158.586563 C879.893023,167.475452 890.034884,171.816537 903.281395,171.816537 C913.837209,171.816537 923.772093,169.956072 932.87907,166.235142 L932.87907,176.157623 C927.083721,179.05168 919.839535,180.705426 911.353488,181.325581 L897.072093,181.325581 Z" id="path-11_1_" stroke="#FFD2D8" stroke-width="5.86832041" fill="#FFD2D8" fill-rule="nonzero" stroke-linejoin="round"></path>
                <g id="Fill-28-Clipped" transform="translate(849.674419, 59.948320)">
                    <g>
                        <mask id="mask-18" fill="white">
                            <use xlink:href="#path-17"></use>
                        </mask>
                        <g id="path-17"></g>
                        <polygon id="Fill-28" stroke="#FFD2D8" stroke-width="5.86832041" fill="#FFD2D8" fill-rule="nonzero" stroke-linejoin="round" mask="url(#mask-18)" points="0 0.44702842 84.8604651 0.44702842 84.8604651 121.377261 0 121.377261"></polygon>
                    </g>
                </g>
                <g id="Fill-31_2_-Clipped" transform="translate(849.674419, 59.948320)">
                    <g>
                        <mask id="mask-20" fill="white">
                            <use xlink:href="#path-19"></use>
                        </mask>
                        <g id="path-19"></g>
                        <polyline id="Fill-31_2_" stroke="#FFD2D8" stroke-width="5.86832041" fill="#FFD2D8" fill-rule="nonzero" stroke-linejoin="round" mask="url(#mask-20)" points="187.106977 2.92764858 174.274419 2.92764858 114.665116 68.250646 114.044186 68.250646 114.872093 36.4160207 114.872093 -47.3049096 104.316279 -47.3049096 104.316279 119.516796 114.872093 119.516796 114.872093 77.9664083 133.913953 60.6020672 178.206977 119.516796 191.039535 119.516796 141.15814 52.74677 187.106977 2.92764858"></polyline>
                    </g>
                </g>
                <polygon id="path-13_1_" stroke="#FFD2D8" stroke-width="5.86832041" fill="#FFD2D8" fill-rule="nonzero" stroke-linejoin="round" points="1036.7814 62.875969 1023.94884 62.875969 964.339535 128.198966 963.718605 128.198966 964.546512 96.3643411 964.546512 12.6434109 953.990698 12.6434109 953.990698 179.465116 964.546512 179.465116 964.546512 137.914729 983.588372 120.550388 1027.8814 179.465116 1040.71395 179.465116 990.832558 112.69509"></polygon>
                <g id="Fill-32-Clipped" transform="translate(953.162791, 12.403101)">
                    <g>
                        <mask id="mask-22" fill="white">
                            <use xlink:href="#path-21"></use>
                        </mask>
                        <g id="path-21"></g>
                        <polygon id="Fill-32" stroke="#FFD2D8" stroke-width="5.86832041" fill="#FFD2D8" fill-rule="nonzero" stroke-linejoin="round" mask="url(#mask-22)" points="0.827906977 0.24031008 87.5511628 0.24031008 87.5511628 167.062016 0.827906977 167.062016"></polygon>
                    </g>
                </g>
                <g id="Fill-35_2_-Clipped" transform="translate(953.162791, 12.403101)">
                    <g>
                        <mask id="mask-24" fill="white">
                            <use xlink:href="#path-23"></use>
                        </mask>
                        <g id="path-23"></g>
                        <path d="M-947.746512,99.258398 C-950.437209,99.258398 -952.713953,101.325581 -952.713953,104.01292 L-952.713953,166.855297 L-788.788372,166.855297 L-788.788372,50.4728682 L-933.672093,50.4728682 L-867.439535,-3.89405685 L-873.855814,-11.5426357 L-950.851163,51.7131783 C-952.093023,52.74677 -952.713953,53.9870801 -952.713953,55.6408269 C-952.713953,57.0878553 -952.093023,58.5348837 -950.851163,59.5684755 L-873.855814,122.824289 L-867.439535,115.175711 L-933.672093,60.8087855 L-798.930233,60.8087855 L-798.930233,157.346253 L-942.77907,157.346253 L-942.77907,104.426357 C-942.77907,101.5323 -945.055814,99.258398 -947.746512,99.258398" id="Fill-35_2_" stroke="#FFD2D8" stroke-width="5.86832041" fill="#FFD2D8" fill-rule="nonzero" mask="url(#mask-24)"></path>
                    </g>
                </g>
                <path d="M5.41627907,111.661499 C2.7255814,111.661499 0.44883721,113.728682 0.44883721,116.416021 L0.44883721,179.258398 L164.374419,179.258398 L164.374419,62.875969 L19.4906977,62.875969 L85.7232558,8.50904393 L79.3069767,0.86046512 L2.31162791,64.1162791 C1.06976744,65.1498708 0.44883721,66.3901809 0.44883721,68.0439276 C0.44883721,69.4909561 1.06976744,70.9379845 2.31162791,71.9715762 L79.3069767,135.22739 L85.7232558,127.578811 L19.4906977,73.2118863 L154.232558,73.2118863 L154.232558,169.749354 L10.3837209,169.749354 L10.3837209,116.829457 C10.3837209,113.935401 8.10697674,111.661499 5.41627907,111.661499 Z" id="path-15_1_" stroke="#FFD2D8" stroke-width="5.86832041" fill="#FFD2D8" fill-rule="nonzero" stroke-linejoin="round"></path>
            </g>
        </g>
    </g>
</svg>