<?xml version="1.0" encoding="UTF-8"?>
<svg width="2000px" height="2001px" viewBox="0 0 2000 2001" version="1.1" xmlns="http://www.w3.org/2000/svg" xmlns:xlink="http://www.w3.org/1999/xlink">
    <!-- Generator: Sketch 49.3 (51167) - http://www.bohemiancoding.com/sketch -->
    <title>mailback copy</title>
    <desc>Created with Sketch.</desc>
    <defs></defs>
    <g id="Page-1" stroke="none" stroke-width="1" fill="none" fill-rule="evenodd">
        <g id="mailback-copy" transform="translate(0.013873, 0.973805)" fill-rule="nonzero">
            <rect id="Rectangle-path" fill="#003444" x="0" y="0.0187231734" width="1999.34037" height="1999.34037"></rect>
            <g id="Group" transform="translate(627.009793, 543.249714)" fill="#FFD2D8">
                <g id="Fill-35_2_-Clipped">
                    <path d="M132.539039,277.450367 L743.22394,277.450367 L743.22394,812.831764 L0.529679339,812.831764 L0.529679339,524.771898 C0.529679339,505.899885 16.2262034,491.100305 35.1065681,491.100305 L35.1065681,503.950082 L35.1065681,491.100305 C54.1927384,491.100305 69.6834568,507.033616 69.6834568,526.58249 L69.6834568,745.488579 L673.164866,745.488579 L673.164866,348.414737 L132.539039,348.414737 L404.541931,571.967114 L359.968801,625.167301 L350.13428,617.077615 L13.3008965,340.004655 C5.08863461,333.161103 0.529679339,323.283367 0.529679339,312.932552 C0.529679339,301.944211 4.88254376,292.875744 13.3640385,285.808172 L359.968801,0.697803174 L404.541931,53.8979906 L132.539039,277.450367 Z" id="Fill-35_2_"></path>
                </g>
            </g>
        </g>
    </g>
</svg>