<?xml version="1.0" encoding="UTF-8"?>
<svg width="1000px" height="1000px" viewBox="0 0 1000 1000" version="1.1" xmlns="http://www.w3.org/2000/svg" xmlns:xlink="http://www.w3.org/1999/xlink">
    <!-- Generator: Sketch 54.1 (76490) - https://sketchapp.com -->
    <title>mm copy</title>
    <desc>Created with Sketch.</desc>
    <g id="Page-1" stroke="none" stroke-width="1" fill="none" fill-rule="evenodd">
        <g id="mm-copy" fill-rule="nonzero">
            <rect id="Rectangle" fill="#676B99" x="0" y="0" width="1000" height="1000"></rect>
            <g id="Group-Copy" transform="translate(221.800000, 286.000000)" fill="#FFFFFF">
                <path d="M116.648135,422.387224 C116.648135,425.487075 114.143937,428 111.054852,428 L5.79328287,428 C2.70419804,428 0.2,425.487075 0.2,422.387224 L0.2,37.0249774 C0.2,34.6018125 1.74967329,32.4522279 4.04317237,31.6940316 L99.0620855,0.282209081 C101.362681,-0.478333307 103.889686,0.333542886 105.322303,2.29349203 C182.568764,107.973622 273.538723,177.318529 379.787757,211.258543 C380.881668,211.60798 385.566341,213.210022 400.894106,217.986986 C416.221872,222.763951 291.802001,298.864954 279.737031,294.88692 C279.204502,294.711335 267.312168,294.158755 227.747277,271.329641 C188.675911,248.785294 151.622945,221.59427 116.648113,189.784009 L116.648135,422.387224 Z" id="Combined-Shape-Copy-2" opacity="0.9"></path>
                <path d="M556.2,189.284757 L556.2,422.320002 C556.2,425.456978 553.689462,428 550.592556,428 L445.116722,428 C442.019816,428 439.509278,425.456978 439.509278,422.320002 L439.509278,183.295328 C400.246714,174.590992 363.205869,161.003859 328.215448,142.471156 C324.584767,140.548162 324.141337,135.457681 327.383381,132.919181 C371.835743,98.1132576 412.901557,54.6353788 450.722314,2.32736632 C452.160413,0.338403404 454.697998,-0.485505385 457.008029,0.286506647 L552.342923,32.1474197 C554.644787,32.9167027 556.2,35.0968191 556.2,37.554319 L556.2,189.284757 Z" id="Combined-Shape" opacity="0.6"></path>
            </g>
        </g>
    </g>
</svg>