<?xml version="1.0" encoding="UTF-8"?>
<svg width="2476px" height="2476px" viewBox="0 0 2476 2476" version="1.1" xmlns="http://www.w3.org/2000/svg" xmlns:xlink="http://www.w3.org/1999/xlink">
    <!-- Generator: Sketch 54.1 (76490) - https://sketchapp.com -->
    <title>mm</title>
    <desc>Created with Sketch.</desc>
    <g id="Page-1" stroke="none" stroke-width="1" fill="none" fill-rule="evenodd">
        <g id="mm" fill-rule="nonzero">
            <rect id="Rectangle" fill="#676B99" x="0" y="0" width="2476" height="2476"></rect>
            <g id="Group-Copy" transform="translate(550.000000, 709.000000)" fill="#FFFFFF">
                <path d="M288.651044,1046.0992 C288.651044,1053.7764 282.454294,1060 274.810214,1060 L14.3357385,1060 C6.69165941,1060 0.494908976,1053.7764 0.494908976,1046.0992 L0.494908976,91.6973738 C0.494908976,85.6960777 4.32964509,80.3723401 10.0050115,78.4945643 L245.133576,0.698929033 C250.826504,-1.18465726 257.079691,0.826064157 260.624766,5.68014382 C451.7746,267.411306 676.883846,439.153365 939.80185,523.21041 C942.508781,524.075838 954.101214,528.043512 992.030458,539.874312 C1029.9597,551.705111 722.077147,740.179559 692.221837,730.327418 C690.904071,729.89256 661.475957,728.524018 563.570857,671.984625 C466.887009,616.150495 375.197783,548.808239 288.65099,470.025816 L288.651044,1046.0992 Z" id="Combined-Shape-Copy-2" opacity="0.9"></path>
                <path d="M1376.34186,468.78935 L1376.34186,1045.93272 C1376.34186,1053.70186 1370.12942,1060 1362.46599,1060 L1101.4613,1060 C1093.79787,1060 1087.58543,1053.70186 1087.58543,1045.93272 L1087.58543,453.955718 C990.428455,432.398251 898.769222,398.747876 812.183857,352.849124 C803.199572,348.08657 802.102286,335.479303 810.124869,329.192364 C920.124234,242.990778 1021.74343,135.311919 1115.33259,5.76403807 C1118.89123,0.838101887 1125.1706,-1.20241988 1130.88688,0.709572536 L1366.79735,79.6174413 C1372.49342,81.522675 1376.34186,86.9220286 1376.34186,93.0083602 L1376.34186,468.78935 Z" id="Combined-Shape" opacity="0.6"></path>
            </g>
        </g>
    </g>
</svg>