<?xml version="1.0" encoding="UTF-8" standalone="no"?>
<svg width="999px" height="999px" viewBox="0 0 999 999" version="1.1" xmlns="http://www.w3.org/2000/svg" xmlns:xlink="http://www.w3.org/1999/xlink" style="background: #31B884;">
    <!-- Generator: Sketch 43.2 (39069) - http://www.bohemiancoding.com/sketch -->
    <title>mm copy 3</title>
    <desc>Created with Sketch.</desc>
    <defs>
        <rect id="path-1" x="0.0773120823" y="0.879865005" width="479.719466" height="851.502052" rx="5"></rect>
        <filter x="-12.7%" y="-2.5%" width="117.1%" height="104.9%" filterUnits="objectBoundingBox" id="filter-2">
            <feMorphology radius="1" operator="dilate" in="SourceAlpha" result="shadowSpreadOuter1"></feMorphology>
            <feOffset dx="-40" dy="0" in="shadowSpreadOuter1" result="shadowOffsetOuter1"></feOffset>
            <feComposite in="shadowOffsetOuter1" in2="SourceAlpha" operator="out" result="shadowOffsetOuter1"></feComposite>
            <feColorMatrix values="0 0 0 0 0   0 0 0 0 0   0 0 0 0 0  0 0 0 0.1 0" type="matrix" in="shadowOffsetOuter1"></feColorMatrix>
        </filter>
    </defs>
    <g id="Page-1" stroke="none" stroke-width="1" fill="none" fill-rule="evenodd">
        <g id="mm-copy-3">
            <rect id="mm-2-copy" fill="#F2F2F2" x="78" y="74.125" width="479.43662" height="851" rx="5"></rect>
            <g id="Group-2" transform="translate(138.000000, 135.000000)" fill="#000000">
                <path d="M25.0413077,22.4394861 C22.483658,23.4812791 21.2526218,26.3982996 22.2944148,28.9559493 C23.3342963,31.5155106 26.2532284,32.7446352 28.8108781,31.7047537 C31.3685278,30.6629607 32.599564,27.7459402 31.5577709,25.1882905 C30.5178894,22.6287292 27.5989574,21.3996046 25.0413077,22.4394861" id="Fill-1" fill-opacity="0.6"></path>
                <path d="M53.708776,20.3014209 L50.8261634,13.2191398 L44.487474,15.7978165 C42.8855977,13.2975132 40.8096578,11.2196617 38.4221357,9.64645866 L41.0772743,3.34600018 L34.0313126,0.37545635 L31.376174,6.67591483 C28.5814925,6.06421983 25.6453565,6.02790044 22.7359822,6.62812615 L20.1573054,0.289436741 L13.0731127,3.17013787 L15.653701,9.50882728 C13.1514862,11.1126151 11.0736347,13.1866435 9.50043164,15.576077 L3.20188471,12.9209384 L0.231340881,19.9649886 L6.52988781,22.6220388 C5.91819281,25.4148088 5.88378497,28.3528563 6.48209914,31.2622306 L0.143409726,33.8409074 L3.02411085,40.9231885 L9.36471181,38.3445118 C10.9665881,40.8448151 13.042528,42.9226665 15.43005,44.4958696 L12.7749114,50.7963281 L19.8208732,53.7668719 L22.4760118,47.4664134 C25.2706933,48.0781084 28.2068293,48.1144278 31.1162036,47.5142021 L33.6948803,53.8548031 L40.779073,50.9721904 L38.1984848,44.633501 C40.6987881,43.0316247 42.7785511,40.9556848 44.3517541,38.5662512 L50.6503011,41.2213898 L53.6208449,34.1773396 L47.3203864,31.5202895 C47.933993,28.7275195 47.9684008,25.789472 47.3700866,22.8820092 L53.708776,20.3014209 L53.708776,20.3014209 Z M39.1217619,32.2122694 C37.7970599,35.3433832 35.3101374,37.94691 31.9133187,39.33087 C28.5164999,40.7110068 24.9189687,40.5829332 21.7840318,39.2677889 C18.652918,37.9411754 16.0513028,35.4542529 14.6673428,32.0593457 C13.287206,28.6625269 13.4133681,25.0649957 14.7304239,21.9300588 C16.0551258,18.7989451 18.5420483,16.1954182 21.9388671,14.8114583 C25.3356859,13.4313215 28.9332171,13.5593951 32.068154,14.8764509 C35.1992677,16.2011529 37.800883,18.6880753 39.1848429,22.0829826 C40.5649798,25.4817129 40.4388177,29.0792441 39.1217619,32.2122694 L39.1217619,32.2122694 Z" id="Fill-2" fill-opacity="0.6"></path>
                <path d="M83.9888177,37.7874519 L79.6089349,22.3626472 L79.4770989,22.3626472 C79.6821781,24.9896135 79.7847161,27.0306087 79.7847161,28.4856941 L79.7847161,37.7874519 L74.657763,37.7874519 L74.657763,16.3714363 L82.3628411,16.3714363 L86.8306145,31.5765144 L86.947802,31.5765144 L91.3276849,16.3714363 L99.0474114,16.3714363 L99.0474114,37.7874519 L93.7300286,37.7874519 L93.7300286,28.3978035 C93.7300286,27.9095198 93.7373528,27.367533 93.7520013,26.7718269 C93.7666498,26.1761208 93.8325671,24.7161745 93.9497552,22.3919441 L93.8179192,22.3919441 L89.4966302,37.7874519 L83.9888177,37.7874519 Z M118.776513,37.7874519 L106.061669,37.7874519 L106.061669,16.3714363 L118.776513,16.3714363 L118.776513,21.014991 L111.847802,21.014991 L111.847802,24.3841316 L118.263818,24.3841316 L118.263818,29.0276863 L111.847802,29.0276863 L111.847802,33.0706551 L118.776513,33.0706551 L118.776513,37.7874519 Z M137.641357,37.7874519 L124.926513,37.7874519 L124.926513,16.3714363 L137.641357,16.3714363 L137.641357,21.014991 L130.712646,21.014991 L130.712646,24.3841316 L137.128661,24.3841316 L137.128661,29.0276863 L130.712646,29.0276863 L130.712646,33.0706551 L137.641357,33.0706551 L137.641357,37.7874519 Z M153.239599,37.7874519 L147.453466,37.7874519 L147.453466,21.1028816 L142.223974,21.1028816 L142.223974,16.3714363 L158.454443,16.3714363 L158.454443,21.1028816 L153.239599,21.1028816 L153.239599,37.7874519 Z M163.915966,37.7874519 L163.915966,16.3714363 L169.731396,16.3714363 L169.731396,37.7874519 L163.915966,37.7874519 Z M197.150927,37.7874519 L189.563037,37.7874519 L181.740771,22.6995613 L181.608935,22.6995613 C181.794483,25.07262 181.887255,26.8841254 181.887255,28.1341316 L181.887255,37.7874519 L176.760302,37.7874519 L176.760302,16.3714363 L184.318896,16.3714363 L192.111865,31.2542488 L192.199755,31.2542488 C192.063036,29.0960349 191.994677,27.3626538 191.994677,26.0540535 L191.994677,16.3714363 L197.150927,16.3714363 L197.150927,37.7874519 Z M212.778466,25.2483894 L222.02163,25.2483894 L222.02163,36.7913582 C219.511852,37.6507375 216.753091,38.0804207 213.745263,38.0804207 C210.444465,38.0804207 207.893221,37.123399 206.091455,35.2093269 C204.289688,33.2952549 203.388818,30.56579 203.388818,27.0208504 C203.388818,23.5638018 204.375136,20.8733991 206.347802,18.9495613 C208.320468,17.0257236 211.084113,16.0638191 214.638818,16.0638191 C215.986481,16.0638191 217.258441,16.190771 218.454736,16.4446785 C219.651031,16.698586 220.693501,17.0208484 221.582177,17.4114754 L219.751123,21.952491 C218.208146,21.1907684 216.513827,20.8099129 214.668115,20.8099129 C212.978653,20.8099129 211.672514,21.3592238 210.749658,22.4578621 C209.826802,23.5565004 209.36538,25.1263089 209.36538,27.1673347 C209.36538,29.1692979 209.782857,30.6951615 210.617822,31.7449715 C211.452787,32.7947814 212.656388,33.3196785 214.228662,33.3196785 C215.088041,33.3196785 215.879049,33.2366715 216.601709,33.0706551 L216.601709,29.7161629 L212.778466,29.7161629 L212.778466,25.2483894 Z M252.98374,31.2835457 C252.98374,32.6116773 252.646829,33.7908647 251.972998,34.8211433 C251.299166,35.8514219 250.327496,36.6521952 249.057959,37.2234871 C247.788421,37.794779 246.299178,38.0804207 244.590185,38.0804207 C243.164397,38.0804207 241.96812,37.980324 241.001318,37.7801277 C240.034516,37.5799314 239.028667,37.2308138 237.98374,36.7327644 L237.98374,31.5765144 C239.087261,32.1429235 240.23471,32.5848136 241.426123,32.902198 C242.617535,33.2195824 243.711274,33.3782722 244.707373,33.3782722 C245.566752,33.3782722 246.196628,33.229348 246.597021,32.9314949 C246.997414,32.6336418 247.197607,32.2503449 247.197607,31.7815926 C247.197607,31.4886223 247.117041,31.2322772 246.955908,31.0125496 C246.794774,30.7928219 246.535988,30.5706562 246.179541,30.3460457 C245.823094,30.1214352 244.873396,29.6624554 243.33042,28.9690926 C241.933928,28.3343238 240.886575,27.7190955 240.18833,27.1233894 C239.490084,26.5276833 238.972511,25.8440964 238.635595,25.0726082 C238.29868,24.3011199 238.130224,23.3880431 238.130224,22.3333504 C238.130224,20.3606843 238.84799,18.8226137 240.283545,17.7190926 C241.719099,16.6155714 243.691735,16.0638191 246.201513,16.0638191 C248.418321,16.0638191 250.679041,16.5765093 252.98374,17.6019051 L251.211279,22.0696785 C249.209316,21.1517052 247.480817,20.6927254 246.025732,20.6927254 C245.273775,20.6927254 244.726906,20.82456 244.385107,21.0882332 C244.043308,21.3519064 243.872412,21.6790515 243.872412,22.0696785 C243.872412,22.4896025 244.089695,22.8655753 244.524267,23.1976082 C244.95884,23.5296411 246.138027,24.1351038 248.061865,25.0140144 C249.907577,25.8440967 251.189303,26.7352011 251.90708,27.6873543 C252.624857,28.6395075 252.98374,29.838226 252.98374,31.2835457 Z M271.40913,37.7874519 L258.694287,37.7874519 L258.694287,16.3714363 L271.40913,16.3714363 L271.40913,21.014991 L264.48042,21.014991 L264.48042,24.3841316 L270.896435,24.3841316 L270.896435,29.0276863 L264.48042,29.0276863 L264.48042,33.0706551 L271.40913,33.0706551 L271.40913,37.7874519 Z M287.007373,37.7874519 L281.22124,37.7874519 L281.22124,21.1028816 L275.991748,21.1028816 L275.991748,16.3714363 L292.222216,16.3714363 L292.222216,21.1028816 L287.007373,21.1028816 L287.007373,37.7874519 Z M315.891748,16.3714363 L315.891748,29.2620613 C315.891748,32.0648097 315.098299,34.2351981 313.511377,35.7732918 C311.924455,37.3113854 309.63688,38.0804207 306.648584,38.0804207 C303.728647,38.0804207 301.485017,37.3333578 299.917627,35.8392097 C298.350236,34.3450616 297.566552,32.1966456 297.566552,29.3938972 L297.566552,16.3714363 L303.381982,16.3714363 L303.381982,28.9397957 C303.381982,30.4534751 303.665182,31.552097 304.231592,32.2356941 C304.798001,32.9192913 305.632953,33.2610847 306.736474,33.2610847 C307.918121,33.2610847 308.775046,32.9217327 309.307275,32.2430183 C309.839504,31.564304 310.105615,30.4534753 310.105615,28.9104988 L310.105615,16.3714363 L315.891748,16.3714363 Z M338.33081,23.1829597 C338.33081,25.5755498 337.625251,27.4236759 336.214111,28.7273933 C334.802971,30.0311108 332.798597,30.6829597 330.200927,30.6829597 L328.574951,30.6829597 L328.574951,37.7874519 L322.788818,37.7874519 L322.788818,16.3714363 L330.200927,16.3714363 C332.906019,16.3714363 334.937249,16.9622507 336.294677,18.1438972 C337.652106,19.3255438 338.33081,21.0052145 338.33081,23.1829597 Z M328.574951,25.9661629 L329.629638,25.9661629 C330.498783,25.9661629 331.189694,25.7220247 331.702392,25.233741 C332.21509,24.7454573 332.471435,24.0716359 332.471435,23.2122566 C332.471435,21.7669369 331.670662,21.0442879 330.069092,21.0442879 L328.574951,21.0442879 L328.574951,25.9661629 Z" id="MEETING-SETUP" opacity="0.6"></path>
            </g>
            <rect id="Rectangle-90" fill="#777CAF" x="137.929577" y="800.771127" width="359.577465" height="64.4242958" rx="7.5"></rect>
            <path d="M227.64847,828.281129 C227.361131,828.519411 227.217463,828.862811 227.217463,829.31134 C227.217463,829.759869 227.350618,830.12079 227.616933,830.394112 C227.883247,830.667435 228.230151,830.87768 228.657656,831.024854 C229.08516,831.172027 229.561715,831.312191 230.087336,831.445348 C230.612956,831.578505 231.135064,831.739693 231.653676,831.928916 C232.172288,832.118139 232.645339,832.352913 233.072844,832.633244 C233.500348,832.913574 233.847253,833.309536 234.113567,833.821139 C234.379881,834.332743 234.513036,834.945958 234.513036,835.660801 C234.513036,836.908273 234.004944,837.977019 232.988745,838.867069 C231.972546,839.757119 230.633986,840.202138 228.973026,840.202138 C227.312066,840.202138 225.973507,839.802672 224.957307,839.003729 C223.941108,838.204787 223.433016,837.069464 223.433016,835.597727 L227.259513,835.597727 C227.357629,836.775117 227.960331,837.363802 229.067637,837.363802 C229.586249,837.363802 229.992723,837.227143 230.28707,836.953821 C230.581418,836.680498 230.728589,836.333594 230.728589,835.913098 C230.728589,835.492602 230.595434,835.149201 230.32912,834.882887 C230.062806,834.616573 229.715901,834.406328 229.288397,834.252146 C228.860892,834.097964 228.384337,833.954297 227.858717,833.821139 C227.333097,833.687982 226.810988,833.52329 226.292376,833.327059 C225.773764,833.130827 225.300713,832.896054 224.873209,832.622731 C224.445704,832.349409 224.0988,831.956951 223.832486,831.445348 C223.566171,830.933744 223.433016,830.327538 223.433016,829.626711 C223.433016,828.25309 223.944612,827.152808 224.96782,826.325832 C225.991027,825.498856 227.29805,825.085374 228.888927,825.085374 C230.479805,825.085374 231.765803,825.446295 232.746961,826.168147 C233.728119,826.889998 234.239715,828.028825 234.281765,829.584661 L230.371169,829.584661 C230.315103,829.052033 230.143403,828.642055 229.856064,828.354716 C229.568725,828.067377 229.200796,827.923709 228.752267,827.923709 C228.303738,827.923709 227.935809,828.042848 227.64847,828.281129 Z M238.024162,828.028833 L238.024162,825.295621 L249.671849,825.295621 L249.671849,828.028833 L245.635106,828.028833 L245.635106,840.054965 L242.039881,840.054965 L242.039881,828.028833 L238.024162,828.028833 Z M262.875365,840.054965 L262.055401,837.574049 L256.757175,837.574049 L255.937212,840.054965 L252.110715,840.054965 L257.240743,825.253572 L261.613882,825.253572 L266.722886,840.054965 L262.875365,840.054965 Z M257.661237,834.840838 L261.151339,834.840838 L259.406288,829.584661 L257.661237,834.840838 Z M273.766162,834.31522 L273.766162,840.054965 L270.170937,840.054965 L270.170937,825.295621 L275.994781,825.295621 C277.704799,825.295621 279.03635,825.737136 279.989475,826.620178 C280.9426,827.50322 281.419155,828.568461 281.419155,829.815933 C281.419155,830.670942 281.159853,831.504914 280.641241,832.317873 C280.122629,833.130832 279.274641,833.705502 278.097252,834.041899 L281.713501,840.054965 L277.50856,840.054965 L274.186656,834.31522 L273.766162,834.31522 Z M273.766162,828.028833 L273.766162,831.582008 L275.994781,831.582008 C276.541426,831.582008 276.972428,831.420821 277.2878,831.09844 C277.603173,830.77606 277.760856,830.352066 277.760856,829.826445 C277.760856,829.300825 277.599669,828.869823 277.277288,828.533426 C276.954908,828.197029 276.52741,828.028833 275.994781,828.028833 L273.766162,828.028833 Z M284.888232,828.028833 L284.888232,825.295621 L296.535919,825.295621 L296.535919,828.028833 L292.499175,828.028833 L292.499175,840.054965 L288.90395,840.054965 L288.90395,828.028833 L284.888232,828.028833 Z M325.066445,825.295621 L325.066445,840.054965 L321.47122,840.054965 L321.47122,831.729181 L318.044193,840.054965 L315.374055,840.054965 L311.947028,831.729181 L311.947028,840.054965 L308.351803,840.054965 L308.351803,825.295621 L312.472646,825.295621 L316.719636,835.471579 L320.945602,825.295621 L325.066445,825.295621 Z M338.837627,825.253572 L338.837627,827.986784 L333.497352,827.986784 L333.497352,831.161514 L338.206886,831.161514 L338.206886,833.894726 L333.497352,833.894726 L333.497352,837.321753 L338.837627,837.321753 L338.837627,840.054965 L329.902127,840.054965 L329.902127,825.253572 L338.837627,825.253572 Z M352.545735,825.253572 L352.545735,827.986784 L347.20546,827.986784 L347.20546,831.161514 L351.914994,831.161514 L351.914994,833.894726 L347.20546,833.894726 L347.20546,837.321753 L352.545735,837.321753 L352.545735,840.054965 L343.610235,840.054965 L343.610235,825.253572 L352.545735,825.253572 Z M356.309158,828.028833 L356.309158,825.295621 L367.956845,825.295621 L367.956845,828.028833 L363.920101,828.028833 L363.920101,840.054965 L360.324876,840.054965 L360.324876,828.028833 L356.309158,828.028833 Z M371.783341,840.054965 L371.783341,825.295621 L375.378566,825.295621 L375.378566,840.054965 L371.783341,840.054965 Z M389.822539,825.253572 L393.417763,825.253572 L393.417763,840.054965 L389.822539,840.054965 L383.809473,830.74102 L383.809473,840.054965 L380.214248,840.054965 L380.214248,825.253572 L383.809473,825.253572 L389.822539,834.567517 L389.822539,825.253572 Z M397.391433,832.633244 C397.391433,830.446663 398.123786,828.642061 399.588515,827.219382 C401.053243,825.796703 402.843829,825.085374 404.960327,825.085374 C406.600262,825.085374 408.057961,825.51988 409.333466,826.388906 C410.608971,827.257931 411.499008,828.463336 412.003603,830.005155 L407.714563,830.005155 C407.153902,828.925882 406.256857,828.386253 405.023401,828.386253 C403.789945,828.386253 402.819315,828.771702 402.111479,829.542612 C401.403644,830.313522 401.049732,831.343722 401.049732,832.633244 C401.049732,833.922765 401.403644,834.952966 402.111479,835.723875 C402.819315,836.494785 403.768921,836.880234 404.960327,836.880234 C405.815336,836.880234 406.512648,836.666485 407.052285,836.238981 C407.591922,835.811476 407.952843,835.240311 408.135058,834.525467 L403.972166,834.525467 L403.972166,831.792255 L412.003603,831.792255 L412.003603,834.525467 C411.737289,835.871055 411.001432,837.125517 409.796009,838.288889 C409.221331,838.849551 408.510002,839.305082 407.662002,839.655495 C406.814001,840.005909 405.913452,840.181113 404.960327,840.181113 C402.843829,840.181113 401.053243,839.469784 399.588515,838.047105 C398.123786,836.624426 397.391433,834.819824 397.391433,832.633244 Z" id="START-MEETING" fill="#F2F2F2"></path>
            <rect id="Rectangle-90" fill="#E3E3E3" x="138.382652" y="587.919332" width="359.12439" height="79.4066901" rx="7.5"></rect>
            <path d="M135.816711,554.565383 C135.816711,552.381372 136.548204,550.57889 138.011211,549.157883 C139.474218,547.736876 141.2627,547.026383 143.376711,547.026383 C145.014719,547.026383 146.470705,547.460379 147.744711,548.328383 C149.018717,549.196388 149.907708,550.400376 150.411711,551.940383 L146.127711,551.940383 C145.567708,550.862378 144.671717,550.323383 143.439711,550.323383 C142.207705,550.323383 141.238215,550.708379 140.531211,551.478383 C139.824207,552.248387 139.470711,553.277377 139.470711,554.565383 C139.470711,555.85339 139.824207,556.882379 140.531211,557.652383 C141.238215,558.422387 142.186705,558.807383 143.376711,558.807383 C144.230715,558.807383 144.927208,558.593885 145.466211,558.166883 C146.005214,557.739881 146.36571,557.169387 146.547711,556.455383 L142.389711,556.455383 L142.389711,553.725383 L150.411711,553.725383 L150.411711,556.455383 C150.14571,557.79939 149.410717,559.052377 148.206711,560.214383 C147.632708,560.774386 146.922215,561.229382 146.075211,561.579383 C145.228207,561.929385 144.328716,562.104383 143.376711,562.104383 C141.2627,562.104383 139.474218,561.39389 138.011211,559.972883 C136.548204,558.551876 135.816711,556.749394 135.816711,554.565383 Z M160.680711,550.260383 L164.271711,550.260383 L164.271711,561.978383 L160.680711,561.978383 L160.680711,560.256383 C159.938707,561.488389 158.755719,562.104383 157.131711,562.104383 C155.787704,562.104383 154.699215,561.656388 153.866211,560.760383 C153.033207,559.864379 152.616711,558.646391 152.616711,557.106383 L152.616711,550.260383 L156.186711,550.260383 L156.186711,556.623383 C156.186711,557.379387 156.386209,557.963881 156.785211,558.376883 C157.184213,558.789885 157.733707,558.996383 158.433711,558.996383 C159.133714,558.996383 159.683209,558.789885 160.082211,558.376883 C160.481213,557.963881 160.680711,557.379387 160.680711,556.623383 L160.680711,550.260383 Z M169.206711,549.546383 C168.618708,549.546383 168.121713,549.343385 167.715711,548.937383 C167.309709,548.531381 167.106711,548.030886 167.106711,547.435883 C167.106711,546.84088 167.309709,546.340385 167.715711,545.934383 C168.121713,545.528381 168.618708,545.325383 169.206711,545.325383 C169.794714,545.325383 170.291709,545.528381 170.697711,545.934383 C171.103713,546.340385 171.306711,546.84088 171.306711,547.435883 C171.306711,548.030886 171.103713,548.531381 170.697711,548.937383 C170.291709,549.343385 169.794714,549.546383 169.206711,549.546383 Z M167.421711,561.978383 L167.421711,550.260383 L171.012711,550.260383 L171.012711,561.978383 L167.421711,561.978383 Z M182.079711,556.119383 C182.079711,555.195379 181.820714,554.484886 181.302711,553.987883 C180.784708,553.490881 180.189714,553.242383 179.517711,553.242383 C178.845708,553.242383 178.250714,553.494381 177.732711,553.998383 C177.214708,554.502386 176.955711,555.216379 176.955711,556.140383 C176.955711,557.064388 177.214708,557.774881 177.732711,558.271883 C178.250714,558.768886 178.845708,559.017383 179.517711,559.017383 C180.189714,559.017383 180.784708,558.765386 181.302711,558.261383 C181.820714,557.757381 182.079711,557.043388 182.079711,556.119383 Z M173.301711,556.140383 C173.301711,554.390375 173.819706,552.951889 174.855711,551.824883 C175.891716,550.697878 177.155204,550.134383 178.646211,550.134383 C180.137218,550.134383 181.281707,550.687378 182.079711,551.793383 L182.079711,546.438383 L185.670711,546.438383 L185.670711,561.978383 L182.079711,561.978383 L182.079711,560.277383 C181.211707,561.509389 180.049718,562.125383 178.593711,562.125383 C177.137704,562.125383 175.891716,561.565389 174.855711,560.445383 C173.819706,559.325378 173.301711,557.890392 173.301711,556.140383 Z M196.737711,556.119383 C196.737711,555.195379 196.478714,554.484886 195.960711,553.987883 C195.442708,553.490881 194.847714,553.242383 194.175711,553.242383 C193.503708,553.242383 192.908714,553.494381 192.390711,553.998383 C191.872708,554.502386 191.613711,555.216379 191.613711,556.140383 C191.613711,557.064388 191.872708,557.774881 192.390711,558.271883 C192.908714,558.768886 193.503708,559.017383 194.175711,559.017383 C194.847714,559.017383 195.442708,558.765386 195.960711,558.261383 C196.478714,557.757381 196.737711,557.043388 196.737711,556.119383 Z M187.959711,556.140383 C187.959711,554.390375 188.477706,552.951889 189.513711,551.824883 C190.549716,550.697878 191.813204,550.134383 193.304211,550.134383 C194.795218,550.134383 195.939707,550.687378 196.737711,551.793383 L196.737711,550.260383 L200.328711,550.260383 L200.328711,561.978383 L196.737711,561.978383 L196.737711,560.277383 C195.869707,561.509389 194.707718,562.125383 193.251711,562.125383 C191.795704,562.125383 190.549716,561.565389 189.513711,560.445383 C188.477706,559.325378 187.959711,557.890392 187.959711,556.140383 Z M207.069711,550.260383 L207.069711,551.982383 C207.811715,550.750377 208.994703,550.134383 210.618711,550.134383 C211.962718,550.134383 213.051207,550.582379 213.884211,551.478383 C214.717215,552.374388 215.133711,553.592376 215.133711,555.132383 L215.133711,561.978383 L211.563711,561.978383 L211.563711,555.615383 C211.563711,554.859379 211.364213,554.274885 210.965211,553.861883 C210.566209,553.448881 210.016714,553.242383 209.316711,553.242383 C208.616707,553.242383 208.067213,553.448881 207.668211,553.861883 C207.269209,554.274885 207.069711,554.859379 207.069711,555.615383 L207.069711,561.978383 L203.478711,561.978383 L203.478711,550.260383 L207.069711,550.260383 Z M217.317711,556.119383 C217.317711,554.299374 217.860206,552.846889 218.945211,551.761883 C220.030216,550.676878 221.433702,550.134383 223.155711,550.134383 C224.583718,550.134383 225.794706,550.48788 226.788711,551.194883 C227.782716,551.901887 228.440709,552.913377 228.762711,554.229383 L224.877711,554.229383 C224.541709,553.52938 223.992215,553.179383 223.229211,553.179383 C222.466207,553.179383 221.899213,553.448881 221.528211,553.987883 C221.157209,554.526886 220.971711,555.237379 220.971711,556.119383 C220.971711,557.001388 221.157209,557.711881 221.528211,558.250883 C221.899213,558.789886 222.441707,559.059383 223.155711,559.059383 C223.603713,559.059383 223.95371,558.982384 224.205711,558.828383 C224.457712,558.674382 224.68171,558.401385 224.877711,558.009383 L228.762711,558.009383 C228.440709,559.26939 227.775716,560.27038 226.767711,561.012383 C225.759706,561.754387 224.555718,562.125383 223.155711,562.125383 C221.433702,562.125383 220.030216,561.579389 218.945211,560.487383 C217.860206,559.395378 217.317711,557.939392 217.317711,556.119383 Z M235.755711,562.125383 C234.047702,562.125383 232.647716,561.575889 231.555711,560.476883 C230.463706,559.377878 229.917711,557.918392 229.917711,556.098383 C229.917711,554.278374 230.460206,552.829389 231.545211,551.751383 C232.630216,550.673378 234.033702,550.134383 235.755711,550.134383 C237.47772,550.134383 238.905705,550.666378 240.039711,551.730383 C241.173717,552.794389 241.740711,554.271374 241.740711,556.161383 C241.740711,556.567385 241.712711,556.945382 241.656711,557.295383 L233.592711,557.295383 C233.662711,557.813386 233.893709,558.236882 234.285711,558.565883 C234.677713,558.894885 235.101209,559.059383 235.556211,559.059383 C236.011213,559.059383 236.35071,559.013884 236.574711,558.922883 C236.798712,558.831883 236.96321,558.740884 237.068211,558.649883 C237.173211,558.558883 237.30971,558.408384 237.477711,558.198383 L241.362711,558.198383 C241.026709,559.374389 240.354716,560.32288 239.346711,561.043883 C238.338706,561.764887 237.141718,562.125383 235.755711,562.125383 Z M237.288711,553.714883 C236.868709,553.371882 236.371714,553.200383 235.797711,553.200383 C235.223708,553.200383 234.740713,553.371882 234.348711,553.714883 C233.956709,554.057885 233.711711,554.502381 233.613711,555.048383 L238.002711,555.048383 C237.946711,554.502381 237.708713,554.057885 237.288711,553.714883 Z M259.716711,561.978383 L258.897711,559.500383 L253.605711,559.500383 L252.786711,561.978383 L248.964711,561.978383 L254.088711,547.194383 L258.456711,547.194383 L263.559711,561.978383 L259.716711,561.978383 Z M254.508711,556.770383 L257.994711,556.770383 L256.251711,551.520383 L254.508711,556.770383 Z M273.282711,550.260383 L276.873711,550.260383 L276.873711,561.978383 L273.282711,561.978383 L273.282711,560.256383 C272.540707,561.488389 271.357719,562.104383 269.733711,562.104383 C268.389704,562.104383 267.301215,561.656388 266.468211,560.760383 C265.635207,559.864379 265.218711,558.646391 265.218711,557.106383 L265.218711,550.260383 L268.788711,550.260383 L268.788711,556.623383 C268.788711,557.379387 268.988209,557.963881 269.387211,558.376883 C269.786213,558.789885 270.335707,558.996383 271.035711,558.996383 C271.735714,558.996383 272.285209,558.789885 272.684211,558.376883 C273.083213,557.963881 273.282711,557.379387 273.282711,556.623383 L273.282711,550.260383 Z M287.940711,556.119383 C287.940711,555.195379 287.681714,554.484886 287.163711,553.987883 C286.645708,553.490881 286.050714,553.242383 285.378711,553.242383 C284.706708,553.242383 284.111714,553.494381 283.593711,553.998383 C283.075708,554.502386 282.816711,555.216379 282.816711,556.140383 C282.816711,557.064388 283.075708,557.774881 283.593711,558.271883 C284.111714,558.768886 284.706708,559.017383 285.378711,559.017383 C286.050714,559.017383 286.645708,558.765386 287.163711,558.261383 C287.681714,557.757381 287.940711,557.043388 287.940711,556.119383 Z M279.162711,556.140383 C279.162711,554.390375 279.680706,552.951889 280.716711,551.824883 C281.752716,550.697878 283.016204,550.134383 284.507211,550.134383 C285.998218,550.134383 287.142707,550.687378 287.940711,551.793383 L287.940711,546.438383 L291.531711,546.438383 L291.531711,561.978383 L287.940711,561.978383 L287.940711,560.277383 C287.072707,561.509389 285.910718,562.125383 284.454711,562.125383 C282.998704,562.125383 281.752716,561.565389 280.716711,560.445383 C279.680706,559.325378 279.162711,557.890392 279.162711,556.140383 Z M296.466711,549.546383 C295.878708,549.546383 295.381713,549.343385 294.975711,548.937383 C294.569709,548.531381 294.366711,548.030886 294.366711,547.435883 C294.366711,546.84088 294.569709,546.340385 294.975711,545.934383 C295.381713,545.528381 295.878708,545.325383 296.466711,545.325383 C297.054714,545.325383 297.551709,545.528381 297.957711,545.934383 C298.363713,546.340385 298.566711,546.84088 298.566711,547.435883 C298.566711,548.030886 298.363713,548.531381 297.957711,548.937383 C297.551709,549.343385 297.054714,549.546383 296.466711,549.546383 Z M294.681711,561.978383 L294.681711,550.260383 L298.272711,550.260383 L298.272711,561.978383 L294.681711,561.978383 Z M309.171711,556.119383 C309.171711,555.167379 308.926713,554.442886 308.436711,553.945883 C307.946709,553.448881 307.365714,553.200383 306.693711,553.200383 C306.021708,553.200383 305.444213,553.448881 304.961211,553.945883 C304.478209,554.442886 304.236711,555.167379 304.236711,556.119383 C304.236711,557.071388 304.485208,557.799381 304.982211,558.303383 C305.479213,558.807386 306.063708,559.059383 306.735711,559.059383 C307.407714,559.059383 307.981709,558.807386 308.457711,558.303383 C308.933713,557.799381 309.171711,557.071388 309.171711,556.119383 Z M300.582711,556.098383 C300.582711,554.292374 301.170705,552.846889 302.346711,551.761883 C303.522717,550.676878 304.978702,550.134383 306.714711,550.134383 C308.45072,550.134383 309.903205,550.676878 311.072211,551.761883 C312.241217,552.846889 312.825711,554.292374 312.825711,556.098383 C312.825711,557.904392 312.244717,559.360378 311.082711,560.466383 C309.920705,561.572389 308.47172,562.125383 306.735711,562.125383 C304.999702,562.125383 303.540217,561.572389 302.357211,560.466383 C301.174205,559.360378 300.582711,557.904392 300.582711,556.098383 Z" id="Guidance-Audio" fill-opacity="0.6" fill="#000000"></path>
            <path d="M140.268711,400.13764 L141.864711,400.13764 C143.236718,400.13764 144.314707,399.717644 145.098711,398.87764 C145.882715,398.037635 146.274711,396.910647 146.274711,395.49664 C146.274711,394.082633 145.882715,392.955644 145.098711,392.11564 C144.314707,391.275635 143.236718,390.85564 141.864711,390.85564 L140.268711,390.85564 L140.268711,400.13764 Z M141.864711,388.12564 C144.216723,388.12564 146.148703,388.808133 147.660711,390.17314 C149.172719,391.538147 149.928711,393.309129 149.928711,395.48614 C149.928711,397.663151 149.172719,399.437633 147.660711,400.80964 C146.148703,402.181647 144.216723,402.86764 141.864711,402.86764 L136.677711,402.86764 L136.677711,388.12564 L141.864711,388.12564 Z M160.155711,391.14964 L163.746711,391.14964 L163.746711,402.86764 L160.155711,402.86764 L160.155711,401.14564 C159.413707,402.377646 158.230719,402.99364 156.606711,402.99364 C155.262704,402.99364 154.174215,402.545644 153.341211,401.64964 C152.508207,400.753635 152.091711,399.535647 152.091711,397.99564 L152.091711,391.14964 L155.661711,391.14964 L155.661711,397.51264 C155.661711,398.268643 155.861209,398.853138 156.260211,399.26614 C156.659213,399.679142 157.208707,399.88564 157.908711,399.88564 C158.608714,399.88564 159.158209,399.679142 159.557211,399.26614 C159.956213,398.853138 160.155711,398.268643 160.155711,397.51264 L160.155711,391.14964 Z M170.487711,391.14964 L170.487711,393.33364 C171.327715,391.793632 172.447704,391.02364 173.847711,391.02364 L173.847711,394.67764 L172.965711,394.67764 C172.139707,394.67764 171.520213,394.873638 171.107211,395.26564 C170.694209,395.657642 170.487711,396.343635 170.487711,397.32364 L170.487711,402.86764 L166.896711,402.86764 L166.896711,391.14964 L170.487711,391.14964 Z M183.717711,397.00864 C183.717711,396.084635 183.458714,395.374142 182.940711,394.87714 C182.422708,394.380137 181.827714,394.13164 181.155711,394.13164 C180.483708,394.13164 179.888714,394.383637 179.370711,394.88764 C178.852708,395.391642 178.593711,396.105635 178.593711,397.02964 C178.593711,397.953644 178.852708,398.664137 179.370711,399.16114 C179.888714,399.658142 180.483708,399.90664 181.155711,399.90664 C181.827714,399.90664 182.422708,399.654642 182.940711,399.15064 C183.458714,398.646637 183.717711,397.932644 183.717711,397.00864 Z M174.939711,397.02964 C174.939711,395.279631 175.457706,393.841145 176.493711,392.71414 C177.529716,391.587134 178.793204,391.02364 180.284211,391.02364 C181.775218,391.02364 182.919707,391.576634 183.717711,392.68264 L183.717711,391.14964 L187.308711,391.14964 L187.308711,402.86764 L183.717711,402.86764 L183.717711,401.16664 C182.849707,402.398646 181.687718,403.01464 180.231711,403.01464 C178.775704,403.01464 177.529716,402.454645 176.493711,401.33464 C175.457706,400.214634 174.939711,398.779648 174.939711,397.02964 Z M195.435711,399.82264 L196.716711,399.82264 L196.716711,402.86764 L194.889711,402.86764 C193.573704,402.86764 192.555215,402.577143 191.834211,401.99614 C191.113207,401.415137 190.752711,400.417647 190.752711,399.00364 L190.752711,394.13164 L189.660711,394.13164 L189.660711,391.14964 L190.752711,391.14964 L190.752711,388.29364 L194.343711,388.29364 L194.343711,391.14964 L196.695711,391.14964 L196.695711,394.13164 L194.343711,394.13164 L194.343711,399.00364 C194.343711,399.549642 194.707707,399.82264 195.435711,399.82264 Z M200.958711,390.43564 C200.370708,390.43564 199.873713,390.232642 199.467711,389.82664 C199.061709,389.420638 198.858711,388.920143 198.858711,388.32514 C198.858711,387.730137 199.061709,387.229642 199.467711,386.82364 C199.873713,386.417638 200.370708,386.21464 200.958711,386.21464 C201.546714,386.21464 202.043709,386.417638 202.449711,386.82364 C202.855713,387.229642 203.058711,387.730137 203.058711,388.32514 C203.058711,388.920143 202.855713,389.420638 202.449711,389.82664 C202.043709,390.232642 201.546714,390.43564 200.958711,390.43564 Z M199.173711,402.86764 L199.173711,391.14964 L202.764711,391.14964 L202.764711,402.86764 L199.173711,402.86764 Z M213.663711,397.00864 C213.663711,396.056635 213.418713,395.332142 212.928711,394.83514 C212.438709,394.338137 211.857714,394.08964 211.185711,394.08964 C210.513708,394.08964 209.936213,394.338137 209.453211,394.83514 C208.970209,395.332142 208.728711,396.056635 208.728711,397.00864 C208.728711,397.960644 208.977208,398.688637 209.474211,399.19264 C209.971213,399.696642 210.555708,399.94864 211.227711,399.94864 C211.899714,399.94864 212.473709,399.696642 212.949711,399.19264 C213.425713,398.688637 213.663711,397.960644 213.663711,397.00864 Z M205.074711,396.98764 C205.074711,395.181631 205.662705,393.736145 206.838711,392.65114 C208.014717,391.566134 209.470702,391.02364 211.206711,391.02364 C212.94272,391.02364 214.395205,391.566134 215.564211,392.65114 C216.733217,393.736145 217.317711,395.181631 217.317711,396.98764 C217.317711,398.793649 216.736717,400.249634 215.574711,401.35564 C214.412705,402.461645 212.96372,403.01464 211.227711,403.01464 C209.491702,403.01464 208.032217,402.461645 206.849211,401.35564 C205.666205,400.249634 205.074711,398.793649 205.074711,396.98764 Z M223.218711,391.14964 L223.218711,392.87164 C223.960715,391.639634 225.143703,391.02364 226.767711,391.02364 C228.111718,391.02364 229.200207,391.471635 230.033211,392.36764 C230.866215,393.263644 231.282711,394.481632 231.282711,396.02164 L231.282711,402.86764 L227.712711,402.86764 L227.712711,396.50464 C227.712711,395.748636 227.513213,395.164142 227.114211,394.75114 C226.715209,394.338138 226.165714,394.13164 225.465711,394.13164 C224.765707,394.13164 224.216213,394.338138 223.817211,394.75114 C223.418209,395.164142 223.218711,395.748636 223.218711,396.50464 L223.218711,402.86764 L219.627711,402.86764 L219.627711,391.14964 L223.218711,391.14964 Z" id="Duration" fill-opacity="0.6" fill="#000000"></path>
            <path d="M350.907704,393.43864 L347.757704,393.43864 L347.064704,396.65164 L349.542704,396.65164 L349.542704,399.88564 L346.371704,399.88564 L345.741704,402.86764 L342.381704,402.86764 L343.011704,399.88564 L339.525704,399.88564 L338.895704,402.86764 L335.535704,402.86764 L336.165704,399.88564 L333.015704,399.88564 L333.015704,396.65164 L336.858704,396.65164 L337.551704,393.43864 L334.380704,393.43864 L334.380704,390.20464 L338.244704,390.20464 L338.853704,387.32764 L342.213704,387.32764 L341.604704,390.20464 L345.090704,390.20464 L345.699704,387.32764 L349.059704,387.32764 L348.450704,390.20464 L350.907704,390.20464 L350.907704,393.43864 Z M343.704704,396.65164 L344.397704,393.43864 L340.911704,393.43864 L340.218704,396.65164 L343.704704,396.65164 Z M367.833704,397.00864 C367.833704,396.056635 367.588707,395.332142 367.098704,394.83514 C366.608702,394.338137 366.027708,394.08964 365.355704,394.08964 C364.683701,394.08964 364.106207,394.338137 363.623204,394.83514 C363.140202,395.332142 362.898704,396.056635 362.898704,397.00864 C362.898704,397.960644 363.147202,398.688637 363.644204,399.19264 C364.141207,399.696642 364.725701,399.94864 365.397704,399.94864 C366.069708,399.94864 366.643702,399.696642 367.119704,399.19264 C367.595707,398.688637 367.833704,397.960644 367.833704,397.00864 Z M359.244704,396.98764 C359.244704,395.181631 359.832698,393.736145 361.008704,392.65114 C362.18471,391.566134 363.640696,391.02364 365.376704,391.02364 C367.112713,391.02364 368.565198,391.566134 369.734204,392.65114 C370.90321,393.736145 371.487704,395.181631 371.487704,396.98764 C371.487704,398.793649 370.90671,400.249634 369.744704,401.35564 C368.582698,402.461645 367.133713,403.01464 365.397704,403.01464 C363.661696,403.01464 362.20221,402.461645 361.019204,401.35564 C359.836198,400.249634 359.244704,398.793649 359.244704,396.98764 Z M378.921704,391.14964 L378.921704,394.13164 L377.430704,394.13164 L377.430704,402.86764 L373.839704,402.86764 L373.839704,394.13164 L372.747704,394.13164 L372.747704,391.14964 L373.839704,391.14964 L373.839704,390.70864 C373.839704,389.224632 374.2352,388.139643 375.026204,387.45364 C375.817208,386.767636 377.059696,386.42464 378.753704,386.42464 L378.753704,389.46964 C378.277702,389.46964 377.938205,389.560639 377.735204,389.74264 C377.532203,389.924641 377.430704,390.246637 377.430704,390.70864 L377.430704,391.14964 L378.921704,391.14964 Z M398.388704,392.64064 C398.388704,393.634645 398.031708,394.593635 397.317704,395.51764 C396.939702,395.993642 396.376208,396.382138 395.627204,396.68314 C394.8782,396.984141 393.992709,397.13464 392.970704,397.13464 L390.744704,397.13464 L390.744704,402.86764 L387.153704,402.86764 L387.153704,388.12564 L392.970704,388.12564 C394.678713,388.12564 396.008699,388.566635 396.960704,389.44864 C397.912709,390.330644 398.388704,391.394633 398.388704,392.64064 Z M390.744704,394.40464 L392.970704,394.40464 C393.516707,394.40464 393.947203,394.243641 394.262204,393.92164 C394.577206,393.599638 394.734704,393.176142 394.734704,392.65114 C394.734704,392.126137 394.573706,391.695641 394.251704,391.35964 C393.929703,391.023638 393.502707,390.85564 392.970704,390.85564 L390.744704,390.85564 L390.744704,394.40464 Z M405.528704,403.01464 C403.820696,403.01464 402.42071,402.465145 401.328704,401.36614 C400.236699,400.267134 399.690704,398.807649 399.690704,396.98764 C399.690704,395.167631 400.233199,393.718645 401.318204,392.64064 C402.40321,391.562634 403.806696,391.02364 405.528704,391.02364 C407.250713,391.02364 408.678699,391.555634 409.812704,392.61964 C410.94671,393.683645 411.513704,395.16063 411.513704,397.05064 C411.513704,397.456642 411.485705,397.834638 411.429704,398.18464 L403.365704,398.18464 C403.435705,398.702642 403.666702,399.126138 404.058704,399.45514 C404.450706,399.784141 404.874202,399.94864 405.329204,399.94864 C405.784207,399.94864 406.123703,399.90314 406.347704,399.81214 C406.571705,399.721139 406.736204,399.63014 406.841204,399.53914 C406.946205,399.448139 407.082703,399.297641 407.250704,399.08764 L411.135704,399.08764 C410.799703,400.263646 410.127709,401.212136 409.119704,401.93314 C408.111699,402.654143 406.914711,403.01464 405.528704,403.01464 Z M407.061704,394.60414 C406.641702,394.261138 406.144707,394.08964 405.570704,394.08964 C404.996701,394.08964 404.513706,394.261138 404.121704,394.60414 C403.729702,394.947141 403.484705,395.391637 403.386704,395.93764 L407.775704,395.93764 C407.719704,395.391637 407.481706,394.947141 407.061704,394.60414 Z M421.572704,397.00864 C421.572704,396.056635 421.327707,395.332142 420.837704,394.83514 C420.347702,394.338137 419.766708,394.08964 419.094704,394.08964 C418.422701,394.08964 417.845207,394.338137 417.362204,394.83514 C416.879202,395.332142 416.637704,396.056635 416.637704,397.00864 C416.637704,397.960644 416.886202,398.688637 417.383204,399.19264 C417.880207,399.696642 418.464701,399.94864 419.136704,399.94864 C419.808708,399.94864 420.382702,399.696642 420.858704,399.19264 C421.334707,398.688637 421.572704,397.960644 421.572704,397.00864 Z M412.983704,396.98764 C412.983704,395.181631 413.571698,393.736145 414.747704,392.65114 C415.92371,391.566134 417.379696,391.02364 419.115704,391.02364 C420.851713,391.02364 422.304198,391.566134 423.473204,392.65114 C424.64221,393.736145 425.226704,395.181631 425.226704,396.98764 C425.226704,398.793649 424.64571,400.249634 423.483704,401.35564 C422.321698,402.461645 420.872713,403.01464 419.136704,403.01464 C417.400696,403.01464 415.94121,402.461645 414.758204,401.35564 C413.575198,400.249634 412.983704,398.793649 412.983704,396.98764 Z M436.251704,397.02964 C436.251704,396.105635 435.992707,395.391642 435.474704,394.88764 C434.956702,394.383637 434.361708,394.13164 433.689704,394.13164 C433.017701,394.13164 432.422707,394.380137 431.904704,394.87714 C431.386702,395.374142 431.127704,396.084635 431.127704,397.00864 C431.127704,397.932644 431.386702,398.646637 431.904704,399.15064 C432.422707,399.654642 433.017701,399.90664 433.689704,399.90664 C434.361708,399.90664 434.956702,399.658142 435.474704,399.16114 C435.992707,398.664137 436.251704,397.953644 436.251704,397.02964 Z M431.127704,392.68264 C431.925708,391.576634 433.070197,391.02364 434.561204,391.02364 C436.052212,391.02364 437.315699,391.587134 438.351704,392.71414 C439.387709,393.841145 439.905704,395.279631 439.905704,397.02964 C439.905704,398.779648 439.387709,400.214634 438.351704,401.33464 C437.315699,402.454645 436.062712,403.01464 434.592704,403.01464 C433.122697,403.01464 431.967708,402.398646 431.127704,401.16664 L431.127704,408.45364 L427.536704,408.45364 L427.536704,391.14964 L431.127704,391.14964 L431.127704,392.68264 Z M442.194704,402.86764 L442.194704,387.32764 L445.785704,387.32764 L445.785704,402.86764 L442.194704,402.86764 Z M453.912704,403.01464 C452.204696,403.01464 450.80471,402.465145 449.712704,401.36614 C448.620699,400.267134 448.074704,398.807649 448.074704,396.98764 C448.074704,395.167631 448.617199,393.718645 449.702204,392.64064 C450.78721,391.562634 452.190696,391.02364 453.912704,391.02364 C455.634713,391.02364 457.062699,391.555634 458.196704,392.61964 C459.33071,393.683645 459.897704,395.16063 459.897704,397.05064 C459.897704,397.456642 459.869705,397.834638 459.813704,398.18464 L451.749704,398.18464 C451.819705,398.702642 452.050702,399.126138 452.442704,399.45514 C452.834706,399.784141 453.258202,399.94864 453.713204,399.94864 C454.168207,399.94864 454.507703,399.90314 454.731704,399.81214 C454.955705,399.721139 455.120204,399.63014 455.225204,399.53914 C455.330205,399.448139 455.466703,399.297641 455.634704,399.08764 L459.519704,399.08764 C459.183703,400.263646 458.511709,401.212136 457.503704,401.93314 C456.495699,402.654143 455.298711,403.01464 453.912704,403.01464 Z M455.445704,394.60414 C455.025702,394.261138 454.528707,394.08964 453.954704,394.08964 C453.380701,394.08964 452.897706,394.261138 452.505704,394.60414 C452.113702,394.947141 451.868705,395.391637 451.770704,395.93764 L456.159704,395.93764 C456.103704,395.391637 455.865706,394.947141 455.445704,394.60414 Z" id="#-of-People" fill-opacity="0.6" fill="#000000"></path>
            <rect id="Rectangle-90" fill="#3ACB94" x="145.420775" y="595.410529" width="164.806338" height="64.4242958" rx="7.5"></rect>
            <path d="M222.789944,625.979924 C222.789944,624.691917 222.436447,623.662928 221.729444,622.892924 C221.02244,622.12292 220.07745,621.737924 218.894444,621.737924 C217.711438,621.737924 216.766447,622.12292 216.059444,622.892924 C215.35244,623.662928 214.998944,624.691917 214.998944,625.979924 C214.998944,627.26793 215.35244,628.29692 216.059444,629.066924 C216.766447,629.836928 217.711438,630.221924 218.894444,630.221924 C220.07745,630.221924 221.02244,629.836928 221.729444,629.066924 C222.436447,628.29692 222.789944,627.26793 222.789944,625.979924 Z M211.344944,625.979924 C211.344944,623.795913 212.076436,621.993431 213.539444,620.572424 C215.002451,619.151417 216.794433,618.440924 218.915444,618.440924 C221.036454,618.440924 222.821436,619.151417 224.270444,620.572424 C225.719451,621.993431 226.443944,623.795913 226.443944,625.979924 C226.443944,628.163935 225.715951,629.969917 224.259944,631.397924 C222.803936,632.825931 221.018954,633.539924 218.904944,633.539924 C216.790933,633.539924 215.002451,632.825931 213.539444,631.397924 C212.076436,629.969917 211.344944,628.163935 211.344944,625.979924 Z M239.850944,618.608924 L243.441944,618.608924 L243.441944,633.392924 L239.850944,633.392924 L233.844944,624.089924 L233.844944,633.392924 L230.253944,633.392924 L230.253944,618.608924 L233.844944,618.608924 L239.850944,627.911924 L239.850944,618.608924 Z" id="ON" fill="#666666" style="mix-blend-mode: multiply;"></path>
            <rect id="Rectangle-90" fill="#FFFFFF" x="137.929577" y="428.808589" width="164.806338" height="64.4242958" rx="7.5"></rect>
            <path d="M162.887662,466.790983 L162.887662,455.219983 L160.346662,455.219983 L160.346662,451.880983 L166.604662,451.880983 L166.604662,466.790983 L162.887662,466.790983 Z M180.065662,451.250983 L180.065662,456.794983 C180.807666,455.562977 181.990654,454.946983 183.614662,454.946983 C184.958669,454.946983 186.047158,455.394978 186.880162,456.290983 C187.713166,457.186987 188.129662,458.404975 188.129662,459.944983 L188.129662,466.790983 L184.559662,466.790983 L184.559662,460.427983 C184.559662,459.671979 184.360164,459.087485 183.961162,458.674483 C183.56216,458.261481 183.012665,458.054983 182.312662,458.054983 C181.612658,458.054983 181.063164,458.261481 180.664162,458.674483 C180.26516,459.087485 180.065662,459.671979 180.065662,460.427983 L180.065662,466.790983 L176.474662,466.790983 L176.474662,451.250983 L180.065662,451.250983 Z M194.765662,455.072983 L194.765662,457.256983 C195.605666,455.716975 196.725655,454.946983 198.125662,454.946983 L198.125662,458.600983 L197.243662,458.600983 C196.417658,458.600983 195.798164,458.796981 195.385162,459.188983 C194.97216,459.580985 194.765662,460.266978 194.765662,461.246983 L194.765662,466.790983 L191.174662,466.790983 L191.174662,455.072983 L194.765662,455.072983 Z" id="1-hr" fill-opacity="0.6" fill="#000000"></path>
            <path d="M405.413873,625.979924 C405.413873,624.691917 405.060377,623.662928 404.353373,622.892924 C403.64637,622.12292 402.701379,621.737924 401.518373,621.737924 C400.335367,621.737924 399.390377,622.12292 398.683373,622.892924 C397.97637,623.662928 397.622873,624.691917 397.622873,625.979924 C397.622873,627.26793 397.97637,628.29692 398.683373,629.066924 C399.390377,629.836928 400.335367,630.221924 401.518373,630.221924 C402.701379,630.221924 403.64637,629.836928 404.353373,629.066924 C405.060377,628.29692 405.413873,627.26793 405.413873,625.979924 Z M393.968873,625.979924 C393.968873,623.795913 394.700366,621.993431 396.163373,620.572424 C397.626381,619.151417 399.418363,618.440924 401.539373,618.440924 C403.660384,618.440924 405.445366,619.151417 406.894373,620.572424 C408.34338,621.993431 409.067873,623.795913 409.067873,625.979924 C409.067873,628.163935 408.339881,629.969917 406.883873,631.397924 C405.427866,632.825931 403.642884,633.539924 401.528873,633.539924 C399.414863,633.539924 397.626381,632.825931 396.163373,631.397924 C394.700366,629.969917 393.968873,628.163935 393.968873,625.979924 Z M412.877873,633.392924 L412.877873,618.650924 L422.474873,618.650924 L422.474873,621.380924 L416.468873,621.380924 L416.468873,624.551924 L420.962873,624.551924 L420.962873,627.281924 L416.468873,627.281924 L416.468873,633.392924 L412.877873,633.392924 Z M426.452873,633.392924 L426.452873,618.650924 L436.049873,618.650924 L436.049873,621.380924 L430.043873,621.380924 L430.043873,624.551924 L434.537873,624.551924 L434.537873,627.281924 L430.043873,627.281924 L430.043873,633.392924 L426.452873,633.392924 Z" id="OFF" fill="#666666" style="mix-blend-mode: multiply;"></path>
            <rect id="Rectangle-90" fill="#FFFFFF" x="332.700704" y="428.808589" width="164.806338" height="64.4242958" rx="7.5"></rect>
            <path d="M379.009627,454.232983 C378.043622,454.232983 377.511627,454.750978 377.413627,455.786983 L373.927627,455.786983 C373.927627,454.316976 374.400122,453.179487 375.345127,452.374483 C376.290131,451.569479 377.546619,451.166983 379.114627,451.166983 C380.682635,451.166983 381.900622,451.551979 382.768627,452.321983 C383.636631,453.091987 384.070627,454.071977 384.070627,455.261983 C384.070627,456.199988 383.843129,456.96298 383.388127,457.550983 C382.933124,458.138986 382.467629,458.530982 381.991627,458.726983 L381.991627,458.810983 C383.559635,459.412986 384.343627,460.623974 384.343627,462.443983 C384.343627,463.81599 383.885131,464.897479 382.968127,465.688483 C382.051122,466.479487 380.784135,466.874983 379.167127,466.874983 C377.550119,466.874983 376.230632,466.461987 375.208627,465.635983 C374.186622,464.809979 373.675627,463.577991 373.675627,461.939983 L377.161627,461.939983 C377.175627,462.555986 377.350625,463.042481 377.686627,463.399483 C378.022628,463.756485 378.488124,463.934983 379.083127,463.934983 C379.67813,463.934983 380.126125,463.773985 380.427127,463.451983 C380.728128,463.129981 380.878627,462.671486 380.878627,462.076483 C380.878627,461.48148 380.668629,461.036984 380.248627,460.742983 C379.828625,460.448981 379.142632,460.301983 378.190627,460.301983 L377.518627,460.301983 L377.518627,457.382983 L378.190627,457.382983 C379.786635,457.382983 380.584627,456.822989 380.584627,455.702983 C380.584627,455.254981 380.441128,454.897984 380.154127,454.631983 C379.867125,454.365982 379.485629,454.232983 379.009627,454.232983 Z" id="3" fill-opacity="0.6" fill="#000000"></path>
            <polygon id="Imported-Layers-Copy-2" fill="#F2F2F2" transform="translate(472.124833, 832.983275) rotate(-90.000000) translate(-472.124833, -832.983275) " points="479.426546 826.902456 472.124403 834.20219 464.82398 826.902456 462.390792 829.335127 472.121823 839.064094 481.858874 829.335127"></polygon>
            <rect id="mm-2-copy" fill="#000000" opacity="0.1" x="401.077312" y="73.879865" width="479.719466" height="851.502052" rx="5"></rect>
            <g id="Group-4" transform="translate(441.000000, 73.000000)">
                <path d="M391.850708,786.496946 C391.849209,787.597302 391.412964,788.565736 390.693384,789.289812 C389.969308,790.009391 389.000874,790.445636 387.900518,790.447135 C386.800161,790.445636 385.831728,790.009391 385.107651,789.289812 C384.389571,788.565736 383.953326,787.597302 383.951827,786.496946 L377.955334,786.496946 C377.956833,791.991233 382.406231,796.440631 387.900518,796.443629 C393.394805,796.440631 397.844203,791.991233 397.847201,786.496946 L391.850708,786.496946" id="Fill-2-Copy" fill="#F2F2F2"></path>
                <g id="mm-2-copy">
                    <use fill="black" fill-opacity="1" filter="url(#filter-2)" xlink:href="#path-1"></use>
                    <use fill="#3ACC94" fill-rule="evenodd" xlink:href="#path-1"></use>
                    <rect stroke="#3ACC94" stroke-width="1" x="-0.422687918" y="0.379865005" width="480.719466" height="852.502052" rx="5"></rect>
                </g>
                <path d="M86.0913136,353.350629 C90.955338,353.350629 95.1632959,354.214621 98.7153136,355.942629 C102.267331,357.670638 105.067303,360.134613 107.115314,363.334629 C109.163324,366.534645 110.667309,370.166609 111.627314,374.230629 C112.587318,378.29465 113.067314,382.886604 113.067314,388.006629 C113.067314,393.126655 112.587318,397.718609 111.627314,401.782629 C110.667309,405.84665 109.163324,409.478613 107.115314,412.678629 C105.067303,415.878645 102.267331,418.342621 98.7153136,420.070629 C95.1632959,421.798638 90.955338,422.662629 86.0913136,422.662629 C81.2272893,422.662629 77.0193314,421.798638 73.4673136,420.070629 C69.9152959,418.342621 67.1153239,415.878645 65.0673136,412.678629 C63.0193034,409.478613 61.5153184,405.84665 60.5553136,401.782629 C59.5953088,397.718609 59.1153136,393.126655 59.1153136,388.006629 C59.1153136,382.886604 59.5953088,378.29465 60.5553136,374.230629 C61.5153184,370.166609 63.0193034,366.534645 65.0673136,363.334629 C67.1153239,360.134613 69.9152959,357.670638 73.4673136,355.942629 C77.0193314,354.214621 81.2272893,353.350629 86.0913136,353.350629 Z M86.0913136,368.710629 C84.2353044,368.710629 82.6193205,369.078626 81.2433136,369.814629 C79.8673068,370.550633 78.8113173,371.462624 78.0753136,372.550629 C77.33931,373.638635 76.7473159,375.07862 76.2993136,376.870629 C75.8513114,378.662638 75.5633143,380.390621 75.4353136,382.054629 C75.307313,383.718638 75.2433136,385.702618 75.2433136,388.006629 C75.2433136,390.310641 75.307313,392.294621 75.4353136,393.958629 C75.5633143,395.622638 75.8513114,397.35062 76.2993136,399.142629 C76.7473159,400.934638 77.33931,402.374624 78.0753136,403.462629 C78.8113173,404.550635 79.8673068,405.462626 81.2433136,406.198629 C82.6193205,406.934633 84.2353044,407.302629 86.0913136,407.302629 C87.9473229,407.302629 89.5633068,406.934633 90.9393136,406.198629 C92.3153205,405.462626 93.37131,404.550635 94.1073136,403.462629 C94.8433173,402.374624 95.4353114,400.934638 95.8833136,399.142629 C96.3313159,397.35062 96.619313,395.622638 96.7473136,393.958629 C96.8753143,392.294621 96.9393136,390.310641 96.9393136,388.006629 C96.9393136,385.702618 96.8753143,383.718638 96.7473136,382.054629 C96.619313,380.390621 96.3313159,378.662638 95.8833136,376.870629 C95.4353114,375.07862 94.8433173,373.638635 94.1073136,372.550629 C93.37131,371.462624 92.3153205,370.550633 90.9393136,369.814629 C89.5633068,369.078626 87.9473229,368.710629 86.0913136,368.710629 Z M139.179314,382.054629 C137.451305,383.782638 135.323326,384.646629 132.795314,384.646629 C130.267301,384.646629 128.139322,383.782638 126.411314,382.054629 C124.683305,380.326621 123.819314,378.198642 123.819314,375.670629 C123.819314,373.142617 124.683305,371.014638 126.411314,369.286629 C128.139322,367.558621 130.267301,366.694629 132.795314,366.694629 C135.323326,366.694629 137.451305,367.558621 139.179314,369.286629 C140.907322,371.014638 141.771314,373.142617 141.771314,375.670629 C141.771314,378.198642 140.907322,380.326621 139.179314,382.054629 Z M139.179314,420.358629 C137.451305,422.086638 135.323326,422.950629 132.795314,422.950629 C130.267301,422.950629 128.139322,422.086638 126.411314,420.358629 C124.683305,418.630621 123.819314,416.502642 123.819314,413.974629 C123.819314,411.446617 124.683305,409.318638 126.411314,407.590629 C128.139322,405.862621 130.267301,404.998629 132.795314,404.998629 C135.323326,404.998629 137.451305,405.862621 139.179314,407.590629 C140.907322,409.318638 141.771314,411.446617 141.771314,413.974629 C141.771314,416.502642 140.907322,418.630621 139.179314,420.358629 Z M179.403314,353.350629 C184.267338,353.350629 188.475296,354.214621 192.027314,355.942629 C195.579331,357.670638 198.379303,360.134613 200.427314,363.334629 C202.475324,366.534645 203.979309,370.166609 204.939314,374.230629 C205.899318,378.29465 206.379314,382.886604 206.379314,388.006629 C206.379314,393.126655 205.899318,397.718609 204.939314,401.782629 C203.979309,405.84665 202.475324,409.478613 200.427314,412.678629 C198.379303,415.878645 195.579331,418.342621 192.027314,420.070629 C188.475296,421.798638 184.267338,422.662629 179.403314,422.662629 C174.539289,422.662629 170.331331,421.798638 166.779314,420.070629 C163.227296,418.342621 160.427324,415.878645 158.379314,412.678629 C156.331303,409.478613 154.827318,405.84665 153.867314,401.782629 C152.907309,397.718609 152.427314,393.126655 152.427314,388.006629 C152.427314,382.886604 152.907309,378.29465 153.867314,374.230629 C154.827318,370.166609 156.331303,366.534645 158.379314,363.334629 C160.427324,360.134613 163.227296,357.670638 166.779314,355.942629 C170.331331,354.214621 174.539289,353.350629 179.403314,353.350629 Z M179.403314,368.710629 C177.547304,368.710629 175.931321,369.078626 174.555314,369.814629 C173.179307,370.550633 172.123317,371.462624 171.387314,372.550629 C170.65131,373.638635 170.059316,375.07862 169.611314,376.870629 C169.163311,378.662638 168.875314,380.390621 168.747314,382.054629 C168.619313,383.718638 168.555314,385.702618 168.555314,388.006629 C168.555314,390.310641 168.619313,392.294621 168.747314,393.958629 C168.875314,395.622638 169.163311,397.35062 169.611314,399.142629 C170.059316,400.934638 170.65131,402.374624 171.387314,403.462629 C172.123317,404.550635 173.179307,405.462626 174.555314,406.198629 C175.931321,406.934633 177.547304,407.302629 179.403314,407.302629 C181.259323,407.302629 182.875307,406.934633 184.251314,406.198629 C185.627321,405.462626 186.68331,404.550635 187.419314,403.462629 C188.155317,402.374624 188.747311,400.934638 189.195314,399.142629 C189.643316,397.35062 189.931313,395.622638 190.059314,393.958629 C190.187314,392.294621 190.251314,390.310641 190.251314,388.006629 C190.251314,385.702618 190.187314,383.718638 190.059314,382.054629 C189.931313,380.390621 189.643316,378.662638 189.195314,376.870629 C188.747311,375.07862 188.155317,373.638635 187.419314,372.550629 C186.68331,371.462624 185.627321,370.550633 184.251314,369.814629 C182.875307,369.078626 181.259323,368.710629 179.403314,368.710629 Z M239.115314,365.542629 C234.699292,365.542629 232.267316,367.910606 231.819314,372.646629 L215.883314,372.646629 C215.883314,365.926596 218.043292,360.726648 222.363314,357.046629 C226.683335,353.366611 232.427278,351.526629 239.595314,351.526629 C246.763349,351.526629 252.331294,353.286612 256.299314,356.806629 C260.267333,360.326647 262.251314,364.806602 262.251314,370.246629 C262.251314,374.534651 261.211324,378.022616 259.131314,380.710629 C257.051303,383.398643 254.923325,385.190625 252.747314,386.086629 L252.747314,386.470629 C259.915349,389.222643 263.499314,394.758588 263.499314,403.078629 C263.499314,409.350661 261.403335,414.294611 257.211314,417.910629 C253.019293,421.526648 247.227351,423.334629 239.835314,423.334629 C232.443277,423.334629 226.411337,421.446648 221.739314,417.670629 C217.06729,413.894611 214.731314,408.262667 214.731314,400.774629 L230.667314,400.774629 C230.731314,403.590644 231.531306,405.814621 233.067314,407.446629 C234.603321,409.078638 236.7313,409.894629 239.451314,409.894629 C242.171327,409.894629 244.219307,409.158637 245.595314,407.686629 C246.971321,406.214622 247.659314,404.118643 247.659314,401.398629 C247.659314,398.678616 246.699323,396.646636 244.779314,395.302629 C242.859304,393.958623 239.723335,393.286629 235.371314,393.286629 L232.299314,393.286629 L232.299314,379.942629 L235.371314,379.942629 C242.66735,379.942629 246.315314,377.382655 246.315314,372.262629 C246.315314,370.214619 245.65932,368.582636 244.347314,367.366629 C243.035307,366.150623 241.291325,365.542629 239.115314,365.542629 Z M290.571314,382.054629 C288.843305,383.782638 286.715326,384.646629 284.187314,384.646629 C281.659301,384.646629 279.531322,383.782638 277.803314,382.054629 C276.075305,380.326621 275.211314,378.198642 275.211314,375.670629 C275.211314,373.142617 276.075305,371.014638 277.803314,369.286629 C279.531322,367.558621 281.659301,366.694629 284.187314,366.694629 C286.715326,366.694629 288.843305,367.558621 290.571314,369.286629 C292.299322,371.014638 293.163314,373.142617 293.163314,375.670629 C293.163314,378.198642 292.299322,380.326621 290.571314,382.054629 Z M290.571314,420.358629 C288.843305,422.086638 286.715326,422.950629 284.187314,422.950629 C281.659301,422.950629 279.531322,422.086638 277.803314,420.358629 C276.075305,418.630621 275.211314,416.502642 275.211314,413.974629 C275.211314,411.446617 276.075305,409.318638 277.803314,407.590629 C279.531322,405.862621 281.659301,404.998629 284.187314,404.998629 C286.715326,404.998629 288.843305,405.862621 290.571314,407.590629 C292.299322,409.318638 293.163314,411.446617 293.163314,413.974629 C293.163314,416.502642 292.299322,418.630621 290.571314,420.358629 Z M330.795314,353.350629 C335.659338,353.350629 339.867296,354.214621 343.419314,355.942629 C346.971331,357.670638 349.771303,360.134613 351.819314,363.334629 C353.867324,366.534645 355.371309,370.166609 356.331314,374.230629 C357.291318,378.29465 357.771314,382.886604 357.771314,388.006629 C357.771314,393.126655 357.291318,397.718609 356.331314,401.782629 C355.371309,405.84665 353.867324,409.478613 351.819314,412.678629 C349.771303,415.878645 346.971331,418.342621 343.419314,420.070629 C339.867296,421.798638 335.659338,422.662629 330.795314,422.662629 C325.931289,422.662629 321.723331,421.798638 318.171314,420.070629 C314.619296,418.342621 311.819324,415.878645 309.771314,412.678629 C307.723303,409.478613 306.219318,405.84665 305.259314,401.782629 C304.299309,397.718609 303.819314,393.126655 303.819314,388.006629 C303.819314,382.886604 304.299309,378.29465 305.259314,374.230629 C306.219318,370.166609 307.723303,366.534645 309.771314,363.334629 C311.819324,360.134613 314.619296,357.670638 318.171314,355.942629 C321.723331,354.214621 325.931289,353.350629 330.795314,353.350629 Z M330.795314,368.710629 C328.939304,368.710629 327.323321,369.078626 325.947314,369.814629 C324.571307,370.550633 323.515317,371.462624 322.779314,372.550629 C322.04331,373.638635 321.451316,375.07862 321.003314,376.870629 C320.555311,378.662638 320.267314,380.390621 320.139314,382.054629 C320.011313,383.718638 319.947314,385.702618 319.947314,388.006629 C319.947314,390.310641 320.011313,392.294621 320.139314,393.958629 C320.267314,395.622638 320.555311,397.35062 321.003314,399.142629 C321.451316,400.934638 322.04331,402.374624 322.779314,403.462629 C323.515317,404.550635 324.571307,405.462626 325.947314,406.198629 C327.323321,406.934633 328.939304,407.302629 330.795314,407.302629 C332.651323,407.302629 334.267307,406.934633 335.643314,406.198629 C337.019321,405.462626 338.07531,404.550635 338.811314,403.462629 C339.547317,402.374624 340.139311,400.934638 340.587314,399.142629 C341.035316,397.35062 341.323313,395.622638 341.451314,393.958629 C341.579314,392.294621 341.643314,390.310641 341.643314,388.006629 C341.643314,385.702618 341.579314,383.718638 341.451314,382.054629 C341.323313,380.390621 341.035316,378.662638 340.587314,376.870629 C340.139311,375.07862 339.547317,373.638635 338.811314,372.550629 C338.07531,371.462624 337.019321,370.550633 335.643314,369.814629 C334.267307,369.078626 332.651323,368.710629 330.795314,368.710629 Z M393.387314,353.350629 C398.251338,353.350629 402.459296,354.214621 406.011314,355.942629 C409.563331,357.670638 412.363303,360.134613 414.411314,363.334629 C416.459324,366.534645 417.963309,370.166609 418.923314,374.230629 C419.883318,378.29465 420.363314,382.886604 420.363314,388.006629 C420.363314,393.126655 419.883318,397.718609 418.923314,401.782629 C417.963309,405.84665 416.459324,409.478613 414.411314,412.678629 C412.363303,415.878645 409.563331,418.342621 406.011314,420.070629 C402.459296,421.798638 398.251338,422.662629 393.387314,422.662629 C388.523289,422.662629 384.315331,421.798638 380.763314,420.070629 C377.211296,418.342621 374.411324,415.878645 372.363314,412.678629 C370.315303,409.478613 368.811318,405.84665 367.851314,401.782629 C366.891309,397.718609 366.411314,393.126655 366.411314,388.006629 C366.411314,382.886604 366.891309,378.29465 367.851314,374.230629 C368.811318,370.166609 370.315303,366.534645 372.363314,363.334629 C374.411324,360.134613 377.211296,357.670638 380.763314,355.942629 C384.315331,354.214621 388.523289,353.350629 393.387314,353.350629 Z M393.387314,368.710629 C391.531304,368.710629 389.915321,369.078626 388.539314,369.814629 C387.163307,370.550633 386.107317,371.462624 385.371314,372.550629 C384.63531,373.638635 384.043316,375.07862 383.595314,376.870629 C383.147311,378.662638 382.859314,380.390621 382.731314,382.054629 C382.603313,383.718638 382.539314,385.702618 382.539314,388.006629 C382.539314,390.310641 382.603313,392.294621 382.731314,393.958629 C382.859314,395.622638 383.147311,397.35062 383.595314,399.142629 C384.043316,400.934638 384.63531,402.374624 385.371314,403.462629 C386.107317,404.550635 387.163307,405.462626 388.539314,406.198629 C389.915321,406.934633 391.531304,407.302629 393.387314,407.302629 C395.243323,407.302629 396.859307,406.934633 398.235314,406.198629 C399.611321,405.462626 400.66731,404.550635 401.403314,403.462629 C402.139317,402.374624 402.731311,400.934638 403.179314,399.142629 C403.627316,397.35062 403.915313,395.622638 404.043314,393.958629 C404.171314,392.294621 404.235314,390.310641 404.235314,388.006629 C404.235314,385.702618 404.171314,383.718638 404.043314,382.054629 C403.915313,380.390621 403.627316,378.662638 403.179314,376.870629 C402.731311,375.07862 402.139317,373.638635 401.403314,372.550629 C400.66731,371.462624 399.611321,370.550633 398.235314,369.814629 C396.859307,369.078626 395.243323,368.710629 393.387314,368.710629 Z" id="0:03:00-copy" fill="#666666" style="mix-blend-mode: multiply;"></path>
                <path d="M404.854103,768.682863 L404.854103,759.076481 C404.852604,751.661817 400.08839,745.378991 393.459267,743.074838 C393.193922,740.222007 390.823808,737.982316 387.900518,737.980817 C384.978726,737.982316 382.607113,740.222007 382.341768,743.074838 C375.714144,745.378991 370.948431,751.661817 370.946932,759.076481 L370.946932,768.682863 L359.812943,786.496946 L415.988092,786.496946 L404.854103,768.682863 L404.854103,768.682863 Z M376.943425,770.402357 L376.943425,759.076481 C376.944924,756.040756 378.165211,753.321346 380.153048,751.329011 C382.145383,749.341174 384.866292,748.120887 387.900518,748.119388 C390.936242,748.120887 393.657151,749.341174 395.647987,751.329011 C397.635825,753.321346 398.856111,756.040756 398.85761,759.076481 L398.85761,770.402357 L405.168919,780.500452 L370.632116,780.500452 L376.943425,770.402357 L376.943425,770.402357 Z" id="Fill-1-Copy" fill="#F2F2F2"></path>
                <path d="M65.9877684,749.531562 L65.9877684,783.438734 L78.5923974,783.438734 L96.4049808,794.572723 L96.4049808,738.399073 L78.5908983,749.531562 L65.9877684,749.531562 L65.9877684,749.531562 Z M90.4084875,749.216747 L90.4084875,783.75355 L80.3118919,777.442241 L71.9827626,777.442241 L71.9827626,755.528056 L80.3118919,755.528056 L90.4084875,749.216747 L90.4084875,749.216747 Z" id="Fill-1" fill="#666666" style="mix-blend-mode: multiply;"></path>
                <polyline id="Fill-2" fill="#666666" style="mix-blend-mode: multiply;" points="138.801688 753.765087 134.562167 749.525566 121.840606 762.245627 109.120545 749.525566 104.881024 753.765087 117.601086 766.485148 104.881024 779.206709 109.120545 783.44623 121.840606 770.726168 134.562167 783.44623 138.801688 779.206709 126.081626 766.485148 138.801688 753.765087"></polyline>
                <g id="Group" transform="translate(61.000000, 62.000000)"></g>
                <polygon id="Imported-Layers-Copy-3" stroke="#F2F2F2" stroke-width="6" transform="translate(246.550428, 767.123025) rotate(-180.000000) translate(-246.550428, -767.123025) " points="265.156797 744.445037 227.944058 767.123775 265.156797 789.801013"></polygon>
                <g id="Group-5" transform="translate(59.187045, 618.000000)">
                    <rect id="Rectangle-90" fill="#F2F2F2" x="0.567032534" y="0.188564857" width="360" height="64.5" rx="7.5"></rect>
                    <path d="M58.2840325,26.9285649 C57.997031,27.166566 57.8535325,27.5095626 57.8535325,27.9575649 C57.8535325,28.4055671 57.9865311,28.7660635 58.2525325,29.0390649 C58.5185338,29.3120662 58.8650303,29.5220641 59.2920325,29.6690649 C59.7190346,29.8160656 60.1950298,29.9560642 60.7200325,30.0890649 C61.2450351,30.2220655 61.7665299,30.3830639 62.2845325,30.5720649 C62.8025351,30.7610658 63.2750303,30.9955635 63.7020325,31.2755649 C64.1290346,31.5555663 64.4755311,31.9510623 64.7415325,32.4620649 C65.0075338,32.9730674 65.1405325,33.5855613 65.1405325,34.2995649 C65.1405325,35.5455711 64.6330375,36.6130604 63.6180325,37.5020649 C62.6030274,38.3910693 61.2660408,38.8355649 59.6070325,38.8355649 C57.9480242,38.8355649 56.6110375,38.4365688 55.5960325,37.6385649 C54.5810274,36.8405609 54.0735325,35.7065722 54.0735325,34.2365649 L57.8955325,34.2365649 C57.993533,35.4125707 58.5955269,36.0005649 59.7015325,36.0005649 C60.2195351,36.0005649 60.625531,35.8640662 60.9195325,35.5910649 C61.2135339,35.3180635 61.3605325,34.971567 61.3605325,34.5515649 C61.3605325,34.1315628 61.2275338,33.7885662 60.9615325,33.5225649 C60.6955311,33.2565635 60.3490346,33.0465656 59.9220325,32.8925649 C59.4950303,32.7385641 59.0190351,32.5950655 58.4940325,32.4620649 C57.9690298,32.3290642 57.4475351,32.1645658 56.9295325,31.9685649 C56.4115299,31.7725639 55.9390346,31.5380662 55.5120325,31.2650649 C55.0850303,30.9920635 54.7385338,30.6000674 54.4725325,30.0890649 C54.2065311,29.5780623 54.0735325,28.9725684 54.0735325,28.2725649 C54.0735325,26.900558 54.5845274,25.801569 55.6065325,24.9755649 C56.6285376,24.1495607 57.9340245,23.7365649 59.5230325,23.7365649 C61.1120404,23.7365649 62.3965276,24.0970613 63.3765325,24.8180649 C64.3565374,25.5390685 64.8675323,26.6765571 64.9095325,28.2305649 L61.0035325,28.2305649 C60.9475322,27.6985622 60.7760339,27.2890663 60.4890325,27.0020649 C60.202031,26.7150634 59.8345347,26.5715649 59.3865325,26.5715649 C58.9385302,26.5715649 58.5710339,26.6905637 58.2840325,26.9285649 Z M86.0145325,23.9465649 L89.8785325,23.9465649 L85.7625325,38.6885649 L81.6465325,38.6885649 L79.0635325,29.3435649 L76.5015325,38.6885649 L72.3855325,38.6885649 L68.2065325,23.9465649 L72.0495325,23.9465649 L74.6115325,34.5515649 L77.2365325,23.9465649 L81.3105325,23.9465649 L83.8305325,34.3835649 L86.0145325,23.9465649 Z M93.2805325,38.6885649 L93.2805325,23.9465649 L96.8715325,23.9465649 L96.8715325,38.6885649 L93.2805325,38.6885649 Z M112.936532,28.4615649 C112.936532,29.4555698 112.579536,30.4145602 111.865532,31.3385649 C111.487531,31.8145672 110.924036,32.2030634 110.175032,32.5040649 C109.426029,32.8050664 108.540538,32.9555649 107.518532,32.9555649 L105.292532,32.9555649 L105.292532,38.6885649 L101.701532,38.6885649 L101.701532,23.9465649 L107.518532,23.9465649 C109.226541,23.9465649 110.556528,24.3875604 111.508532,25.2695649 C112.460537,26.1515693 112.936532,27.2155586 112.936532,28.4615649 Z M105.292532,30.2255649 L107.518532,30.2255649 C108.064535,30.2255649 108.495031,30.0645665 108.810032,29.7425649 C109.125034,29.4205632 109.282532,28.9970675 109.282532,28.4720649 C109.282532,27.9470622 109.121534,27.5165665 108.799532,27.1805649 C108.477531,26.8445632 108.050535,26.6765649 107.518532,26.6765649 L105.292532,26.6765649 L105.292532,30.2255649 Z M125.704532,23.9045649 L125.704532,26.6345649 L120.370532,26.6345649 L120.370532,29.8055649 L125.074532,29.8055649 L125.074532,32.5355649 L120.370532,32.5355649 L120.370532,35.9585649 L125.704532,35.9585649 L125.704532,38.6885649 L116.779532,38.6885649 L116.779532,23.9045649 L125.704532,23.9045649 Z M137.443533,26.6765649 L137.443533,23.9465649 L149.077533,23.9465649 L149.077533,26.6765649 L145.045533,26.6765649 L145.045533,38.6885649 L141.454533,38.6885649 L141.454533,26.6765649 L137.443533,26.6765649 Z M163.483533,31.2755649 C163.483533,29.9875584 163.130036,28.9585687 162.423033,28.1885649 C161.716029,27.418561 160.771038,27.0335649 159.588033,27.0335649 C158.405027,27.0335649 157.460036,27.418561 156.753033,28.1885649 C156.046029,28.9585687 155.692533,29.9875584 155.692533,31.2755649 C155.692533,32.5635713 156.046029,33.592561 156.753033,34.3625649 C157.460036,35.1325687 158.405027,35.5175649 159.588033,35.5175649 C160.771038,35.5175649 161.716029,35.1325687 162.423033,34.3625649 C163.130036,33.592561 163.483533,32.5635713 163.483533,31.2755649 Z M152.038533,31.2755649 C152.038533,29.0915539 152.770025,27.289072 154.233033,25.8680649 C155.69604,24.4470578 157.488022,23.7365649 159.609033,23.7365649 C161.730043,23.7365649 163.515025,24.4470578 164.964033,25.8680649 C166.41304,27.289072 167.137533,29.0915539 167.137533,31.2755649 C167.137533,33.4595758 166.40954,35.2655577 164.953533,36.6935649 C163.497525,38.121572 161.712543,38.8355649 159.598533,38.8355649 C157.484522,38.8355649 155.69604,38.121572 154.233033,36.6935649 C152.770025,35.2655577 152.038533,33.4595758 152.038533,31.2755649 Z M188.032533,23.9045649 L188.032533,26.6345649 L182.698533,26.6345649 L182.698533,29.8055649 L187.402533,29.8055649 L187.402533,32.5355649 L182.698533,32.5355649 L182.698533,35.9585649 L188.032533,35.9585649 L188.032533,38.6885649 L179.107533,38.6885649 L179.107533,23.9045649 L188.032533,23.9045649 Z M202.396533,23.9045649 L205.987533,23.9045649 L205.987533,38.6885649 L202.396533,38.6885649 L196.390533,29.3855649 L196.390533,38.6885649 L192.799533,38.6885649 L192.799533,23.9045649 L196.390533,23.9045649 L202.396533,33.2075649 L202.396533,23.9045649 Z M214.408533,35.9585649 L216.004533,35.9585649 C217.376539,35.9585649 218.454529,35.5385691 219.238533,34.6985649 C220.022536,33.8585607 220.414533,32.7315719 220.414533,31.3175649 C220.414533,29.9035578 220.022536,28.7765691 219.238533,27.9365649 C218.454529,27.0965607 217.376539,26.6765649 216.004533,26.6765649 L214.408533,26.6765649 L214.408533,35.9585649 Z M216.004533,23.9465649 C218.356544,23.9465649 220.288525,24.629058 221.800533,25.9940649 C223.31254,27.3590717 224.068533,29.130054 224.068533,31.3070649 C224.068533,33.4840757 223.31254,35.258558 221.800533,36.6305649 C220.288525,38.0025717 218.356544,38.6885649 216.004533,38.6885649 L210.817533,38.6885649 L210.817533,23.9465649 L216.004533,23.9465649 Z M244.921533,23.9045649 L244.921533,26.6345649 L239.587533,26.6345649 L239.587533,29.8055649 L244.291533,29.8055649 L244.291533,32.5355649 L239.587533,32.5355649 L239.587533,35.9585649 L244.921533,35.9585649 L244.921533,38.6885649 L235.996533,38.6885649 L235.996533,23.9045649 L244.921533,23.9045649 Z M259.054533,38.6885649 L258.235533,36.2105649 L252.943533,36.2105649 L252.124533,38.6885649 L248.302533,38.6885649 L253.426533,23.9045649 L257.794533,23.9045649 L262.897533,38.6885649 L259.054533,38.6885649 Z M253.846533,33.4805649 L257.332533,33.4805649 L255.589533,28.2305649 L253.846533,33.4805649 Z M269.932533,32.9555649 L269.932533,38.6885649 L266.341533,38.6885649 L266.341533,23.9465649 L272.158533,23.9465649 C273.866541,23.9465649 275.196528,24.3875604 276.148533,25.2695649 C277.100537,26.1515693 277.576533,27.2155586 277.576533,28.4615649 C277.576533,29.3155691 277.317535,30.1485608 276.799533,30.9605649 C276.28153,31.7725689 275.434538,32.3465632 274.258533,32.6825649 L277.870533,38.6885649 L273.670533,38.6885649 L270.352533,32.9555649 L269.932533,32.9555649 Z M269.932533,26.6765649 L269.932533,30.2255649 L272.158533,30.2255649 C272.704535,30.2255649 273.135031,30.0645665 273.450033,29.7425649 C273.765034,29.4205632 273.922533,28.9970675 273.922533,28.4720649 C273.922533,27.9470622 273.761534,27.5165665 273.439533,27.1805649 C273.117531,26.8445632 272.690535,26.6765649 272.158533,26.6765649 L269.932533,26.6765649 Z M282.049533,23.9465649 L285.640533,23.9465649 L285.640533,35.9585649 L290.113533,35.9585649 L290.113533,38.6885649 L282.049533,38.6885649 L282.049533,23.9465649 Z M301.222533,38.6885649 L297.631533,38.6885649 L297.631533,33.9425649 L292.528533,23.9465649 L296.602533,23.9465649 L299.437533,30.6035649 L302.251533,23.9465649 L306.325533,23.9465649 L301.222533,33.9425649 L301.222533,38.6885649 Z" id="SWIPE-TO-END-EARLY" fill="#212830" opacity="0.85"></path>
                </g>
                <g id="Group-3" transform="translate(61.000000, 61.500000)" fill="#000000" opacity="0.6">
                    <polyline id="Fill-2" style="mix-blend-mode: multiply;" points="23.5364214 20.0934004 10.9497819 23.4304489 12.4863833 29.2275588 25.0730228 25.8905103 23.5364214 20.0934004"></polyline>
                    <polyline id="Fill-3" style="mix-blend-mode: multiply;" points="31.237418 20.0934004 29.6993174 25.8905103 42.2859569 29.2275588 43.8240574 23.4304489 31.237418 20.0934004"></polyline>
                    <path d="M27.3861701,37.3033362 C24.5738147,37.2988389 21.7869445,36.2389587 19.6401999,34.0952123 L15.4006791,38.3347331 C18.7032478,41.6388009 23.0582011,43.3028278 27.3861701,43.2998295 C31.7141392,43.3028278 36.0705916,41.6388009 39.3731603,38.3347331 L35.1336395,34.0952123 C32.9853958,36.2389587 30.2000246,37.2988389 27.3861701,37.3033362" id="Fill-5" style="mix-blend-mode: multiply;"></path>
                    <path d="M27.3861701,0.658765535 C12.481886,0.660264658 0.404948412,12.7387013 0.401950165,27.6429855 C0.404948412,42.5472696 12.481886,54.6257063 27.3861701,54.6272054 C42.2904543,54.6257063 54.3688909,42.5472696 54.3703901,27.6429855 C54.3688909,12.7387013 42.2904543,0.660264658 27.3861701,0.658765535 L27.3861701,0.658765535 Z M42.2274911,42.4828073 C38.4197178,46.2860832 33.1907757,48.629213 27.3861701,48.6307121 C21.5815646,48.629213 16.3541215,46.2860832 12.5463483,42.4828073 C8.74307238,38.6765332 6.39994261,33.447591 6.39844349,27.6429855 C6.39994261,21.8383799 8.74307238,16.6094378 12.5463483,12.8016645 C16.3541215,8.99988775 21.5815646,6.65675798 27.3861701,6.65525886 C33.1907757,6.65675798 38.4197178,8.99988775 42.2274911,12.8016645 C46.0292679,16.6094378 48.3723976,21.8383799 48.3738967,27.6429855 C48.3723976,33.447591 46.0292679,38.6765332 42.2274911,42.4828073 L42.2274911,42.4828073 Z" id="Fill-1" style="mix-blend-mode: multiply;"></path>
                    <path d="M79.8792885,34.9483916 L82.1592885,34.9483916 C84.1192983,34.9483916 85.6592829,34.3483976 86.7792885,33.1483916 C87.8992941,31.9483856 88.4592885,30.3384017 88.4592885,28.3183916 C88.4592885,26.2983815 87.8992941,24.6883976 86.7792885,23.4883916 C85.6592829,22.2883856 84.1192983,21.6883916 82.1592885,21.6883916 L79.8792885,21.6883916 L79.8792885,34.9483916 Z M82.1592885,17.7883916 C85.5193053,17.7883916 88.2792777,18.7633818 90.4392885,20.7133916 C92.5992993,22.6634013 93.6792885,25.193376 93.6792885,28.3033916 C93.6792885,31.4134071 92.5992993,33.9483818 90.4392885,35.9083916 C88.2792777,37.8684014 85.5193053,38.8483916 82.1592885,38.8483916 L74.7492885,38.8483916 L74.7492885,17.7883916 L82.1592885,17.7883916 Z M104.449289,30.6583916 L104.449289,38.8483916 L99.3192885,38.8483916 L99.3192885,17.7883916 L107.629289,17.7883916 C110.069301,17.7883916 111.969282,18.4183853 113.329289,19.6783916 C114.689295,20.9383979 115.369289,22.4583827 115.369289,24.2383916 C115.369289,25.4583977 114.999292,26.6483858 114.259289,27.8083916 C113.519285,28.9683974 112.309297,29.7883892 110.629289,30.2683916 L115.789289,38.8483916 L109.789289,38.8483916 L105.049289,30.6583916 L104.449289,30.6583916 Z M104.449289,21.6883916 L104.449289,26.7583916 L107.629289,26.7583916 C108.409292,26.7583916 109.024286,26.5283939 109.474289,26.0683916 C109.924291,25.6083893 110.149289,25.0033953 110.149289,24.2533916 C110.149289,23.5033878 109.919291,22.888394 109.459289,22.4083916 C108.999286,21.9283892 108.389292,21.6883916 107.629289,21.6883916 L104.449289,21.6883916 Z M136.879289,28.2583916 C136.879289,26.4183824 136.374294,24.9483971 135.364289,23.8483916 C134.354284,22.7483861 133.004297,22.1983916 131.314289,22.1983916 C129.62428,22.1983916 128.274294,22.7483861 127.264289,23.8483916 C126.254284,24.9483971 125.749289,26.4183824 125.749289,28.2583916 C125.749289,30.0984008 126.254284,31.5683861 127.264289,32.6683916 C128.274294,33.7683971 129.62428,34.3183916 131.314289,34.3183916 C133.004297,34.3183916 134.354284,33.7683971 135.364289,32.6683916 C136.374294,31.5683861 136.879289,30.0984008 136.879289,28.2583916 Z M120.529289,28.2583916 C120.529289,25.138376 121.574278,22.5634017 123.664289,20.5333916 C125.754299,18.5033814 128.314273,17.4883916 131.344289,17.4883916 C134.374304,17.4883916 136.924278,18.5033814 138.994289,20.5333916 C141.064299,22.5634017 142.099289,25.138376 142.099289,28.2583916 C142.099289,31.3784072 141.059299,33.9583814 138.979289,35.9983916 C136.899278,38.0384018 134.349304,39.0583916 131.329289,39.0583916 C128.309273,39.0583916 125.754299,38.0384018 123.664289,35.9983916 C121.574278,33.9583814 120.529289,31.3784072 120.529289,28.2583916 Z M163.849289,24.2383916 C163.849289,25.6583987 163.339294,27.028385 162.319289,28.3483916 C161.779286,29.028395 160.974294,29.5833894 159.904289,30.0133916 C158.834283,30.4433937 157.569296,30.6583916 156.109289,30.6583916 L152.929289,30.6583916 L152.929289,38.8483916 L147.799289,38.8483916 L147.799289,17.7883916 L156.109289,17.7883916 C158.549301,17.7883916 160.449282,18.4183853 161.809289,19.6783916 C163.169295,20.9383979 163.849289,22.4583827 163.849289,24.2383916 Z M152.929289,26.7583916 L156.109289,26.7583916 C156.889293,26.7583916 157.504286,26.5283939 157.954289,26.0683916 C158.404291,25.6083893 158.629289,25.0033953 158.629289,24.2533916 C158.629289,23.5033878 158.399291,22.888394 157.939289,22.4083916 C157.479286,21.9283892 156.869292,21.6883916 156.109289,21.6883916 L152.929289,21.6883916 L152.929289,26.7583916 Z M180.739289,38.8483916 L180.739289,17.7883916 L185.869289,17.7883916 L185.869289,38.8483916 L180.739289,38.8483916 Z M206.479289,17.7283916 L211.609289,17.7283916 L211.609289,38.8483916 L206.479289,38.8483916 L197.899289,25.5583916 L197.899289,38.8483916 L192.769289,38.8483916 L192.769289,17.7283916 L197.899289,17.7283916 L206.479289,31.0183916 L206.479289,17.7283916 Z" id="DROP-IN" style="mix-blend-mode: multiply;"></path>
                </g>
            </g>
        </g>
    </g>
</svg>