<?xml version="1.0" encoding="UTF-8"?>
<svg width="1000px" height="1000px" viewBox="0 0 1000 1000" version="1.1" xmlns="http://www.w3.org/2000/svg" xmlns:xlink="http://www.w3.org/1999/xlink">
    <!-- Generator: Sketch 51.2 (57519) - http://www.bohemiancoding.com/sketch -->
    <title>mm</title>
    <desc>Created with Sketch.</desc>
    <defs></defs>
    <g id="mm" stroke="none" stroke-width="1" fill="none" fill-rule="evenodd">
        <rect fill="#676B99" x="0" y="0" width="1000" height="1000"></rect>
        <g transform="translate(78.000000, 73.500000)">
            <rect id="mm-2-copy" fill="#F2F2F2" fill-rule="nonzero" x="0" y="1.125" width="479.43662" height="851" rx="5"></rect>
            <g id="Group-2" transform="translate(60.000000, 62.000000)" fill="#000000" fill-rule="nonzero">
                <path d="M25.0413077,22.4394861 C22.483658,23.4812791 21.2526218,26.3982996 22.2944148,28.9559493 C23.3342963,31.5155106 26.2532284,32.7446352 28.8108781,31.7047537 C31.3685278,30.6629607 32.599564,27.7459402 31.5577709,25.1882905 C30.5178894,22.6287292 27.5989574,21.3996046 25.0413077,22.4394861" id="Fill-1" fill-opacity="0.6"></path>
                <path d="M53.708776,20.3014209 L50.8261634,13.2191398 L44.487474,15.7978165 C42.8855977,13.2975132 40.8096578,11.2196617 38.4221357,9.64645866 L41.0772743,3.34600018 L34.0313126,0.37545635 L31.376174,6.67591483 C28.5814925,6.06421983 25.6453565,6.02790044 22.7359822,6.62812615 L20.1573054,0.289436741 L13.0731127,3.17013787 L15.653701,9.50882728 C13.1514862,11.1126151 11.0736347,13.1866435 9.50043164,15.576077 L3.20188471,12.9209384 L0.231340881,19.9649886 L6.52988781,22.6220388 C5.91819281,25.4148088 5.88378497,28.3528563 6.48209914,31.2622306 L0.143409726,33.8409074 L3.02411085,40.9231885 L9.36471181,38.3445118 C10.9665881,40.8448151 13.042528,42.9226665 15.43005,44.4958696 L12.7749114,50.7963281 L19.8208732,53.7668719 L22.4760118,47.4664134 C25.2706933,48.0781084 28.2068293,48.1144278 31.1162036,47.5142021 L33.6948803,53.8548031 L40.779073,50.9721904 L38.1984848,44.633501 C40.6987881,43.0316247 42.7785511,40.9556848 44.3517541,38.5662512 L50.6503011,41.2213898 L53.6208449,34.1773396 L47.3203864,31.5202895 C47.933993,28.7275195 47.9684008,25.789472 47.3700866,22.8820092 L53.708776,20.3014209 Z M39.1217619,32.2122694 C37.7970599,35.3433832 35.3101374,37.94691 31.9133187,39.33087 C28.5164999,40.7110068 24.9189687,40.5829332 21.7840318,39.2677889 C18.652918,37.9411754 16.0513028,35.4542529 14.6673428,32.0593457 C13.287206,28.6625269 13.4133681,25.0649957 14.7304239,21.9300588 C16.0551258,18.7989451 18.5420483,16.1954182 21.9388671,14.8114583 C25.3356859,13.4313215 28.9332171,13.5593951 32.068154,14.8764509 C35.1992677,16.2011529 37.800883,18.6880753 39.1848429,22.0829826 C40.5649798,25.4817129 40.4388177,29.0792441 39.1217619,32.2122694 Z" id="Fill-2" fill-opacity="0.6"></path>
                <path d="M83.9888177,37.7874519 L79.6089349,22.3626472 L79.4770989,22.3626472 C79.6821781,24.9896135 79.7847161,27.0306087 79.7847161,28.4856941 L79.7847161,37.7874519 L74.657763,37.7874519 L74.657763,16.3714363 L82.3628411,16.3714363 L86.8306145,31.5765144 L86.947802,31.5765144 L91.3276849,16.3714363 L99.0474114,16.3714363 L99.0474114,37.7874519 L93.7300286,37.7874519 L93.7300286,28.3978035 C93.7300286,27.9095198 93.7373528,27.367533 93.7520013,26.7718269 C93.7666498,26.1761208 93.8325671,24.7161745 93.9497552,22.3919441 L93.8179192,22.3919441 L89.4966302,37.7874519 L83.9888177,37.7874519 Z M118.776513,37.7874519 L106.061669,37.7874519 L106.061669,16.3714363 L118.776513,16.3714363 L118.776513,21.014991 L111.847802,21.014991 L111.847802,24.3841316 L118.263818,24.3841316 L118.263818,29.0276863 L111.847802,29.0276863 L111.847802,33.0706551 L118.776513,33.0706551 L118.776513,37.7874519 Z M137.641357,37.7874519 L124.926513,37.7874519 L124.926513,16.3714363 L137.641357,16.3714363 L137.641357,21.014991 L130.712646,21.014991 L130.712646,24.3841316 L137.128661,24.3841316 L137.128661,29.0276863 L130.712646,29.0276863 L130.712646,33.0706551 L137.641357,33.0706551 L137.641357,37.7874519 Z M153.239599,37.7874519 L147.453466,37.7874519 L147.453466,21.1028816 L142.223974,21.1028816 L142.223974,16.3714363 L158.454443,16.3714363 L158.454443,21.1028816 L153.239599,21.1028816 L153.239599,37.7874519 Z M163.915966,37.7874519 L163.915966,16.3714363 L169.731396,16.3714363 L169.731396,37.7874519 L163.915966,37.7874519 Z M197.150927,37.7874519 L189.563037,37.7874519 L181.740771,22.6995613 L181.608935,22.6995613 C181.794483,25.07262 181.887255,26.8841254 181.887255,28.1341316 L181.887255,37.7874519 L176.760302,37.7874519 L176.760302,16.3714363 L184.318896,16.3714363 L192.111865,31.2542488 L192.199755,31.2542488 C192.063036,29.0960349 191.994677,27.3626538 191.994677,26.0540535 L191.994677,16.3714363 L197.150927,16.3714363 L197.150927,37.7874519 Z M212.778466,25.2483894 L222.02163,25.2483894 L222.02163,36.7913582 C219.511852,37.6507375 216.753091,38.0804207 213.745263,38.0804207 C210.444465,38.0804207 207.893221,37.123399 206.091455,35.2093269 C204.289688,33.2952549 203.388818,30.56579 203.388818,27.0208504 C203.388818,23.5638018 204.375136,20.8733991 206.347802,18.9495613 C208.320468,17.0257236 211.084113,16.0638191 214.638818,16.0638191 C215.986481,16.0638191 217.258441,16.190771 218.454736,16.4446785 C219.651031,16.698586 220.693501,17.0208484 221.582177,17.4114754 L219.751123,21.952491 C218.208146,21.1907684 216.513827,20.8099129 214.668115,20.8099129 C212.978653,20.8099129 211.672514,21.3592238 210.749658,22.4578621 C209.826802,23.5565004 209.36538,25.1263089 209.36538,27.1673347 C209.36538,29.1692979 209.782857,30.6951615 210.617822,31.7449715 C211.452787,32.7947814 212.656388,33.3196785 214.228662,33.3196785 C215.088041,33.3196785 215.879049,33.2366715 216.601709,33.0706551 L216.601709,29.7161629 L212.778466,29.7161629 L212.778466,25.2483894 Z M252.98374,31.2835457 C252.98374,32.6116773 252.646829,33.7908647 251.972998,34.8211433 C251.299166,35.8514219 250.327496,36.6521952 249.057959,37.2234871 C247.788421,37.794779 246.299178,38.0804207 244.590185,38.0804207 C243.164397,38.0804207 241.96812,37.980324 241.001318,37.7801277 C240.034516,37.5799314 239.028667,37.2308138 237.98374,36.7327644 L237.98374,31.5765144 C239.087261,32.1429235 240.23471,32.5848136 241.426123,32.902198 C242.617535,33.2195824 243.711274,33.3782722 244.707373,33.3782722 C245.566752,33.3782722 246.196628,33.229348 246.597021,32.9314949 C246.997414,32.6336418 247.197607,32.2503449 247.197607,31.7815926 C247.197607,31.4886223 247.117041,31.2322772 246.955908,31.0125496 C246.794774,30.7928219 246.535988,30.5706562 246.179541,30.3460457 C245.823094,30.1214352 244.873396,29.6624554 243.33042,28.9690926 C241.933928,28.3343238 240.886575,27.7190955 240.18833,27.1233894 C239.490084,26.5276833 238.972511,25.8440964 238.635595,25.0726082 C238.29868,24.3011199 238.130224,23.3880431 238.130224,22.3333504 C238.130224,20.3606843 238.84799,18.8226137 240.283545,17.7190926 C241.719099,16.6155714 243.691735,16.0638191 246.201513,16.0638191 C248.418321,16.0638191 250.679041,16.5765093 252.98374,17.6019051 L251.211279,22.0696785 C249.209316,21.1517052 247.480817,20.6927254 246.025732,20.6927254 C245.273775,20.6927254 244.726906,20.82456 244.385107,21.0882332 C244.043308,21.3519064 243.872412,21.6790515 243.872412,22.0696785 C243.872412,22.4896025 244.089695,22.8655753 244.524267,23.1976082 C244.95884,23.5296411 246.138027,24.1351038 248.061865,25.0140144 C249.907577,25.8440967 251.189303,26.7352011 251.90708,27.6873543 C252.624857,28.6395075 252.98374,29.838226 252.98374,31.2835457 Z M271.40913,37.7874519 L258.694287,37.7874519 L258.694287,16.3714363 L271.40913,16.3714363 L271.40913,21.014991 L264.48042,21.014991 L264.48042,24.3841316 L270.896435,24.3841316 L270.896435,29.0276863 L264.48042,29.0276863 L264.48042,33.0706551 L271.40913,33.0706551 L271.40913,37.7874519 Z M287.007373,37.7874519 L281.22124,37.7874519 L281.22124,21.1028816 L275.991748,21.1028816 L275.991748,16.3714363 L292.222216,16.3714363 L292.222216,21.1028816 L287.007373,21.1028816 L287.007373,37.7874519 Z M315.891748,16.3714363 L315.891748,29.2620613 C315.891748,32.0648097 315.098299,34.2351981 313.511377,35.7732918 C311.924455,37.3113854 309.63688,38.0804207 306.648584,38.0804207 C303.728647,38.0804207 301.485017,37.3333578 299.917627,35.8392097 C298.350236,34.3450616 297.566552,32.1966456 297.566552,29.3938972 L297.566552,16.3714363 L303.381982,16.3714363 L303.381982,28.9397957 C303.381982,30.4534751 303.665182,31.552097 304.231592,32.2356941 C304.798001,32.9192913 305.632953,33.2610847 306.736474,33.2610847 C307.918121,33.2610847 308.775046,32.9217327 309.307275,32.2430183 C309.839504,31.564304 310.105615,30.4534753 310.105615,28.9104988 L310.105615,16.3714363 L315.891748,16.3714363 Z M338.33081,23.1829597 C338.33081,25.5755498 337.625251,27.4236759 336.214111,28.7273933 C334.802971,30.0311108 332.798597,30.6829597 330.200927,30.6829597 L328.574951,30.6829597 L328.574951,37.7874519 L322.788818,37.7874519 L322.788818,16.3714363 L330.200927,16.3714363 C332.906019,16.3714363 334.937249,16.9622507 336.294677,18.1438972 C337.652106,19.3255438 338.33081,21.0052145 338.33081,23.1829597 Z M328.574951,25.9661629 L329.629638,25.9661629 C330.498783,25.9661629 331.189694,25.7220247 331.702392,25.233741 C332.21509,24.7454573 332.471435,24.0716359 332.471435,23.2122566 C332.471435,21.7669369 331.670662,21.0442879 330.069092,21.0442879 L328.574951,21.0442879 L328.574951,25.9661629 Z" id="MEETING-SETUP" opacity="0.6"></path>
            </g>
            <rect id="Rectangle-90" fill="#3ACB94" fill-rule="nonzero" x="59.929577" y="727.771127" width="359.577465" height="64.4242958" rx="7.5"></rect>
            <path d="M149.64847,755.281129 C149.361131,755.519411 149.217463,755.862811 149.217463,756.31134 C149.217463,756.759869 149.350618,757.12079 149.616933,757.394112 C149.883247,757.667435 150.230151,757.87768 150.657656,758.024854 C151.08516,758.172027 151.561715,758.312191 152.087336,758.445348 C152.612956,758.578505 153.135064,758.739693 153.653676,758.928916 C154.172288,759.118139 154.645339,759.352913 155.072844,759.633244 C155.500348,759.913574 155.847253,760.309536 156.113567,760.821139 C156.379881,761.332743 156.513036,761.945958 156.513036,762.660801 C156.513036,763.908273 156.004944,764.977019 154.988745,765.867069 C153.972546,766.757119 152.633986,767.202138 150.973026,767.202138 C149.312066,767.202138 147.973507,766.802672 146.957307,766.003729 C145.941108,765.204787 145.433016,764.069464 145.433016,762.597727 L149.259513,762.597727 C149.357629,763.775117 149.960331,764.363802 151.067637,764.363802 C151.586249,764.363802 151.992723,764.227143 152.28707,763.953821 C152.581418,763.680498 152.728589,763.333594 152.728589,762.913098 C152.728589,762.492602 152.595434,762.149201 152.32912,761.882887 C152.062806,761.616573 151.715901,761.406328 151.288397,761.252146 C150.860892,761.097964 150.384337,760.954297 149.858717,760.821139 C149.333097,760.687982 148.810988,760.52329 148.292376,760.327059 C147.773764,760.130827 147.300713,759.896054 146.873209,759.622731 C146.445704,759.349409 146.0988,758.956951 145.832486,758.445348 C145.566171,757.933744 145.433016,757.327538 145.433016,756.626711 C145.433016,755.25309 145.944612,754.152808 146.96782,753.325832 C147.991027,752.498856 149.29805,752.085374 150.888927,752.085374 C152.479805,752.085374 153.765803,752.446295 154.746961,753.168147 C155.728119,753.889998 156.239715,755.028825 156.281765,756.584661 L152.371169,756.584661 C152.315103,756.052033 152.143403,755.642055 151.856064,755.354716 C151.568725,755.067377 151.200796,754.923709 150.752267,754.923709 C150.303738,754.923709 149.935809,755.042848 149.64847,755.281129 Z M160.024162,755.028833 L160.024162,752.295621 L171.671849,752.295621 L171.671849,755.028833 L167.635106,755.028833 L167.635106,767.054965 L164.039881,767.054965 L164.039881,755.028833 L160.024162,755.028833 Z M184.875365,767.054965 L184.055401,764.574049 L178.757175,764.574049 L177.937212,767.054965 L174.110715,767.054965 L179.240743,752.253572 L183.613882,752.253572 L188.722886,767.054965 L184.875365,767.054965 Z M179.661237,761.840838 L183.151339,761.840838 L181.406288,756.584661 L179.661237,761.840838 Z M195.766162,761.31522 L195.766162,767.054965 L192.170937,767.054965 L192.170937,752.295621 L197.994781,752.295621 C199.704799,752.295621 201.03635,752.737136 201.989475,753.620178 C202.9426,754.50322 203.419155,755.568461 203.419155,756.815933 C203.419155,757.670942 203.159853,758.504914 202.641241,759.317873 C202.122629,760.130832 201.274641,760.705502 200.097252,761.041899 L203.713501,767.054965 L199.50856,767.054965 L196.186656,761.31522 L195.766162,761.31522 Z M195.766162,755.028833 L195.766162,758.582008 L197.994781,758.582008 C198.541426,758.582008 198.972428,758.420821 199.2878,758.09844 C199.603173,757.77606 199.760856,757.352066 199.760856,756.826445 C199.760856,756.300825 199.599669,755.869823 199.277288,755.533426 C198.954908,755.197029 198.52741,755.028833 197.994781,755.028833 L195.766162,755.028833 Z M206.888232,755.028833 L206.888232,752.295621 L218.535919,752.295621 L218.535919,755.028833 L214.499175,755.028833 L214.499175,767.054965 L210.90395,767.054965 L210.90395,755.028833 L206.888232,755.028833 Z M247.066445,752.295621 L247.066445,767.054965 L243.47122,767.054965 L243.47122,758.729181 L240.044193,767.054965 L237.374055,767.054965 L233.947028,758.729181 L233.947028,767.054965 L230.351803,767.054965 L230.351803,752.295621 L234.472646,752.295621 L238.719636,762.471579 L242.945602,752.295621 L247.066445,752.295621 Z M260.837627,752.253572 L260.837627,754.986784 L255.497352,754.986784 L255.497352,758.161514 L260.206886,758.161514 L260.206886,760.894726 L255.497352,760.894726 L255.497352,764.321753 L260.837627,764.321753 L260.837627,767.054965 L251.902127,767.054965 L251.902127,752.253572 L260.837627,752.253572 Z M274.545735,752.253572 L274.545735,754.986784 L269.20546,754.986784 L269.20546,758.161514 L273.914994,758.161514 L273.914994,760.894726 L269.20546,760.894726 L269.20546,764.321753 L274.545735,764.321753 L274.545735,767.054965 L265.610235,767.054965 L265.610235,752.253572 L274.545735,752.253572 Z M278.309158,755.028833 L278.309158,752.295621 L289.956845,752.295621 L289.956845,755.028833 L285.920101,755.028833 L285.920101,767.054965 L282.324876,767.054965 L282.324876,755.028833 L278.309158,755.028833 Z M293.783341,767.054965 L293.783341,752.295621 L297.378566,752.295621 L297.378566,767.054965 L293.783341,767.054965 Z M311.822539,752.253572 L315.417763,752.253572 L315.417763,767.054965 L311.822539,767.054965 L305.809473,757.74102 L305.809473,767.054965 L302.214248,767.054965 L302.214248,752.253572 L305.809473,752.253572 L311.822539,761.567517 L311.822539,752.253572 Z M319.391433,759.633244 C319.391433,757.446663 320.123786,755.642061 321.588515,754.219382 C323.053243,752.796703 324.843829,752.085374 326.960327,752.085374 C328.600262,752.085374 330.057961,752.51988 331.333466,753.388906 C332.608971,754.257931 333.499008,755.463336 334.003603,757.005155 L329.714563,757.005155 C329.153902,755.925882 328.256857,755.386253 327.023401,755.386253 C325.789945,755.386253 324.819315,755.771702 324.111479,756.542612 C323.403644,757.313522 323.049732,758.343722 323.049732,759.633244 C323.049732,760.922765 323.403644,761.952966 324.111479,762.723875 C324.819315,763.494785 325.768921,763.880234 326.960327,763.880234 C327.815336,763.880234 328.512648,763.666485 329.052285,763.238981 C329.591922,762.811476 329.952843,762.240311 330.135058,761.525467 L325.972166,761.525467 L325.972166,758.792255 L334.003603,758.792255 L334.003603,761.525467 C333.737289,762.871055 333.001432,764.125517 331.796009,765.288889 C331.221331,765.849551 330.510002,766.305082 329.662002,766.655495 C328.814001,767.005909 327.913452,767.181113 326.960327,767.181113 C324.843829,767.181113 323.053243,766.469784 321.588515,765.047105 C320.123786,763.624426 319.391433,761.819824 319.391433,759.633244 Z" id="START-MEETING" fill-opacity="0.6" fill="#000000" fill-rule="nonzero"></path>
            <rect id="Rectangle-90" fill="#E3E3E3" fill-rule="nonzero" x="60.382652" y="514.919332" width="359.12439" height="79.4066901" rx="7.5"></rect>
            <path d="M57.816711,481.565383 C57.816711,479.381372 58.548204,477.57889 60.011211,476.157883 C61.474218,474.736876 63.2627,474.026383 65.376711,474.026383 C67.014719,474.026383 68.470705,474.460379 69.744711,475.328383 C71.018717,476.196388 71.907708,477.400376 72.411711,478.940383 L68.127711,478.940383 C67.567708,477.862378 66.671717,477.323383 65.439711,477.323383 C64.207705,477.323383 63.238215,477.708379 62.531211,478.478383 C61.824207,479.248387 61.470711,480.277377 61.470711,481.565383 C61.470711,482.85339 61.824207,483.882379 62.531211,484.652383 C63.238215,485.422387 64.186705,485.807383 65.376711,485.807383 C66.230715,485.807383 66.927208,485.593885 67.466211,485.166883 C68.005214,484.739881 68.36571,484.169387 68.547711,483.455383 L64.389711,483.455383 L64.389711,480.725383 L72.411711,480.725383 L72.411711,483.455383 C72.14571,484.79939 71.410717,486.052377 70.206711,487.214383 C69.632708,487.774386 68.922215,488.229382 68.075211,488.579383 C67.228207,488.929385 66.328716,489.104383 65.376711,489.104383 C63.2627,489.104383 61.474218,488.39389 60.011211,486.972883 C58.548204,485.551876 57.816711,483.749394 57.816711,481.565383 Z M82.680711,477.260383 L86.271711,477.260383 L86.271711,488.978383 L82.680711,488.978383 L82.680711,487.256383 C81.938707,488.488389 80.755719,489.104383 79.131711,489.104383 C77.787704,489.104383 76.699215,488.656388 75.866211,487.760383 C75.033207,486.864379 74.616711,485.646391 74.616711,484.106383 L74.616711,477.260383 L78.186711,477.260383 L78.186711,483.623383 C78.186711,484.379387 78.386209,484.963881 78.785211,485.376883 C79.184213,485.789885 79.733707,485.996383 80.433711,485.996383 C81.133714,485.996383 81.683209,485.789885 82.082211,485.376883 C82.481213,484.963881 82.680711,484.379387 82.680711,483.623383 L82.680711,477.260383 Z M91.206711,476.546383 C90.618708,476.546383 90.121713,476.343385 89.715711,475.937383 C89.309709,475.531381 89.106711,475.030886 89.106711,474.435883 C89.106711,473.84088 89.309709,473.340385 89.715711,472.934383 C90.121713,472.528381 90.618708,472.325383 91.206711,472.325383 C91.794714,472.325383 92.291709,472.528381 92.697711,472.934383 C93.103713,473.340385 93.306711,473.84088 93.306711,474.435883 C93.306711,475.030886 93.103713,475.531381 92.697711,475.937383 C92.291709,476.343385 91.794714,476.546383 91.206711,476.546383 Z M89.421711,488.978383 L89.421711,477.260383 L93.012711,477.260383 L93.012711,488.978383 L89.421711,488.978383 Z M104.079711,483.119383 C104.079711,482.195379 103.820714,481.484886 103.302711,480.987883 C102.784708,480.490881 102.189714,480.242383 101.517711,480.242383 C100.845708,480.242383 100.250714,480.494381 99.732711,480.998383 C99.214708,481.502386 98.955711,482.216379 98.955711,483.140383 C98.955711,484.064388 99.214708,484.774881 99.732711,485.271883 C100.250714,485.768886 100.845708,486.017383 101.517711,486.017383 C102.189714,486.017383 102.784708,485.765386 103.302711,485.261383 C103.820714,484.757381 104.079711,484.043388 104.079711,483.119383 Z M95.301711,483.140383 C95.301711,481.390375 95.819706,479.951889 96.855711,478.824883 C97.891716,477.697878 99.155204,477.134383 100.646211,477.134383 C102.137218,477.134383 103.281707,477.687378 104.079711,478.793383 L104.079711,473.438383 L107.670711,473.438383 L107.670711,488.978383 L104.079711,488.978383 L104.079711,487.277383 C103.211707,488.509389 102.049718,489.125383 100.593711,489.125383 C99.137704,489.125383 97.891716,488.565389 96.855711,487.445383 C95.819706,486.325378 95.301711,484.890392 95.301711,483.140383 Z M118.737711,483.119383 C118.737711,482.195379 118.478714,481.484886 117.960711,480.987883 C117.442708,480.490881 116.847714,480.242383 116.175711,480.242383 C115.503708,480.242383 114.908714,480.494381 114.390711,480.998383 C113.872708,481.502386 113.613711,482.216379 113.613711,483.140383 C113.613711,484.064388 113.872708,484.774881 114.390711,485.271883 C114.908714,485.768886 115.503708,486.017383 116.175711,486.017383 C116.847714,486.017383 117.442708,485.765386 117.960711,485.261383 C118.478714,484.757381 118.737711,484.043388 118.737711,483.119383 Z M109.959711,483.140383 C109.959711,481.390375 110.477706,479.951889 111.513711,478.824883 C112.549716,477.697878 113.813204,477.134383 115.304211,477.134383 C116.795218,477.134383 117.939707,477.687378 118.737711,478.793383 L118.737711,477.260383 L122.328711,477.260383 L122.328711,488.978383 L118.737711,488.978383 L118.737711,487.277383 C117.869707,488.509389 116.707718,489.125383 115.251711,489.125383 C113.795704,489.125383 112.549716,488.565389 111.513711,487.445383 C110.477706,486.325378 109.959711,484.890392 109.959711,483.140383 Z M129.069711,477.260383 L129.069711,478.982383 C129.811715,477.750377 130.994703,477.134383 132.618711,477.134383 C133.962718,477.134383 135.051207,477.582379 135.884211,478.478383 C136.717215,479.374388 137.133711,480.592376 137.133711,482.132383 L137.133711,488.978383 L133.563711,488.978383 L133.563711,482.615383 C133.563711,481.859379 133.364213,481.274885 132.965211,480.861883 C132.566209,480.448881 132.016714,480.242383 131.316711,480.242383 C130.616707,480.242383 130.067213,480.448881 129.668211,480.861883 C129.269209,481.274885 129.069711,481.859379 129.069711,482.615383 L129.069711,488.978383 L125.478711,488.978383 L125.478711,477.260383 L129.069711,477.260383 Z M139.317711,483.119383 C139.317711,481.299374 139.860206,479.846889 140.945211,478.761883 C142.030216,477.676878 143.433702,477.134383 145.155711,477.134383 C146.583718,477.134383 147.794706,477.48788 148.788711,478.194883 C149.782716,478.901887 150.440709,479.913377 150.762711,481.229383 L146.877711,481.229383 C146.541709,480.52938 145.992215,480.179383 145.229211,480.179383 C144.466207,480.179383 143.899213,480.448881 143.528211,480.987883 C143.157209,481.526886 142.971711,482.237379 142.971711,483.119383 C142.971711,484.001388 143.157209,484.711881 143.528211,485.250883 C143.899213,485.789886 144.441707,486.059383 145.155711,486.059383 C145.603713,486.059383 145.95371,485.982384 146.205711,485.828383 C146.457712,485.674382 146.68171,485.401385 146.877711,485.009383 L150.762711,485.009383 C150.440709,486.26939 149.775716,487.27038 148.767711,488.012383 C147.759706,488.754387 146.555718,489.125383 145.155711,489.125383 C143.433702,489.125383 142.030216,488.579389 140.945211,487.487383 C139.860206,486.395378 139.317711,484.939392 139.317711,483.119383 Z M157.755711,489.125383 C156.047702,489.125383 154.647716,488.575889 153.555711,487.476883 C152.463706,486.377878 151.917711,484.918392 151.917711,483.098383 C151.917711,481.278374 152.460206,479.829389 153.545211,478.751383 C154.630216,477.673378 156.033702,477.134383 157.755711,477.134383 C159.47772,477.134383 160.905705,477.666378 162.039711,478.730383 C163.173717,479.794389 163.740711,481.271374 163.740711,483.161383 C163.740711,483.567385 163.712711,483.945382 163.656711,484.295383 L155.592711,484.295383 C155.662711,484.813386 155.893709,485.236882 156.285711,485.565883 C156.677713,485.894885 157.101209,486.059383 157.556211,486.059383 C158.011213,486.059383 158.35071,486.013884 158.574711,485.922883 C158.798712,485.831883 158.96321,485.740884 159.068211,485.649883 C159.173211,485.558883 159.30971,485.408384 159.477711,485.198383 L163.362711,485.198383 C163.026709,486.374389 162.354716,487.32288 161.346711,488.043883 C160.338706,488.764887 159.141718,489.125383 157.755711,489.125383 Z M159.288711,480.714883 C158.868709,480.371882 158.371714,480.200383 157.797711,480.200383 C157.223708,480.200383 156.740713,480.371882 156.348711,480.714883 C155.956709,481.057885 155.711711,481.502381 155.613711,482.048383 L160.002711,482.048383 C159.946711,481.502381 159.708713,481.057885 159.288711,480.714883 Z M181.716711,488.978383 L180.897711,486.500383 L175.605711,486.500383 L174.786711,488.978383 L170.964711,488.978383 L176.088711,474.194383 L180.456711,474.194383 L185.559711,488.978383 L181.716711,488.978383 Z M176.508711,483.770383 L179.994711,483.770383 L178.251711,478.520383 L176.508711,483.770383 Z M195.282711,477.260383 L198.873711,477.260383 L198.873711,488.978383 L195.282711,488.978383 L195.282711,487.256383 C194.540707,488.488389 193.357719,489.104383 191.733711,489.104383 C190.389704,489.104383 189.301215,488.656388 188.468211,487.760383 C187.635207,486.864379 187.218711,485.646391 187.218711,484.106383 L187.218711,477.260383 L190.788711,477.260383 L190.788711,483.623383 C190.788711,484.379387 190.988209,484.963881 191.387211,485.376883 C191.786213,485.789885 192.335707,485.996383 193.035711,485.996383 C193.735714,485.996383 194.285209,485.789885 194.684211,485.376883 C195.083213,484.963881 195.282711,484.379387 195.282711,483.623383 L195.282711,477.260383 Z M209.940711,483.119383 C209.940711,482.195379 209.681714,481.484886 209.163711,480.987883 C208.645708,480.490881 208.050714,480.242383 207.378711,480.242383 C206.706708,480.242383 206.111714,480.494381 205.593711,480.998383 C205.075708,481.502386 204.816711,482.216379 204.816711,483.140383 C204.816711,484.064388 205.075708,484.774881 205.593711,485.271883 C206.111714,485.768886 206.706708,486.017383 207.378711,486.017383 C208.050714,486.017383 208.645708,485.765386 209.163711,485.261383 C209.681714,484.757381 209.940711,484.043388 209.940711,483.119383 Z M201.162711,483.140383 C201.162711,481.390375 201.680706,479.951889 202.716711,478.824883 C203.752716,477.697878 205.016204,477.134383 206.507211,477.134383 C207.998218,477.134383 209.142707,477.687378 209.940711,478.793383 L209.940711,473.438383 L213.531711,473.438383 L213.531711,488.978383 L209.940711,488.978383 L209.940711,487.277383 C209.072707,488.509389 207.910718,489.125383 206.454711,489.125383 C204.998704,489.125383 203.752716,488.565389 202.716711,487.445383 C201.680706,486.325378 201.162711,484.890392 201.162711,483.140383 Z M218.466711,476.546383 C217.878708,476.546383 217.381713,476.343385 216.975711,475.937383 C216.569709,475.531381 216.366711,475.030886 216.366711,474.435883 C216.366711,473.84088 216.569709,473.340385 216.975711,472.934383 C217.381713,472.528381 217.878708,472.325383 218.466711,472.325383 C219.054714,472.325383 219.551709,472.528381 219.957711,472.934383 C220.363713,473.340385 220.566711,473.84088 220.566711,474.435883 C220.566711,475.030886 220.363713,475.531381 219.957711,475.937383 C219.551709,476.343385 219.054714,476.546383 218.466711,476.546383 Z M216.681711,488.978383 L216.681711,477.260383 L220.272711,477.260383 L220.272711,488.978383 L216.681711,488.978383 Z M231.171711,483.119383 C231.171711,482.167379 230.926713,481.442886 230.436711,480.945883 C229.946709,480.448881 229.365714,480.200383 228.693711,480.200383 C228.021708,480.200383 227.444213,480.448881 226.961211,480.945883 C226.478209,481.442886 226.236711,482.167379 226.236711,483.119383 C226.236711,484.071388 226.485208,484.799381 226.982211,485.303383 C227.479213,485.807386 228.063708,486.059383 228.735711,486.059383 C229.407714,486.059383 229.981709,485.807386 230.457711,485.303383 C230.933713,484.799381 231.171711,484.071388 231.171711,483.119383 Z M222.582711,483.098383 C222.582711,481.292374 223.170705,479.846889 224.346711,478.761883 C225.522717,477.676878 226.978702,477.134383 228.714711,477.134383 C230.45072,477.134383 231.903205,477.676878 233.072211,478.761883 C234.241217,479.846889 234.825711,481.292374 234.825711,483.098383 C234.825711,484.904392 234.244717,486.360378 233.082711,487.466383 C231.920705,488.572389 230.47172,489.125383 228.735711,489.125383 C226.999702,489.125383 225.540217,488.572389 224.357211,487.466383 C223.174205,486.360378 222.582711,484.904392 222.582711,483.098383 Z" id="Guidance-Audio" fill-opacity="0.6" fill="#000000" fill-rule="nonzero"></path>
            <path d="M62.268711,327.13764 L63.864711,327.13764 C65.236718,327.13764 66.314707,326.717644 67.098711,325.87764 C67.882715,325.037635 68.274711,323.910647 68.274711,322.49664 C68.274711,321.082633 67.882715,319.955644 67.098711,319.11564 C66.314707,318.275635 65.236718,317.85564 63.864711,317.85564 L62.268711,317.85564 L62.268711,327.13764 Z M63.864711,315.12564 C66.216723,315.12564 68.148703,315.808133 69.660711,317.17314 C71.172719,318.538147 71.928711,320.309129 71.928711,322.48614 C71.928711,324.663151 71.172719,326.437633 69.660711,327.80964 C68.148703,329.181647 66.216723,329.86764 63.864711,329.86764 L58.677711,329.86764 L58.677711,315.12564 L63.864711,315.12564 Z M82.155711,318.14964 L85.746711,318.14964 L85.746711,329.86764 L82.155711,329.86764 L82.155711,328.14564 C81.413707,329.377646 80.230719,329.99364 78.606711,329.99364 C77.262704,329.99364 76.174215,329.545644 75.341211,328.64964 C74.508207,327.753635 74.091711,326.535647 74.091711,324.99564 L74.091711,318.14964 L77.661711,318.14964 L77.661711,324.51264 C77.661711,325.268643 77.861209,325.853138 78.260211,326.26614 C78.659213,326.679142 79.208707,326.88564 79.908711,326.88564 C80.608714,326.88564 81.158209,326.679142 81.557211,326.26614 C81.956213,325.853138 82.155711,325.268643 82.155711,324.51264 L82.155711,318.14964 Z M92.487711,318.14964 L92.487711,320.33364 C93.327715,318.793632 94.447704,318.02364 95.847711,318.02364 L95.847711,321.67764 L94.965711,321.67764 C94.139707,321.67764 93.520213,321.873638 93.107211,322.26564 C92.694209,322.657642 92.487711,323.343635 92.487711,324.32364 L92.487711,329.86764 L88.896711,329.86764 L88.896711,318.14964 L92.487711,318.14964 Z M105.717711,324.00864 C105.717711,323.084635 105.458714,322.374142 104.940711,321.87714 C104.422708,321.380137 103.827714,321.13164 103.155711,321.13164 C102.483708,321.13164 101.888714,321.383637 101.370711,321.88764 C100.852708,322.391642 100.593711,323.105635 100.593711,324.02964 C100.593711,324.953644 100.852708,325.664137 101.370711,326.16114 C101.888714,326.658142 102.483708,326.90664 103.155711,326.90664 C103.827714,326.90664 104.422708,326.654642 104.940711,326.15064 C105.458714,325.646637 105.717711,324.932644 105.717711,324.00864 Z M96.939711,324.02964 C96.939711,322.279631 97.457706,320.841145 98.493711,319.71414 C99.529716,318.587134 100.793204,318.02364 102.284211,318.02364 C103.775218,318.02364 104.919707,318.576634 105.717711,319.68264 L105.717711,318.14964 L109.308711,318.14964 L109.308711,329.86764 L105.717711,329.86764 L105.717711,328.16664 C104.849707,329.398646 103.687718,330.01464 102.231711,330.01464 C100.775704,330.01464 99.529716,329.454645 98.493711,328.33464 C97.457706,327.214634 96.939711,325.779648 96.939711,324.02964 Z M117.435711,326.82264 L118.716711,326.82264 L118.716711,329.86764 L116.889711,329.86764 C115.573704,329.86764 114.555215,329.577143 113.834211,328.99614 C113.113207,328.415137 112.752711,327.417647 112.752711,326.00364 L112.752711,321.13164 L111.660711,321.13164 L111.660711,318.14964 L112.752711,318.14964 L112.752711,315.29364 L116.343711,315.29364 L116.343711,318.14964 L118.695711,318.14964 L118.695711,321.13164 L116.343711,321.13164 L116.343711,326.00364 C116.343711,326.549642 116.707707,326.82264 117.435711,326.82264 Z M122.958711,317.43564 C122.370708,317.43564 121.873713,317.232642 121.467711,316.82664 C121.061709,316.420638 120.858711,315.920143 120.858711,315.32514 C120.858711,314.730137 121.061709,314.229642 121.467711,313.82364 C121.873713,313.417638 122.370708,313.21464 122.958711,313.21464 C123.546714,313.21464 124.043709,313.417638 124.449711,313.82364 C124.855713,314.229642 125.058711,314.730137 125.058711,315.32514 C125.058711,315.920143 124.855713,316.420638 124.449711,316.82664 C124.043709,317.232642 123.546714,317.43564 122.958711,317.43564 Z M121.173711,329.86764 L121.173711,318.14964 L124.764711,318.14964 L124.764711,329.86764 L121.173711,329.86764 Z M135.663711,324.00864 C135.663711,323.056635 135.418713,322.332142 134.928711,321.83514 C134.438709,321.338137 133.857714,321.08964 133.185711,321.08964 C132.513708,321.08964 131.936213,321.338137 131.453211,321.83514 C130.970209,322.332142 130.728711,323.056635 130.728711,324.00864 C130.728711,324.960644 130.977208,325.688637 131.474211,326.19264 C131.971213,326.696642 132.555708,326.94864 133.227711,326.94864 C133.899714,326.94864 134.473709,326.696642 134.949711,326.19264 C135.425713,325.688637 135.663711,324.960644 135.663711,324.00864 Z M127.074711,323.98764 C127.074711,322.181631 127.662705,320.736145 128.838711,319.65114 C130.014717,318.566134 131.470702,318.02364 133.206711,318.02364 C134.94272,318.02364 136.395205,318.566134 137.564211,319.65114 C138.733217,320.736145 139.317711,322.181631 139.317711,323.98764 C139.317711,325.793649 138.736717,327.249634 137.574711,328.35564 C136.412705,329.461645 134.96372,330.01464 133.227711,330.01464 C131.491702,330.01464 130.032217,329.461645 128.849211,328.35564 C127.666205,327.249634 127.074711,325.793649 127.074711,323.98764 Z M145.218711,318.14964 L145.218711,319.87164 C145.960715,318.639634 147.143703,318.02364 148.767711,318.02364 C150.111718,318.02364 151.200207,318.471635 152.033211,319.36764 C152.866215,320.263644 153.282711,321.481632 153.282711,323.02164 L153.282711,329.86764 L149.712711,329.86764 L149.712711,323.50464 C149.712711,322.748636 149.513213,322.164142 149.114211,321.75114 C148.715209,321.338138 148.165714,321.13164 147.465711,321.13164 C146.765707,321.13164 146.216213,321.338138 145.817211,321.75114 C145.418209,322.164142 145.218711,322.748636 145.218711,323.50464 L145.218711,329.86764 L141.627711,329.86764 L141.627711,318.14964 L145.218711,318.14964 Z" id="Duration" fill-opacity="0.6" fill="#000000" fill-rule="nonzero"></path>
            <path d="M272.907704,320.43864 L269.757704,320.43864 L269.064704,323.65164 L271.542704,323.65164 L271.542704,326.88564 L268.371704,326.88564 L267.741704,329.86764 L264.381704,329.86764 L265.011704,326.88564 L261.525704,326.88564 L260.895704,329.86764 L257.535704,329.86764 L258.165704,326.88564 L255.015704,326.88564 L255.015704,323.65164 L258.858704,323.65164 L259.551704,320.43864 L256.380704,320.43864 L256.380704,317.20464 L260.244704,317.20464 L260.853704,314.32764 L264.213704,314.32764 L263.604704,317.20464 L267.090704,317.20464 L267.699704,314.32764 L271.059704,314.32764 L270.450704,317.20464 L272.907704,317.20464 L272.907704,320.43864 Z M265.704704,323.65164 L266.397704,320.43864 L262.911704,320.43864 L262.218704,323.65164 L265.704704,323.65164 Z M289.833704,324.00864 C289.833704,323.056635 289.588707,322.332142 289.098704,321.83514 C288.608702,321.338137 288.027708,321.08964 287.355704,321.08964 C286.683701,321.08964 286.106207,321.338137 285.623204,321.83514 C285.140202,322.332142 284.898704,323.056635 284.898704,324.00864 C284.898704,324.960644 285.147202,325.688637 285.644204,326.19264 C286.141207,326.696642 286.725701,326.94864 287.397704,326.94864 C288.069708,326.94864 288.643702,326.696642 289.119704,326.19264 C289.595707,325.688637 289.833704,324.960644 289.833704,324.00864 Z M281.244704,323.98764 C281.244704,322.181631 281.832698,320.736145 283.008704,319.65114 C284.18471,318.566134 285.640696,318.02364 287.376704,318.02364 C289.112713,318.02364 290.565198,318.566134 291.734204,319.65114 C292.90321,320.736145 293.487704,322.181631 293.487704,323.98764 C293.487704,325.793649 292.90671,327.249634 291.744704,328.35564 C290.582698,329.461645 289.133713,330.01464 287.397704,330.01464 C285.661696,330.01464 284.20221,329.461645 283.019204,328.35564 C281.836198,327.249634 281.244704,325.793649 281.244704,323.98764 Z M300.921704,318.14964 L300.921704,321.13164 L299.430704,321.13164 L299.430704,329.86764 L295.839704,329.86764 L295.839704,321.13164 L294.747704,321.13164 L294.747704,318.14964 L295.839704,318.14964 L295.839704,317.70864 C295.839704,316.224632 296.2352,315.139643 297.026204,314.45364 C297.817208,313.767636 299.059696,313.42464 300.753704,313.42464 L300.753704,316.46964 C300.277702,316.46964 299.938205,316.560639 299.735204,316.74264 C299.532203,316.924641 299.430704,317.246637 299.430704,317.70864 L299.430704,318.14964 L300.921704,318.14964 Z M320.388704,319.64064 C320.388704,320.634645 320.031708,321.593635 319.317704,322.51764 C318.939702,322.993642 318.376208,323.382138 317.627204,323.68314 C316.8782,323.984141 315.992709,324.13464 314.970704,324.13464 L312.744704,324.13464 L312.744704,329.86764 L309.153704,329.86764 L309.153704,315.12564 L314.970704,315.12564 C316.678713,315.12564 318.008699,315.566635 318.960704,316.44864 C319.912709,317.330644 320.388704,318.394633 320.388704,319.64064 Z M312.744704,321.40464 L314.970704,321.40464 C315.516707,321.40464 315.947203,321.243641 316.262204,320.92164 C316.577206,320.599638 316.734704,320.176142 316.734704,319.65114 C316.734704,319.126137 316.573706,318.695641 316.251704,318.35964 C315.929703,318.023638 315.502707,317.85564 314.970704,317.85564 L312.744704,317.85564 L312.744704,321.40464 Z M327.528704,330.01464 C325.820696,330.01464 324.42071,329.465145 323.328704,328.36614 C322.236699,327.267134 321.690704,325.807649 321.690704,323.98764 C321.690704,322.167631 322.233199,320.718645 323.318204,319.64064 C324.40321,318.562634 325.806696,318.02364 327.528704,318.02364 C329.250713,318.02364 330.678699,318.555634 331.812704,319.61964 C332.94671,320.683645 333.513704,322.16063 333.513704,324.05064 C333.513704,324.456642 333.485705,324.834638 333.429704,325.18464 L325.365704,325.18464 C325.435705,325.702642 325.666702,326.126138 326.058704,326.45514 C326.450706,326.784141 326.874202,326.94864 327.329204,326.94864 C327.784207,326.94864 328.123703,326.90314 328.347704,326.81214 C328.571705,326.721139 328.736204,326.63014 328.841204,326.53914 C328.946205,326.448139 329.082703,326.297641 329.250704,326.08764 L333.135704,326.08764 C332.799703,327.263646 332.127709,328.212136 331.119704,328.93314 C330.111699,329.654143 328.914711,330.01464 327.528704,330.01464 Z M329.061704,321.60414 C328.641702,321.261138 328.144707,321.08964 327.570704,321.08964 C326.996701,321.08964 326.513706,321.261138 326.121704,321.60414 C325.729702,321.947141 325.484705,322.391637 325.386704,322.93764 L329.775704,322.93764 C329.719704,322.391637 329.481706,321.947141 329.061704,321.60414 Z M343.572704,324.00864 C343.572704,323.056635 343.327707,322.332142 342.837704,321.83514 C342.347702,321.338137 341.766708,321.08964 341.094704,321.08964 C340.422701,321.08964 339.845207,321.338137 339.362204,321.83514 C338.879202,322.332142 338.637704,323.056635 338.637704,324.00864 C338.637704,324.960644 338.886202,325.688637 339.383204,326.19264 C339.880207,326.696642 340.464701,326.94864 341.136704,326.94864 C341.808708,326.94864 342.382702,326.696642 342.858704,326.19264 C343.334707,325.688637 343.572704,324.960644 343.572704,324.00864 Z M334.983704,323.98764 C334.983704,322.181631 335.571698,320.736145 336.747704,319.65114 C337.92371,318.566134 339.379696,318.02364 341.115704,318.02364 C342.851713,318.02364 344.304198,318.566134 345.473204,319.65114 C346.64221,320.736145 347.226704,322.181631 347.226704,323.98764 C347.226704,325.793649 346.64571,327.249634 345.483704,328.35564 C344.321698,329.461645 342.872713,330.01464 341.136704,330.01464 C339.400696,330.01464 337.94121,329.461645 336.758204,328.35564 C335.575198,327.249634 334.983704,325.793649 334.983704,323.98764 Z M358.251704,324.02964 C358.251704,323.105635 357.992707,322.391642 357.474704,321.88764 C356.956702,321.383637 356.361708,321.13164 355.689704,321.13164 C355.017701,321.13164 354.422707,321.380137 353.904704,321.87714 C353.386702,322.374142 353.127704,323.084635 353.127704,324.00864 C353.127704,324.932644 353.386702,325.646637 353.904704,326.15064 C354.422707,326.654642 355.017701,326.90664 355.689704,326.90664 C356.361708,326.90664 356.956702,326.658142 357.474704,326.16114 C357.992707,325.664137 358.251704,324.953644 358.251704,324.02964 Z M353.127704,319.68264 C353.925708,318.576634 355.070197,318.02364 356.561204,318.02364 C358.052212,318.02364 359.315699,318.587134 360.351704,319.71414 C361.387709,320.841145 361.905704,322.279631 361.905704,324.02964 C361.905704,325.779648 361.387709,327.214634 360.351704,328.33464 C359.315699,329.454645 358.062712,330.01464 356.592704,330.01464 C355.122697,330.01464 353.967708,329.398646 353.127704,328.16664 L353.127704,335.45364 L349.536704,335.45364 L349.536704,318.14964 L353.127704,318.14964 L353.127704,319.68264 Z M364.194704,329.86764 L364.194704,314.32764 L367.785704,314.32764 L367.785704,329.86764 L364.194704,329.86764 Z M375.912704,330.01464 C374.204696,330.01464 372.80471,329.465145 371.712704,328.36614 C370.620699,327.267134 370.074704,325.807649 370.074704,323.98764 C370.074704,322.167631 370.617199,320.718645 371.702204,319.64064 C372.78721,318.562634 374.190696,318.02364 375.912704,318.02364 C377.634713,318.02364 379.062699,318.555634 380.196704,319.61964 C381.33071,320.683645 381.897704,322.16063 381.897704,324.05064 C381.897704,324.456642 381.869705,324.834638 381.813704,325.18464 L373.749704,325.18464 C373.819705,325.702642 374.050702,326.126138 374.442704,326.45514 C374.834706,326.784141 375.258202,326.94864 375.713204,326.94864 C376.168207,326.94864 376.507703,326.90314 376.731704,326.81214 C376.955705,326.721139 377.120204,326.63014 377.225204,326.53914 C377.330205,326.448139 377.466703,326.297641 377.634704,326.08764 L381.519704,326.08764 C381.183703,327.263646 380.511709,328.212136 379.503704,328.93314 C378.495699,329.654143 377.298711,330.01464 375.912704,330.01464 Z M377.445704,321.60414 C377.025702,321.261138 376.528707,321.08964 375.954704,321.08964 C375.380701,321.08964 374.897706,321.261138 374.505704,321.60414 C374.113702,321.947141 373.868705,322.391637 373.770704,322.93764 L378.159704,322.93764 C378.103704,322.391637 377.865706,321.947141 377.445704,321.60414 Z" id="#-of-People" fill-opacity="0.6" fill="#000000" fill-rule="nonzero"></path>
            <rect id="Rectangle-90" fill="#3ACB94" fill-rule="nonzero" x="67.420775" y="522.410529" width="164.806338" height="64.4242958" rx="7.5"></rect>
            <path d="M144.789944,552.979924 C144.789944,551.691917 144.436447,550.662928 143.729444,549.892924 C143.02244,549.12292 142.07745,548.737924 140.894444,548.737924 C139.711438,548.737924 138.766447,549.12292 138.059444,549.892924 C137.35244,550.662928 136.998944,551.691917 136.998944,552.979924 C136.998944,554.26793 137.35244,555.29692 138.059444,556.066924 C138.766447,556.836928 139.711438,557.221924 140.894444,557.221924 C142.07745,557.221924 143.02244,556.836928 143.729444,556.066924 C144.436447,555.29692 144.789944,554.26793 144.789944,552.979924 Z M133.344944,552.979924 C133.344944,550.795913 134.076436,548.993431 135.539444,547.572424 C137.002451,546.151417 138.794433,545.440924 140.915444,545.440924 C143.036454,545.440924 144.821436,546.151417 146.270444,547.572424 C147.719451,548.993431 148.443944,550.795913 148.443944,552.979924 C148.443944,555.163935 147.715951,556.969917 146.259944,558.397924 C144.803936,559.825931 143.018954,560.539924 140.904944,560.539924 C138.790933,560.539924 137.002451,559.825931 135.539444,558.397924 C134.076436,556.969917 133.344944,555.163935 133.344944,552.979924 Z M161.850944,545.608924 L165.441944,545.608924 L165.441944,560.392924 L161.850944,560.392924 L155.844944,551.089924 L155.844944,560.392924 L152.253944,560.392924 L152.253944,545.608924 L155.844944,545.608924 L161.850944,554.911924 L161.850944,545.608924 Z" id="ON" fill-opacity="0.6" fill="#000000" fill-rule="nonzero"></path>
            <rect id="Rectangle-90" fill="#FFFFFF" fill-rule="nonzero" x="59.929577" y="355.808589" width="164.806338" height="64.4242958" rx="7.5"></rect>
            <path d="M84.887662,393.790983 L84.887662,382.219983 L82.346662,382.219983 L82.346662,378.880983 L88.604662,378.880983 L88.604662,393.790983 L84.887662,393.790983 Z M102.065662,378.250983 L102.065662,383.794983 C102.807666,382.562977 103.990654,381.946983 105.614662,381.946983 C106.958669,381.946983 108.047158,382.394978 108.880162,383.290983 C109.713166,384.186987 110.129662,385.404975 110.129662,386.944983 L110.129662,393.790983 L106.559662,393.790983 L106.559662,387.427983 C106.559662,386.671979 106.360164,386.087485 105.961162,385.674483 C105.56216,385.261481 105.012665,385.054983 104.312662,385.054983 C103.612658,385.054983 103.063164,385.261481 102.664162,385.674483 C102.26516,386.087485 102.065662,386.671979 102.065662,387.427983 L102.065662,393.790983 L98.474662,393.790983 L98.474662,378.250983 L102.065662,378.250983 Z M116.765662,382.072983 L116.765662,384.256983 C117.605666,382.716975 118.725655,381.946983 120.125662,381.946983 L120.125662,385.600983 L119.243662,385.600983 C118.417658,385.600983 117.798164,385.796981 117.385162,386.188983 C116.97216,386.580985 116.765662,387.266978 116.765662,388.246983 L116.765662,393.790983 L113.174662,393.790983 L113.174662,382.072983 L116.765662,382.072983 Z" id="1-hr" fill-opacity="0.6" fill="#000000" fill-rule="nonzero"></path>
            <path d="M327.413873,552.979924 C327.413873,551.691917 327.060377,550.662928 326.353373,549.892924 C325.64637,549.12292 324.701379,548.737924 323.518373,548.737924 C322.335367,548.737924 321.390377,549.12292 320.683373,549.892924 C319.97637,550.662928 319.622873,551.691917 319.622873,552.979924 C319.622873,554.26793 319.97637,555.29692 320.683373,556.066924 C321.390377,556.836928 322.335367,557.221924 323.518373,557.221924 C324.701379,557.221924 325.64637,556.836928 326.353373,556.066924 C327.060377,555.29692 327.413873,554.26793 327.413873,552.979924 Z M315.968873,552.979924 C315.968873,550.795913 316.700366,548.993431 318.163373,547.572424 C319.626381,546.151417 321.418363,545.440924 323.539373,545.440924 C325.660384,545.440924 327.445366,546.151417 328.894373,547.572424 C330.34338,548.993431 331.067873,550.795913 331.067873,552.979924 C331.067873,555.163935 330.339881,556.969917 328.883873,558.397924 C327.427866,559.825931 325.642884,560.539924 323.528873,560.539924 C321.414863,560.539924 319.626381,559.825931 318.163373,558.397924 C316.700366,556.969917 315.968873,555.163935 315.968873,552.979924 Z M334.877873,560.392924 L334.877873,545.650924 L344.474873,545.650924 L344.474873,548.380924 L338.468873,548.380924 L338.468873,551.551924 L342.962873,551.551924 L342.962873,554.281924 L338.468873,554.281924 L338.468873,560.392924 L334.877873,560.392924 Z M348.452873,560.392924 L348.452873,545.650924 L358.049873,545.650924 L358.049873,548.380924 L352.043873,548.380924 L352.043873,551.551924 L356.537873,551.551924 L356.537873,554.281924 L352.043873,554.281924 L352.043873,560.392924 L348.452873,560.392924 Z" id="OFF" fill="#666666" fill-rule="nonzero" style="mix-blend-mode: multiply;"></path>
            <rect id="Rectangle-90" fill="#FFFFFF" fill-rule="nonzero" x="254.700704" y="355.808589" width="164.806338" height="64.4242958" rx="7.5"></rect>
            <path d="M301.009627,381.232983 C300.043622,381.232983 299.511627,381.750978 299.413627,382.786983 L295.927627,382.786983 C295.927627,381.316976 296.400122,380.179487 297.345127,379.374483 C298.290131,378.569479 299.546619,378.166983 301.114627,378.166983 C302.682635,378.166983 303.900622,378.551979 304.768627,379.321983 C305.636631,380.091987 306.070627,381.071977 306.070627,382.261983 C306.070627,383.199988 305.843129,383.96298 305.388127,384.550983 C304.933124,385.138986 304.467629,385.530982 303.991627,385.726983 L303.991627,385.810983 C305.559635,386.412986 306.343627,387.623974 306.343627,389.443983 C306.343627,390.81599 305.885131,391.897479 304.968127,392.688483 C304.051122,393.479487 302.784135,393.874983 301.167127,393.874983 C299.550119,393.874983 298.230632,393.461987 297.208627,392.635983 C296.186622,391.809979 295.675627,390.577991 295.675627,388.939983 L299.161627,388.939983 C299.175627,389.555986 299.350625,390.042481 299.686627,390.399483 C300.022628,390.756485 300.488124,390.934983 301.083127,390.934983 C301.67813,390.934983 302.126125,390.773985 302.427127,390.451983 C302.728128,390.129981 302.878627,389.671486 302.878627,389.076483 C302.878627,388.48148 302.668629,388.036984 302.248627,387.742983 C301.828625,387.448981 301.142632,387.301983 300.190627,387.301983 L299.518627,387.301983 L299.518627,384.382983 L300.190627,384.382983 C301.786635,384.382983 302.584627,383.822989 302.584627,382.702983 C302.584627,382.254981 302.441128,381.897984 302.154127,381.631983 C301.867125,381.365982 301.485629,381.232983 301.009627,381.232983 Z" id="3" fill-opacity="0.6" fill="#000000" fill-rule="nonzero"></path>
            <polygon id="Imported-Layers-Copy-2" fill="#F2F2F2" fill-rule="nonzero" transform="translate(394.124833, 759.983275) rotate(-90.000000) translate(-394.124833, -759.983275) " points="401.426546 753.902456 394.124403 761.20219 386.82398 753.902456 384.390792 756.335127 394.121823 766.064094 403.858874 756.335127"></polygon>
            <rect id="path-1" fill="#777CAF" x="363.077312" y="0.125" width="479.719466" height="853" rx="5"></rect>
            <path d="M449.091314,353.350629 C453.955338,353.350629 458.163296,354.214621 461.715314,355.942629 C465.267331,357.670638 468.067303,360.134613 470.115314,363.334629 C472.163324,366.534645 473.667309,370.166609 474.627314,374.230629 C475.587318,378.29465 476.067314,382.886604 476.067314,388.006629 C476.067314,393.126655 475.587318,397.718609 474.627314,401.782629 C473.667309,405.84665 472.163324,409.478613 470.115314,412.678629 C468.067303,415.878645 465.267331,418.342621 461.715314,420.070629 C458.163296,421.798638 453.955338,422.662629 449.091314,422.662629 C444.227289,422.662629 440.019331,421.798638 436.467314,420.070629 C432.915296,418.342621 430.115324,415.878645 428.067314,412.678629 C426.019303,409.478613 424.515318,405.84665 423.555314,401.782629 C422.595309,397.718609 422.115314,393.126655 422.115314,388.006629 C422.115314,382.886604 422.595309,378.29465 423.555314,374.230629 C424.515318,370.166609 426.019303,366.534645 428.067314,363.334629 C430.115324,360.134613 432.915296,357.670638 436.467314,355.942629 C440.019331,354.214621 444.227289,353.350629 449.091314,353.350629 Z M449.091314,368.710629 C447.235304,368.710629 445.619321,369.078626 444.243314,369.814629 C442.867307,370.550633 441.811317,371.462624 441.075314,372.550629 C440.33931,373.638635 439.747316,375.07862 439.299314,376.870629 C438.851311,378.662638 438.563314,380.390621 438.435314,382.054629 C438.307313,383.718638 438.243314,385.702618 438.243314,388.006629 C438.243314,390.310641 438.307313,392.294621 438.435314,393.958629 C438.563314,395.622638 438.851311,397.35062 439.299314,399.142629 C439.747316,400.934638 440.33931,402.374624 441.075314,403.462629 C441.811317,404.550635 442.867307,405.462626 444.243314,406.198629 C445.619321,406.934633 447.235304,407.302629 449.091314,407.302629 C450.947323,407.302629 452.563307,406.934633 453.939314,406.198629 C455.315321,405.462626 456.37131,404.550635 457.107314,403.462629 C457.843317,402.374624 458.435311,400.934638 458.883314,399.142629 C459.331316,397.35062 459.619313,395.622638 459.747314,393.958629 C459.875314,392.294621 459.939314,390.310641 459.939314,388.006629 C459.939314,385.702618 459.875314,383.718638 459.747314,382.054629 C459.619313,380.390621 459.331316,378.662638 458.883314,376.870629 C458.435311,375.07862 457.843317,373.638635 457.107314,372.550629 C456.37131,371.462624 455.315321,370.550633 453.939314,369.814629 C452.563307,369.078626 450.947323,368.710629 449.091314,368.710629 Z M502.179314,382.054629 C500.451305,383.782638 498.323326,384.646629 495.795314,384.646629 C493.267301,384.646629 491.139322,383.782638 489.411314,382.054629 C487.683305,380.326621 486.819314,378.198642 486.819314,375.670629 C486.819314,373.142617 487.683305,371.014638 489.411314,369.286629 C491.139322,367.558621 493.267301,366.694629 495.795314,366.694629 C498.323326,366.694629 500.451305,367.558621 502.179314,369.286629 C503.907322,371.014638 504.771314,373.142617 504.771314,375.670629 C504.771314,378.198642 503.907322,380.326621 502.179314,382.054629 Z M502.179314,420.358629 C500.451305,422.086638 498.323326,422.950629 495.795314,422.950629 C493.267301,422.950629 491.139322,422.086638 489.411314,420.358629 C487.683305,418.630621 486.819314,416.502642 486.819314,413.974629 C486.819314,411.446617 487.683305,409.318638 489.411314,407.590629 C491.139322,405.862621 493.267301,404.998629 495.795314,404.998629 C498.323326,404.998629 500.451305,405.862621 502.179314,407.590629 C503.907322,409.318638 504.771314,411.446617 504.771314,413.974629 C504.771314,416.502642 503.907322,418.630621 502.179314,420.358629 Z M542.403314,353.350629 C547.267338,353.350629 551.475296,354.214621 555.027314,355.942629 C558.579331,357.670638 561.379303,360.134613 563.427314,363.334629 C565.475324,366.534645 566.979309,370.166609 567.939314,374.230629 C568.899318,378.29465 569.379314,382.886604 569.379314,388.006629 C569.379314,393.126655 568.899318,397.718609 567.939314,401.782629 C566.979309,405.84665 565.475324,409.478613 563.427314,412.678629 C561.379303,415.878645 558.579331,418.342621 555.027314,420.070629 C551.475296,421.798638 547.267338,422.662629 542.403314,422.662629 C537.539289,422.662629 533.331331,421.798638 529.779314,420.070629 C526.227296,418.342621 523.427324,415.878645 521.379314,412.678629 C519.331303,409.478613 517.827318,405.84665 516.867314,401.782629 C515.907309,397.718609 515.427314,393.126655 515.427314,388.006629 C515.427314,382.886604 515.907309,378.29465 516.867314,374.230629 C517.827318,370.166609 519.331303,366.534645 521.379314,363.334629 C523.427324,360.134613 526.227296,357.670638 529.779314,355.942629 C533.331331,354.214621 537.539289,353.350629 542.403314,353.350629 Z M542.403314,368.710629 C540.547304,368.710629 538.931321,369.078626 537.555314,369.814629 C536.179307,370.550633 535.123317,371.462624 534.387314,372.550629 C533.65131,373.638635 533.059316,375.07862 532.611314,376.870629 C532.163311,378.662638 531.875314,380.390621 531.747314,382.054629 C531.619313,383.718638 531.555314,385.702618 531.555314,388.006629 C531.555314,390.310641 531.619313,392.294621 531.747314,393.958629 C531.875314,395.622638 532.163311,397.35062 532.611314,399.142629 C533.059316,400.934638 533.65131,402.374624 534.387314,403.462629 C535.123317,404.550635 536.179307,405.462626 537.555314,406.198629 C538.931321,406.934633 540.547304,407.302629 542.403314,407.302629 C544.259323,407.302629 545.875307,406.934633 547.251314,406.198629 C548.627321,405.462626 549.68331,404.550635 550.419314,403.462629 C551.155317,402.374624 551.747311,400.934638 552.195314,399.142629 C552.643316,397.35062 552.931313,395.622638 553.059314,393.958629 C553.187314,392.294621 553.251314,390.310641 553.251314,388.006629 C553.251314,385.702618 553.187314,383.718638 553.059314,382.054629 C552.931313,380.390621 552.643316,378.662638 552.195314,376.870629 C551.747311,375.07862 551.155317,373.638635 550.419314,372.550629 C549.68331,371.462624 548.627321,370.550633 547.251314,369.814629 C545.875307,369.078626 544.259323,368.710629 542.403314,368.710629 Z M602.115314,365.542629 C597.699292,365.542629 595.267316,367.910606 594.819314,372.646629 L578.883314,372.646629 C578.883314,365.926596 581.043292,360.726648 585.363314,357.046629 C589.683335,353.366611 595.427278,351.526629 602.595314,351.526629 C609.763349,351.526629 615.331294,353.286612 619.299314,356.806629 C623.267333,360.326647 625.251314,364.806602 625.251314,370.246629 C625.251314,374.534651 624.211324,378.022616 622.131314,380.710629 C620.051303,383.398643 617.923325,385.190625 615.747314,386.086629 L615.747314,386.470629 C622.915349,389.222643 626.499314,394.758588 626.499314,403.078629 C626.499314,409.350661 624.403335,414.294611 620.211314,417.910629 C616.019293,421.526648 610.227351,423.334629 602.835314,423.334629 C595.443277,423.334629 589.411337,421.446648 584.739314,417.670629 C580.06729,413.894611 577.731314,408.262667 577.731314,400.774629 L593.667314,400.774629 C593.731314,403.590644 594.531306,405.814621 596.067314,407.446629 C597.603321,409.078638 599.7313,409.894629 602.451314,409.894629 C605.171327,409.894629 607.219307,409.158637 608.595314,407.686629 C609.971321,406.214622 610.659314,404.118643 610.659314,401.398629 C610.659314,398.678616 609.699323,396.646636 607.779314,395.302629 C605.859304,393.958623 602.723335,393.286629 598.371314,393.286629 L595.299314,393.286629 L595.299314,379.942629 L598.371314,379.942629 C605.66735,379.942629 609.315314,377.382655 609.315314,372.262629 C609.315314,370.214619 608.65932,368.582636 607.347314,367.366629 C606.035307,366.150623 604.291325,365.542629 602.115314,365.542629 Z M653.571314,382.054629 C651.843305,383.782638 649.715326,384.646629 647.187314,384.646629 C644.659301,384.646629 642.531322,383.782638 640.803314,382.054629 C639.075305,380.326621 638.211314,378.198642 638.211314,375.670629 C638.211314,373.142617 639.075305,371.014638 640.803314,369.286629 C642.531322,367.558621 644.659301,366.694629 647.187314,366.694629 C649.715326,366.694629 651.843305,367.558621 653.571314,369.286629 C655.299322,371.014638 656.163314,373.142617 656.163314,375.670629 C656.163314,378.198642 655.299322,380.326621 653.571314,382.054629 Z M653.571314,420.358629 C651.843305,422.086638 649.715326,422.950629 647.187314,422.950629 C644.659301,422.950629 642.531322,422.086638 640.803314,420.358629 C639.075305,418.630621 638.211314,416.502642 638.211314,413.974629 C638.211314,411.446617 639.075305,409.318638 640.803314,407.590629 C642.531322,405.862621 644.659301,404.998629 647.187314,404.998629 C649.715326,404.998629 651.843305,405.862621 653.571314,407.590629 C655.299322,409.318638 656.163314,411.446617 656.163314,413.974629 C656.163314,416.502642 655.299322,418.630621 653.571314,420.358629 Z M693.795314,353.350629 C698.659338,353.350629 702.867296,354.214621 706.419314,355.942629 C709.971331,357.670638 712.771303,360.134613 714.819314,363.334629 C716.867324,366.534645 718.371309,370.166609 719.331314,374.230629 C720.291318,378.29465 720.771314,382.886604 720.771314,388.006629 C720.771314,393.126655 720.291318,397.718609 719.331314,401.782629 C718.371309,405.84665 716.867324,409.478613 714.819314,412.678629 C712.771303,415.878645 709.971331,418.342621 706.419314,420.070629 C702.867296,421.798638 698.659338,422.662629 693.795314,422.662629 C688.931289,422.662629 684.723331,421.798638 681.171314,420.070629 C677.619296,418.342621 674.819324,415.878645 672.771314,412.678629 C670.723303,409.478613 669.219318,405.84665 668.259314,401.782629 C667.299309,397.718609 666.819314,393.126655 666.819314,388.006629 C666.819314,382.886604 667.299309,378.29465 668.259314,374.230629 C669.219318,370.166609 670.723303,366.534645 672.771314,363.334629 C674.819324,360.134613 677.619296,357.670638 681.171314,355.942629 C684.723331,354.214621 688.931289,353.350629 693.795314,353.350629 Z M693.795314,368.710629 C691.939304,368.710629 690.323321,369.078626 688.947314,369.814629 C687.571307,370.550633 686.515317,371.462624 685.779314,372.550629 C685.04331,373.638635 684.451316,375.07862 684.003314,376.870629 C683.555311,378.662638 683.267314,380.390621 683.139314,382.054629 C683.011313,383.718638 682.947314,385.702618 682.947314,388.006629 C682.947314,390.310641 683.011313,392.294621 683.139314,393.958629 C683.267314,395.622638 683.555311,397.35062 684.003314,399.142629 C684.451316,400.934638 685.04331,402.374624 685.779314,403.462629 C686.515317,404.550635 687.571307,405.462626 688.947314,406.198629 C690.323321,406.934633 691.939304,407.302629 693.795314,407.302629 C695.651323,407.302629 697.267307,406.934633 698.643314,406.198629 C700.019321,405.462626 701.07531,404.550635 701.811314,403.462629 C702.547317,402.374624 703.139311,400.934638 703.587314,399.142629 C704.035316,397.35062 704.323313,395.622638 704.451314,393.958629 C704.579314,392.294621 704.643314,390.310641 704.643314,388.006629 C704.643314,385.702618 704.579314,383.718638 704.451314,382.054629 C704.323313,380.390621 704.035316,378.662638 703.587314,376.870629 C703.139311,375.07862 702.547317,373.638635 701.811314,372.550629 C701.07531,371.462624 700.019321,370.550633 698.643314,369.814629 C697.267307,369.078626 695.651323,368.710629 693.795314,368.710629 Z M756.387314,353.350629 C761.251338,353.350629 765.459296,354.214621 769.011314,355.942629 C772.563331,357.670638 775.363303,360.134613 777.411314,363.334629 C779.459324,366.534645 780.963309,370.166609 781.923314,374.230629 C782.883318,378.29465 783.363314,382.886604 783.363314,388.006629 C783.363314,393.126655 782.883318,397.718609 781.923314,401.782629 C780.963309,405.84665 779.459324,409.478613 777.411314,412.678629 C775.363303,415.878645 772.563331,418.342621 769.011314,420.070629 C765.459296,421.798638 761.251338,422.662629 756.387314,422.662629 C751.523289,422.662629 747.315331,421.798638 743.763314,420.070629 C740.211296,418.342621 737.411324,415.878645 735.363314,412.678629 C733.315303,409.478613 731.811318,405.84665 730.851314,401.782629 C729.891309,397.718609 729.411314,393.126655 729.411314,388.006629 C729.411314,382.886604 729.891309,378.29465 730.851314,374.230629 C731.811318,370.166609 733.315303,366.534645 735.363314,363.334629 C737.411324,360.134613 740.211296,357.670638 743.763314,355.942629 C747.315331,354.214621 751.523289,353.350629 756.387314,353.350629 Z M756.387314,368.710629 C754.531304,368.710629 752.915321,369.078626 751.539314,369.814629 C750.163307,370.550633 749.107317,371.462624 748.371314,372.550629 C747.63531,373.638635 747.043316,375.07862 746.595314,376.870629 C746.147311,378.662638 745.859314,380.390621 745.731314,382.054629 C745.603313,383.718638 745.539314,385.702618 745.539314,388.006629 C745.539314,390.310641 745.603313,392.294621 745.731314,393.958629 C745.859314,395.622638 746.147311,397.35062 746.595314,399.142629 C747.043316,400.934638 747.63531,402.374624 748.371314,403.462629 C749.107317,404.550635 750.163307,405.462626 751.539314,406.198629 C752.915321,406.934633 754.531304,407.302629 756.387314,407.302629 C758.243323,407.302629 759.859307,406.934633 761.235314,406.198629 C762.611321,405.462626 763.66731,404.550635 764.403314,403.462629 C765.139317,402.374624 765.731311,400.934638 766.179314,399.142629 C766.627316,397.35062 766.915313,395.622638 767.043314,393.958629 C767.171314,392.294621 767.235314,390.310641 767.235314,388.006629 C767.235314,385.702618 767.171314,383.718638 767.043314,382.054629 C766.915313,380.390621 766.627316,378.662638 766.179314,376.870629 C765.731311,375.07862 765.139317,373.638635 764.403314,372.550629 C763.66731,371.462624 762.611321,370.550633 761.235314,369.814629 C759.859307,369.078626 758.243323,368.710629 756.387314,368.710629 Z" id="0:03:00-copy" fill="#666666" fill-rule="nonzero" style="mix-blend-mode: multiply;"></path>
            <path d="M767.854103,768.682863 L767.854103,759.076481 C767.852604,751.661817 763.08839,745.378991 756.459267,743.074838 C756.193922,740.222007 753.823808,737.982316 750.900518,737.980817 C747.978726,737.982316 745.607113,740.222007 745.341768,743.074838 C738.714144,745.378991 733.948431,751.661817 733.946932,759.076481 L733.946932,768.682863 L722.812943,786.496946 L778.988092,786.496946 L767.854103,768.682863 Z M739.943425,770.402357 L739.943425,759.076481 C739.944924,756.040756 741.165211,753.321346 743.153048,751.329011 C745.145383,749.341174 747.866292,748.120887 750.900518,748.119388 C753.936242,748.120887 756.657151,749.341174 758.647987,751.329011 C760.635825,753.321346 761.856111,756.040756 761.85761,759.076481 L761.85761,770.402357 L768.168919,780.500452 L733.632116,780.500452 L739.943425,770.402357 Z" id="Fill-1-Copy" fill="#F2F2F2" fill-rule="nonzero"></path>
            <path d="M754.850708,786.496946 C754.849209,787.597302 754.412964,788.565736 753.693384,789.289812 C752.969308,790.009391 752.000874,790.445636 750.900518,790.447135 C749.800161,790.445636 748.831728,790.009391 748.107651,789.289812 C747.389571,788.565736 746.953326,787.597302 746.951827,786.496946 L740.955334,786.496946 C740.956833,791.991233 745.406231,796.440631 750.900518,796.443629 C756.394805,796.440631 760.844203,791.991233 760.847201,786.496946 L754.850708,786.496946" id="Fill-2-Copy" fill="#F2F2F2" fill-rule="nonzero"></path>
            <path d="M428.987768,749.531562 L428.987768,783.438734 L441.592397,783.438734 L459.404981,794.572723 L459.404981,738.399073 L441.590898,749.531562 L428.987768,749.531562 Z M453.408487,749.216747 L453.408487,783.75355 L443.311892,777.442241 L434.982763,777.442241 L434.982763,755.528056 L443.311892,755.528056 L453.408487,749.216747 Z" id="Fill-1" fill="#666666" fill-rule="nonzero" style="mix-blend-mode: multiply;"></path>
            <polyline id="Fill-2" fill="#666666" fill-rule="nonzero" style="mix-blend-mode: multiply;" points="501.801688 753.765087 497.562167 749.525566 484.840606 762.245627 472.120545 749.525566 467.881024 753.765087 480.601086 766.485148 467.881024 779.206709 472.120545 783.44623 484.840606 770.726168 497.562167 783.44623 501.801688 779.206709 489.081626 766.485148 501.801688 753.765087"></polyline>
            <polygon id="Imported-Layers-Copy-3" stroke="#F2F2F2" stroke-width="6" transform="translate(609.550429, 767.123025) rotate(-180.000000) translate(-609.550429, -767.123025) " points="628.156798 744.445037 590.944059 767.123775 628.156798 789.801013"></polygon>
            <g id="Group-5" transform="translate(422.187045, 618.000000)" fill-rule="nonzero">
                <rect id="Rectangle-90" fill="#F2F2F2" x="0.567032534" y="0.188564857" width="360" height="64.5" rx="7.5"></rect>
                <path d="M58.2840325,26.9285649 C57.997031,27.166566 57.8535325,27.5095626 57.8535325,27.9575649 C57.8535325,28.4055671 57.9865311,28.7660635 58.2525325,29.0390649 C58.5185338,29.3120662 58.8650303,29.5220641 59.2920325,29.6690649 C59.7190346,29.8160656 60.1950298,29.9560642 60.7200325,30.0890649 C61.2450351,30.2220655 61.7665299,30.3830639 62.2845325,30.5720649 C62.8025351,30.7610658 63.2750303,30.9955635 63.7020325,31.2755649 C64.1290346,31.5555663 64.4755311,31.9510623 64.7415325,32.4620649 C65.0075338,32.9730674 65.1405325,33.5855613 65.1405325,34.2995649 C65.1405325,35.5455711 64.6330375,36.6130604 63.6180325,37.5020649 C62.6030274,38.3910693 61.2660408,38.8355649 59.6070325,38.8355649 C57.9480242,38.8355649 56.6110375,38.4365688 55.5960325,37.6385649 C54.5810274,36.8405609 54.0735325,35.7065722 54.0735325,34.2365649 L57.8955325,34.2365649 C57.993533,35.4125707 58.5955269,36.0005649 59.7015325,36.0005649 C60.2195351,36.0005649 60.625531,35.8640662 60.9195325,35.5910649 C61.2135339,35.3180635 61.3605325,34.971567 61.3605325,34.5515649 C61.3605325,34.1315628 61.2275338,33.7885662 60.9615325,33.5225649 C60.6955311,33.2565635 60.3490346,33.0465656 59.9220325,32.8925649 C59.4950303,32.7385641 59.0190351,32.5950655 58.4940325,32.4620649 C57.9690298,32.3290642 57.4475351,32.1645658 56.9295325,31.9685649 C56.4115299,31.7725639 55.9390346,31.5380662 55.5120325,31.2650649 C55.0850303,30.9920635 54.7385338,30.6000674 54.4725325,30.0890649 C54.2065311,29.5780623 54.0735325,28.9725684 54.0735325,28.2725649 C54.0735325,26.900558 54.5845274,25.801569 55.6065325,24.9755649 C56.6285376,24.1495607 57.9340245,23.7365649 59.5230325,23.7365649 C61.1120404,23.7365649 62.3965276,24.0970613 63.3765325,24.8180649 C64.3565374,25.5390685 64.8675323,26.6765571 64.9095325,28.2305649 L61.0035325,28.2305649 C60.9475322,27.6985622 60.7760339,27.2890663 60.4890325,27.0020649 C60.202031,26.7150634 59.8345347,26.5715649 59.3865325,26.5715649 C58.9385302,26.5715649 58.5710339,26.6905637 58.2840325,26.9285649 Z M86.0145325,23.9465649 L89.8785325,23.9465649 L85.7625325,38.6885649 L81.6465325,38.6885649 L79.0635325,29.3435649 L76.5015325,38.6885649 L72.3855325,38.6885649 L68.2065325,23.9465649 L72.0495325,23.9465649 L74.6115325,34.5515649 L77.2365325,23.9465649 L81.3105325,23.9465649 L83.8305325,34.3835649 L86.0145325,23.9465649 Z M93.2805325,38.6885649 L93.2805325,23.9465649 L96.8715325,23.9465649 L96.8715325,38.6885649 L93.2805325,38.6885649 Z M112.936532,28.4615649 C112.936532,29.4555698 112.579536,30.4145602 111.865532,31.3385649 C111.487531,31.8145672 110.924036,32.2030634 110.175032,32.5040649 C109.426029,32.8050664 108.540538,32.9555649 107.518532,32.9555649 L105.292532,32.9555649 L105.292532,38.6885649 L101.701532,38.6885649 L101.701532,23.9465649 L107.518532,23.9465649 C109.226541,23.9465649 110.556528,24.3875604 111.508532,25.2695649 C112.460537,26.1515693 112.936532,27.2155586 112.936532,28.4615649 Z M105.292532,30.2255649 L107.518532,30.2255649 C108.064535,30.2255649 108.495031,30.0645665 108.810032,29.7425649 C109.125034,29.4205632 109.282532,28.9970675 109.282532,28.4720649 C109.282532,27.9470622 109.121534,27.5165665 108.799532,27.1805649 C108.477531,26.8445632 108.050535,26.6765649 107.518532,26.6765649 L105.292532,26.6765649 L105.292532,30.2255649 Z M125.704532,23.9045649 L125.704532,26.6345649 L120.370532,26.6345649 L120.370532,29.8055649 L125.074532,29.8055649 L125.074532,32.5355649 L120.370532,32.5355649 L120.370532,35.9585649 L125.704532,35.9585649 L125.704532,38.6885649 L116.779532,38.6885649 L116.779532,23.9045649 L125.704532,23.9045649 Z M137.443533,26.6765649 L137.443533,23.9465649 L149.077533,23.9465649 L149.077533,26.6765649 L145.045533,26.6765649 L145.045533,38.6885649 L141.454533,38.6885649 L141.454533,26.6765649 L137.443533,26.6765649 Z M163.483533,31.2755649 C163.483533,29.9875584 163.130036,28.9585687 162.423033,28.1885649 C161.716029,27.418561 160.771038,27.0335649 159.588033,27.0335649 C158.405027,27.0335649 157.460036,27.418561 156.753033,28.1885649 C156.046029,28.9585687 155.692533,29.9875584 155.692533,31.2755649 C155.692533,32.5635713 156.046029,33.592561 156.753033,34.3625649 C157.460036,35.1325687 158.405027,35.5175649 159.588033,35.5175649 C160.771038,35.5175649 161.716029,35.1325687 162.423033,34.3625649 C163.130036,33.592561 163.483533,32.5635713 163.483533,31.2755649 Z M152.038533,31.2755649 C152.038533,29.0915539 152.770025,27.289072 154.233033,25.8680649 C155.69604,24.4470578 157.488022,23.7365649 159.609033,23.7365649 C161.730043,23.7365649 163.515025,24.4470578 164.964033,25.8680649 C166.41304,27.289072 167.137533,29.0915539 167.137533,31.2755649 C167.137533,33.4595758 166.40954,35.2655577 164.953533,36.6935649 C163.497525,38.121572 161.712543,38.8355649 159.598533,38.8355649 C157.484522,38.8355649 155.69604,38.121572 154.233033,36.6935649 C152.770025,35.2655577 152.038533,33.4595758 152.038533,31.2755649 Z M188.032533,23.9045649 L188.032533,26.6345649 L182.698533,26.6345649 L182.698533,29.8055649 L187.402533,29.8055649 L187.402533,32.5355649 L182.698533,32.5355649 L182.698533,35.9585649 L188.032533,35.9585649 L188.032533,38.6885649 L179.107533,38.6885649 L179.107533,23.9045649 L188.032533,23.9045649 Z M202.396533,23.9045649 L205.987533,23.9045649 L205.987533,38.6885649 L202.396533,38.6885649 L196.390533,29.3855649 L196.390533,38.6885649 L192.799533,38.6885649 L192.799533,23.9045649 L196.390533,23.9045649 L202.396533,33.2075649 L202.396533,23.9045649 Z M214.408533,35.9585649 L216.004533,35.9585649 C217.376539,35.9585649 218.454529,35.5385691 219.238533,34.6985649 C220.022536,33.8585607 220.414533,32.7315719 220.414533,31.3175649 C220.414533,29.9035578 220.022536,28.7765691 219.238533,27.9365649 C218.454529,27.0965607 217.376539,26.6765649 216.004533,26.6765649 L214.408533,26.6765649 L214.408533,35.9585649 Z M216.004533,23.9465649 C218.356544,23.9465649 220.288525,24.629058 221.800533,25.9940649 C223.31254,27.3590717 224.068533,29.130054 224.068533,31.3070649 C224.068533,33.4840757 223.31254,35.258558 221.800533,36.6305649 C220.288525,38.0025717 218.356544,38.6885649 216.004533,38.6885649 L210.817533,38.6885649 L210.817533,23.9465649 L216.004533,23.9465649 Z M244.921533,23.9045649 L244.921533,26.6345649 L239.587533,26.6345649 L239.587533,29.8055649 L244.291533,29.8055649 L244.291533,32.5355649 L239.587533,32.5355649 L239.587533,35.9585649 L244.921533,35.9585649 L244.921533,38.6885649 L235.996533,38.6885649 L235.996533,23.9045649 L244.921533,23.9045649 Z M259.054533,38.6885649 L258.235533,36.2105649 L252.943533,36.2105649 L252.124533,38.6885649 L248.302533,38.6885649 L253.426533,23.9045649 L257.794533,23.9045649 L262.897533,38.6885649 L259.054533,38.6885649 Z M253.846533,33.4805649 L257.332533,33.4805649 L255.589533,28.2305649 L253.846533,33.4805649 Z M269.932533,32.9555649 L269.932533,38.6885649 L266.341533,38.6885649 L266.341533,23.9465649 L272.158533,23.9465649 C273.866541,23.9465649 275.196528,24.3875604 276.148533,25.2695649 C277.100537,26.1515693 277.576533,27.2155586 277.576533,28.4615649 C277.576533,29.3155691 277.317535,30.1485608 276.799533,30.9605649 C276.28153,31.7725689 275.434538,32.3465632 274.258533,32.6825649 L277.870533,38.6885649 L273.670533,38.6885649 L270.352533,32.9555649 L269.932533,32.9555649 Z M269.932533,26.6765649 L269.932533,30.2255649 L272.158533,30.2255649 C272.704535,30.2255649 273.135031,30.0645665 273.450033,29.7425649 C273.765034,29.4205632 273.922533,28.9970675 273.922533,28.4720649 C273.922533,27.9470622 273.761534,27.5165665 273.439533,27.1805649 C273.117531,26.8445632 272.690535,26.6765649 272.158533,26.6765649 L269.932533,26.6765649 Z M282.049533,23.9465649 L285.640533,23.9465649 L285.640533,35.9585649 L290.113533,35.9585649 L290.113533,38.6885649 L282.049533,38.6885649 L282.049533,23.9465649 Z M301.222533,38.6885649 L297.631533,38.6885649 L297.631533,33.9425649 L292.528533,23.9465649 L296.602533,23.9465649 L299.437533,30.6035649 L302.251533,23.9465649 L306.325533,23.9465649 L301.222533,33.9425649 L301.222533,38.6885649 Z" id="SWIPE-TO-END-EARLY" fill="#212830" opacity="0.85"></path>
            </g>
            <g id="Group-3" opacity="0.6" transform="translate(424.000000, 61.500000)" fill="#000000" fill-rule="nonzero">
                <polyline id="Fill-2" style="mix-blend-mode: multiply;" points="23.5364214 20.0934004 10.9497819 23.4304489 12.4863833 29.2275588 25.0730228 25.8905103 23.5364214 20.0934004"></polyline>
                <polyline id="Fill-3" style="mix-blend-mode: multiply;" points="31.237418 20.0934004 29.6993174 25.8905103 42.2859569 29.2275588 43.8240574 23.4304489 31.237418 20.0934004"></polyline>
                <path d="M27.3861701,37.3033362 C24.5738147,37.2988389 21.7869445,36.2389587 19.6401999,34.0952123 L15.4006791,38.3347331 C18.7032478,41.6388009 23.0582011,43.3028278 27.3861701,43.2998295 C31.7141392,43.3028278 36.0705916,41.6388009 39.3731603,38.3347331 L35.1336395,34.0952123 C32.9853958,36.2389587 30.2000246,37.2988389 27.3861701,37.3033362" id="Fill-5" style="mix-blend-mode: multiply;"></path>
                <path d="M27.3861701,0.658765535 C12.481886,0.660264658 0.404948412,12.7387013 0.401950165,27.6429855 C0.404948412,42.5472696 12.481886,54.6257063 27.3861701,54.6272054 C42.2904543,54.6257063 54.3688909,42.5472696 54.3703901,27.6429855 C54.3688909,12.7387013 42.2904543,0.660264658 27.3861701,0.658765535 Z M42.2274911,42.4828073 C38.4197178,46.2860832 33.1907757,48.629213 27.3861701,48.6307121 C21.5815646,48.629213 16.3541215,46.2860832 12.5463483,42.4828073 C8.74307238,38.6765332 6.39994261,33.447591 6.39844349,27.6429855 C6.39994261,21.8383799 8.74307238,16.6094378 12.5463483,12.8016645 C16.3541215,8.99988775 21.5815646,6.65675798 27.3861701,6.65525886 C33.1907757,6.65675798 38.4197178,8.99988775 42.2274911,12.8016645 C46.0292679,16.6094378 48.3723976,21.8383799 48.3738967,27.6429855 C48.3723976,33.447591 46.0292679,38.6765332 42.2274911,42.4828073 Z" id="Fill-1" style="mix-blend-mode: multiply;"></path>
                <path d="M79.8792885,34.9483916 L82.1592885,34.9483916 C84.1192983,34.9483916 85.6592829,34.3483976 86.7792885,33.1483916 C87.8992941,31.9483856 88.4592885,30.3384017 88.4592885,28.3183916 C88.4592885,26.2983815 87.8992941,24.6883976 86.7792885,23.4883916 C85.6592829,22.2883856 84.1192983,21.6883916 82.1592885,21.6883916 L79.8792885,21.6883916 L79.8792885,34.9483916 Z M82.1592885,17.7883916 C85.5193053,17.7883916 88.2792777,18.7633818 90.4392885,20.7133916 C92.5992993,22.6634013 93.6792885,25.193376 93.6792885,28.3033916 C93.6792885,31.4134071 92.5992993,33.9483818 90.4392885,35.9083916 C88.2792777,37.8684014 85.5193053,38.8483916 82.1592885,38.8483916 L74.7492885,38.8483916 L74.7492885,17.7883916 L82.1592885,17.7883916 Z M104.449289,30.6583916 L104.449289,38.8483916 L99.3192885,38.8483916 L99.3192885,17.7883916 L107.629289,17.7883916 C110.069301,17.7883916 111.969282,18.4183853 113.329289,19.6783916 C114.689295,20.9383979 115.369289,22.4583827 115.369289,24.2383916 C115.369289,25.4583977 114.999292,26.6483858 114.259289,27.8083916 C113.519285,28.9683974 112.309297,29.7883892 110.629289,30.2683916 L115.789289,38.8483916 L109.789289,38.8483916 L105.049289,30.6583916 L104.449289,30.6583916 Z M104.449289,21.6883916 L104.449289,26.7583916 L107.629289,26.7583916 C108.409292,26.7583916 109.024286,26.5283939 109.474289,26.0683916 C109.924291,25.6083893 110.149289,25.0033953 110.149289,24.2533916 C110.149289,23.5033878 109.919291,22.888394 109.459289,22.4083916 C108.999286,21.9283892 108.389292,21.6883916 107.629289,21.6883916 L104.449289,21.6883916 Z M136.879289,28.2583916 C136.879289,26.4183824 136.374294,24.9483971 135.364289,23.8483916 C134.354284,22.7483861 133.004297,22.1983916 131.314289,22.1983916 C129.62428,22.1983916 128.274294,22.7483861 127.264289,23.8483916 C126.254284,24.9483971 125.749289,26.4183824 125.749289,28.2583916 C125.749289,30.0984008 126.254284,31.5683861 127.264289,32.6683916 C128.274294,33.7683971 129.62428,34.3183916 131.314289,34.3183916 C133.004297,34.3183916 134.354284,33.7683971 135.364289,32.6683916 C136.374294,31.5683861 136.879289,30.0984008 136.879289,28.2583916 Z M120.529289,28.2583916 C120.529289,25.138376 121.574278,22.5634017 123.664289,20.5333916 C125.754299,18.5033814 128.314273,17.4883916 131.344289,17.4883916 C134.374304,17.4883916 136.924278,18.5033814 138.994289,20.5333916 C141.064299,22.5634017 142.099289,25.138376 142.099289,28.2583916 C142.099289,31.3784072 141.059299,33.9583814 138.979289,35.9983916 C136.899278,38.0384018 134.349304,39.0583916 131.329289,39.0583916 C128.309273,39.0583916 125.754299,38.0384018 123.664289,35.9983916 C121.574278,33.9583814 120.529289,31.3784072 120.529289,28.2583916 Z M163.849289,24.2383916 C163.849289,25.6583987 163.339294,27.028385 162.319289,28.3483916 C161.779286,29.028395 160.974294,29.5833894 159.904289,30.0133916 C158.834283,30.4433937 157.569296,30.6583916 156.109289,30.6583916 L152.929289,30.6583916 L152.929289,38.8483916 L147.799289,38.8483916 L147.799289,17.7883916 L156.109289,17.7883916 C158.549301,17.7883916 160.449282,18.4183853 161.809289,19.6783916 C163.169295,20.9383979 163.849289,22.4583827 163.849289,24.2383916 Z M152.929289,26.7583916 L156.109289,26.7583916 C156.889293,26.7583916 157.504286,26.5283939 157.954289,26.0683916 C158.404291,25.6083893 158.629289,25.0033953 158.629289,24.2533916 C158.629289,23.5033878 158.399291,22.888394 157.939289,22.4083916 C157.479286,21.9283892 156.869292,21.6883916 156.109289,21.6883916 L152.929289,21.6883916 L152.929289,26.7583916 Z M180.739289,38.8483916 L180.739289,17.7883916 L185.869289,17.7883916 L185.869289,38.8483916 L180.739289,38.8483916 Z M206.479289,17.7283916 L211.609289,17.7283916 L211.609289,38.8483916 L206.479289,38.8483916 L197.899289,25.5583916 L197.899289,38.8483916 L192.769289,38.8483916 L192.769289,17.7283916 L197.899289,17.7283916 L206.479289,31.0183916 L206.479289,17.7283916 Z" id="DROP-IN" style="mix-blend-mode: multiply;"></path>
            </g>
        </g>
    </g>
</svg>