<?xml version="1.0" encoding="utf-8"?>
<!-- Generator: Adobe Illustrator 17.1.0, SVG Export Plug-In . SVG Version: 6.00 Build 0)  -->
<!DOCTYPE svg PUBLIC "-//W3C//DTD SVG 1.1//EN" "http://www.w3.org/Graphics/SVG/1.1/DTD/svg11.dtd">
<svg version="1.1" id="Layer_1" xmlns="http://www.w3.org/2000/svg" xmlns:xlink="http://www.w3.org/1999/xlink" x="0px" y="0px"
	 viewBox="-3.3 104.7 806.7 806.7" enable-background="new -3.3 104.7 806.7 806.7" xml:space="preserve">
<g>
	<defs>
		<rect id="SVGID_1_" x="925.5" y="108" width="800" height="800"/>
	</defs>
	<clipPath id="SVGID_2_">
		<use xlink:href="#SVGID_1_"  overflow="visible"/>
	</clipPath>
	<g clip-path="url(#SVGID_2_)">
		<defs>
			<rect id="SVGID_3_" x="925.5" y="108" width="800" height="800"/>
		</defs>
		<clipPath id="SVGID_4_">
			<use xlink:href="#SVGID_3_"  overflow="visible"/>
		</clipPath>
		<g clip-path="url(#SVGID_4_)">
			<g>
				<defs>
					<rect id="SVGID_5_" x="925.5" y="108" width="800" height="800"/>
				</defs>
				<clipPath id="SVGID_6_">
					<use xlink:href="#SVGID_5_"  overflow="visible"/>
				</clipPath>
				<rect x="922.1" y="104.7" clip-path="url(#SVGID_6_)" fill="#A5D7BA" width="806.7" height="806.7"/>
			</g>
		</g>
	</g>
	<g clip-path="url(#SVGID_2_)">
		<defs>
			<rect id="SVGID_7_" x="925.5" y="108" width="800" height="800"/>
		</defs>
		<clipPath id="SVGID_8_">
			<use xlink:href="#SVGID_7_"  overflow="visible"/>
		</clipPath>
		<g clip-path="url(#SVGID_8_)">
			<g>
				<defs>
					<rect id="SVGID_9_" x="925.5" y="108" width="800" height="800"/>
				</defs>
				<clipPath id="SVGID_10_">
					<use xlink:href="#SVGID_9_"  overflow="visible"/>
				</clipPath>
				<g clip-path="url(#SVGID_10_)">
					<g>
						<defs>
							<rect id="SVGID_11_" x="925.5" y="108" width="800" height="800"/>
						</defs>
						<clipPath id="SVGID_12_">
							<use xlink:href="#SVGID_11_"  overflow="visible"/>
						</clipPath>
						<rect x="922.1" y="104.7" clip-path="url(#SVGID_12_)" fill="#53BB7D" width="806.7" height="806.7"/>
					</g>
				</g>
			</g>
			<g>
				<defs>
					<rect id="SVGID_13_" x="925.5" y="108" width="800" height="800"/>
				</defs>
				<clipPath id="SVGID_14_">
					<use xlink:href="#SVGID_13_"  overflow="visible"/>
				</clipPath>
				<path clip-path="url(#SVGID_14_)" fill="none" d="M1229.9,281.7c1.3,0.3,2.6,0.8,3.9,1.3C1232.5,282.5,1231.2,282,1229.9,281.7z
					"/>
			</g>
			<g>
				<defs>
					<rect id="SVGID_15_" x="925.5" y="108" width="800" height="800"/>
				</defs>
				<clipPath id="SVGID_16_">
					<use xlink:href="#SVGID_15_"  overflow="visible"/>
				</clipPath>
				<path clip-path="url(#SVGID_16_)" fill="none" d="M1237.6,284.9c-1.3-0.7-2.5-1.3-3.8-1.9
					C1235.1,283.5,1236.4,284.2,1237.6,284.9L1237.6,284.9z"/>
			</g>
			<g>
				<defs>
					<rect id="SVGID_17_" x="925.5" y="108" width="800" height="800"/>
				</defs>
				<clipPath id="SVGID_18_">
					<use xlink:href="#SVGID_17_"  overflow="visible"/>
				</clipPath>
				<path opacity="0.6" clip-path="url(#SVGID_18_)" fill="#F4F4F5" enable-background="new    " d="M1496.8,514.7
					c-1-3.6-3.8-6.3-7.4-7.2c-4.8-1.1-10.3-2.5-16.7-4.5c-17.5-5.4-39.4-14-58.5-28.3c-10.3-7.7-19.7-17.4-26.8-29.2
					c-1.4-2.4-3.7-4-6.4-4.6c-0.7-0.2-1.5-0.3-2.2-0.3c-1.9,0-3.8,0.6-5.5,1.7c-0.2,0.1-0.3,0.2-0.4,0.3c-16,9.5-37.7,18.3-62.6,25
					c-16.4,4.4-32.1,7.3-46.1,8.7c-6.3,0.6-12.2,0.9-17.9,0.9c-1.2,0-2.4,0-3.6,0c-0.1,0-0.1,0-0.2,0c-2.6,0-5.1,1-6.9,2.8
					c-1.9,1.9-3,4.4-3.1,7c-0.2,13.8-3.5,27-8.6,38.8c-6.3,14.6-14.9,27.6-23.6,38.8c-9.2,11.6-18.3,20.9-25.1,27.3
					c-2.7,2.5-3.8,6.3-2.8,9.9l24.4,90.9c0.7,2.7,2.5,4.9,4.9,6.2l98.5,52.7c0.5,0.3,1.1,0.5,1.7,0.7c6,1.9,12.4,3.1,19.9,3.1
					c0.1,0,0.2,0,0.3,0c2.7,0,5.6-0.1,8.8-0.4l0,0c12.9-1.1,29.7-4.7,53.5-11.1l0,0c23.8-6.4,40.2-11.7,51.9-17.2l0,0
					c5.4-2.6,9.9-5.1,13.7-7.9c3.9-2.8,7.1-5.8,10-9c0.4-0.4,0.8-1,1.1-1.5l19.9-32.1c2.2-3.5,2-7.9-0.5-11.2c-1.9-2.6-4.9-4-8-4
					c-0.9,0-1.7,0.1-2.6,0.3l-86.2,23.1l0,0c-20.4,5.5-37.2,7.7-51.5,7.7c-3.2,0-6.3-0.1-9.3-0.3l0,0c-16.2-1.1-29.1-5.1-40-9l0,0
					c-2.6-0.9-4.6-2.5-6-4.6c-1.4-2.1-2.2-4.5-2.2-7c0-1.3,0.2-2.7,0.7-4l0,0c0.9-2.6,2.5-4.6,4.6-6c2.1-1.4,4.5-2.2,7.1-2.2
					c0,0,0,0,0,0c1.3,0,2.7,0.2,4,0.7l0,0c5.2,1.8,10.3,3.5,15.8,4.9c5.5,1.4,11.3,2.4,17.8,2.8l0,0c2.4,0.2,5,0.3,7.7,0.3
					c0,0,0,0,0,0c11.9,0,26.3-1.8,45.1-6.8l8.1-2.2c2.8-0.7,5.2-2.7,6.4-5.3c1.3-2.6,1.3-5.7,0.2-8.3c-0.7-1.7-1.1-3.4-1.1-5.1
					c0-1.3,0.2-2.5,0.6-3.7c0.9-2.6,2.5-4.6,4.6-6c2.1-1.4,4.5-2.2,7-2.2c0,0,0,0,0,0c1.3,0,2.7,0.2,4,0.7l0,0
					c5.3,1.8,10.4,3.5,15.8,4.9c5.5,1.4,11.3,2.4,17.8,2.8l0,0c2.2,0.1,4.5,0.2,6.8,0.2c6.7,0,14.3-0.6,22.8-1.9
					c0.7-0.1,1.4-0.3,2.1-0.6c10.9-4.2,19.5-8.7,26.5-13.3l0,0c6.9-4.7,12.3-9.5,17.1-14.5c2.4-2.5,3.4-6.2,2.5-9.5L1496.8,514.7z"
					/>
			</g>
			<g>
				<defs>
					<rect id="SVGID_19_" x="925.5" y="108" width="800" height="800"/>
				</defs>
				<clipPath id="SVGID_20_">
					<use xlink:href="#SVGID_19_"  overflow="visible"/>
				</clipPath>
				<path clip-path="url(#SVGID_20_)" fill="#F4F4F5" d="M1303.9,443.9C1303.9,443.9,1303.9,443.9,1303.9,443.9
					C1303.9,443.9,1303.9,443.9,1303.9,443.9L1303.9,443.9z"/>
			</g>
			<g>
				<defs>
					<rect id="SVGID_21_" x="925.5" y="108" width="800" height="800"/>
				</defs>
				<clipPath id="SVGID_22_">
					<use xlink:href="#SVGID_21_"  overflow="visible"/>
				</clipPath>
				<path opacity="0.9" clip-path="url(#SVGID_22_)" fill="#FFFFFF" enable-background="new    " d="M1355.9,424
					c4.3-2.3,8-4.6,11.2-6.9c1.6-1.2,2.8-2.3,3.6-2.9c2.9-2.5,4.1-6.4,3.1-10.1l-35.1-131c-0.8-3-3-5.5-5.9-6.7
					c-1.2-0.5-2.5-0.7-3.8-0.7c-1.8,0-3.5,0.5-5.1,1.4c-6.2,3.7-12.4,6.5-18.6,8.2l0,0c-6.4,1.7-13,2.6-19.7,2.6
					c-12.9,0-26-3.3-38-10.2l0,0c-8.1-4.6-16.9-6.9-25.6-6.9c0,0,0,0,0,0c-4.5,0-9,0.6-13.4,1.8l0,0c-9.5,2.6-18.3,7.8-25.1,15.5
					c-2.2,2.5-3,6-2.2,9.2l42.1,157.2c1,3.7,4,6.5,7.8,7.2c3,0.6,7.2,1.2,12.6,1.2c0.6,0,1.2,0,1.9,0c7.7,0,16.6-0.7,26.5-2.2
					c9.9-1.5,20.6-3.7,31.7-6.7c13.8-3.6,26.6-8.1,37.4-12.8C1346.7,428.7,1351.6,426.4,1355.9,424z M1233.8,283
					c1.3,0.5,2.6,1.2,3.8,1.9l0,0l0,0l0,0C1236.4,284.2,1235.1,283.5,1233.8,283c-1.3-0.5-2.6-1-3.9-1.3
					C1231.2,282,1232.5,282.5,1233.8,283z"/>
			</g>
			<g>
				<defs>
					<rect id="SVGID_23_" x="925.5" y="108" width="800" height="800"/>
				</defs>
				<clipPath id="SVGID_24_">
					<use xlink:href="#SVGID_23_"  overflow="visible"/>
				</clipPath>
				<line clip-path="url(#SVGID_24_)" fill="none" x1="1237.6" y1="284.9" x2="1237.7" y2="284.9"/>
			</g>
		</g>
	</g>
</g>
<g>
	<rect x="-3.3" y="104.7" fill="#53BB7D" width="806.7" height="806.7"/>
	<g>
		<g>
			<g>
				<g>
					<path fill="none" d="M304.5,281.7c1.3,0.3,2.6,0.8,3.9,1.3C307.1,282.5,305.8,282,304.5,281.7z"/>
				</g>
				<g>
					<path fill="none" d="M312.2,284.9c-1.3-0.7-2.5-1.3-3.8-1.9C309.6,283.5,310.9,284.2,312.2,284.9L312.2,284.9z"/>
				</g>
				<g>
					<path opacity="0.6" fill="#F4F4F5" enable-background="new    " d="M571.3,514.7c-1-3.6-3.8-6.3-7.4-7.2
						c-4.8-1.1-10.3-2.5-16.7-4.5c-17.5-5.4-39.4-14-58.5-28.3c-10.3-7.7-19.7-17.4-26.8-29.2c-1.4-2.4-3.7-4-6.4-4.6
						c-0.7-0.2-1.5-0.3-2.2-0.3c-1.9,0-3.8,0.6-5.5,1.7c-0.2,0.1-0.3,0.2-0.4,0.3c-16,9.5-37.7,18.3-62.6,25
						c-16.4,4.4-32.1,7.3-46.1,8.7c-6.3,0.6-12.2,0.9-17.9,0.9c-1.2,0-2.4,0-3.6,0c-0.1,0-0.1,0-0.2,0c-2.6,0-5.1,1-6.9,2.8
						c-1.9,1.9-3,4.4-3.1,7c-0.2,13.8-3.5,27-8.6,38.8c-6.3,14.6-14.9,27.6-23.6,38.8c-9.2,11.6-18.3,20.9-25.1,27.3
						c-2.7,2.5-3.8,6.3-2.8,9.9l24.4,90.9c0.7,2.7,2.5,4.9,4.9,6.2l98.5,52.7c0.5,0.3,1.1,0.5,1.7,0.7c6,1.9,12.4,3.1,19.9,3.1
						c0.1,0,0.2,0,0.3,0c2.7,0,5.6-0.1,8.8-0.4l0,0c12.9-1.1,29.7-4.7,53.5-11.1l0,0c23.8-6.4,40.2-11.7,51.9-17.2l0,0
						c5.4-2.6,9.9-5.1,13.7-7.9c3.9-2.8,7.1-5.8,10-9c0.4-0.4,0.8-1,1.1-1.5l19.9-32.1c2.2-3.5,2-7.9-0.5-11.2c-1.9-2.6-4.9-4-8-4
						c-0.9,0-1.7,0.1-2.6,0.3l-86.2,23.1l0,0c-20.4,5.5-37.2,7.7-51.5,7.7c-3.2,0-6.3-0.1-9.3-0.3l0,0c-16.2-1.1-29.1-5.1-40-9l0,0
						c-2.6-0.9-4.6-2.5-6-4.6c-1.4-2.1-2.2-4.5-2.2-7c0-1.3,0.2-2.7,0.7-4l0,0c0.9-2.6,2.5-4.6,4.6-6c2.1-1.4,4.5-2.2,7.1-2.2
						c0,0,0,0,0,0c1.3,0,2.7,0.2,4,0.7l0,0c5.2,1.8,10.3,3.5,15.8,4.9c5.5,1.4,11.3,2.4,17.8,2.8l0,0c2.4,0.2,5,0.3,7.7,0.3
						c0,0,0,0,0,0c11.9,0,26.3-1.8,45.1-6.8l8.1-2.2c2.8-0.7,5.2-2.7,6.4-5.3c1.3-2.6,1.3-5.7,0.2-8.3c-0.7-1.7-1.1-3.4-1.1-5.1
						c0-1.3,0.2-2.5,0.6-3.7c0.9-2.6,2.5-4.6,4.6-6c2.1-1.4,4.5-2.2,7-2.2c0,0,0,0,0,0c1.3,0,2.7,0.2,4,0.7l0,0
						c5.3,1.8,10.4,3.5,15.8,4.9c5.5,1.4,11.3,2.4,17.8,2.8l0,0c2.2,0.1,4.5,0.2,6.8,0.2c6.7,0,14.3-0.6,22.8-1.9
						c0.7-0.1,1.4-0.3,2.1-0.6c10.9-4.2,19.5-8.7,26.5-13.3l0,0c6.9-4.7,12.3-9.5,17.1-14.5c2.4-2.5,3.4-6.2,2.5-9.5L571.3,514.7z"
						/>
				</g>
				<g>
					<path fill="#F4F4F5" d="M378.4,443.9C378.4,443.9,378.4,443.9,378.4,443.9C378.4,443.9,378.4,443.9,378.4,443.9L378.4,443.9z"
						/>
				</g>
				<g>
					<path opacity="0.9" fill="#FFFFFF" enable-background="new    " d="M430.5,424c4.3-2.3,8-4.6,11.2-6.9c1.6-1.2,2.8-2.3,3.6-2.9
						c2.9-2.5,4.1-6.4,3.1-10.1l-35.1-131c-0.8-3-3-5.5-5.9-6.7c-1.2-0.5-2.5-0.7-3.8-0.7c-1.8,0-3.5,0.5-5.1,1.4
						c-6.2,3.7-12.4,6.5-18.6,8.2l0,0c-6.4,1.7-13,2.6-19.7,2.6c-12.9,0-26-3.3-38-10.2l0,0c-8.1-4.6-16.9-6.9-25.6-6.9c0,0,0,0,0,0
						c-4.5,0-9,0.6-13.4,1.8l0,0c-9.5,2.6-18.3,7.8-25.1,15.5c-2.2,2.5-3,6-2.2,9.2l42.1,157.2c1,3.7,4,6.5,7.8,7.2
						c3,0.6,7.2,1.2,12.6,1.2c0.6,0,1.2,0,1.9,0c7.7,0,16.6-0.7,26.5-2.2c9.9-1.5,20.6-3.7,31.7-6.7c13.8-3.6,26.6-8.1,37.4-12.8
						C421.2,428.7,426.1,426.4,430.5,424z M308.3,283c1.3,0.5,2.6,1.2,3.8,1.9l0,0l0,0l0,0C310.9,284.2,309.6,283.5,308.3,283
						c-1.3-0.5-2.6-1-3.9-1.3C305.8,282,307.1,282.5,308.3,283z"/>
				</g>
				<g>
					<line fill="none" x1="312.2" y1="284.9" x2="312.2" y2="284.9"/>
				</g>
			</g>
		</g>
	</g>
</g>
</svg>
